<svg width="598" height="381" viewBox="0 0 598 381" fill="none" xmlns="http://www.w3.org/2000/svg">
<path d="M245 73.3746C245 73.3746 218 58.3748 181.377 95.7458C146.922 141.944 198.443 178.025 153.179 205.208C107.915 232.391 142.873 284.556 101.833 301.886C50.0005 329.875 22.0005 295.375 2.50049 270.375" stroke="#343438" stroke-width="4"/>
<path fill-rule="evenodd" clip-rule="evenodd" d="M187.045 308.419C188.073 305.708 189.612 302.51 190.619 299.799L190.732 299.521C202.161 269.22 212.309 239.36 223.77 209.09C227.37 199.546 232.873 191.027 240.014 183.739C254.897 168.574 279.433 168.697 296.411 181.632L296.539 181.739L296.652 181.814C298.584 183.308 300.388 184.959 302.047 186.75C308.34 193.514 312.953 201.659 315.515 210.529C319.903 225.64 281.096 241.671 277.865 257.665C277.228 260.905 276.419 264.108 275.503 267.29C270.737 283.627 261.9 288.994 285.068 306.991C293.766 315.403 292.016 321.676 300.602 323.341C346.85 332.289 382.251 338.869 428.807 346.113C456.815 350.492 476.937 352.232 505.02 355.975H552.195C554.572 356.273 556.956 355.488 558.688 353.836L576.218 336.623C580.678 332.392 587.611 332.185 592.317 336.142L596.463 340.42C584.093 353.483 574.916 359.409 562.546 372.473C560.746 374.376 558.892 376.317 556.486 377.36C554.081 378.403 551.37 378.43 548.745 378.43H533.401C520.426 378.43 507.443 378.43 494.453 378.43L231.442 378.483C220.668 378.483 209.53 378.414 199.651 374.109C194.885 372.006 191.156 367.969 187.605 364.162" fill="white"/>
<path d="M187.045 308.419C188.073 305.708 189.612 302.51 190.619 299.799L190.732 299.521C202.161 269.22 212.309 239.36 223.77 209.09C227.37 199.546 232.873 191.027 240.014 183.739C254.897 168.574 279.433 168.697 296.411 181.632L296.539 181.739L296.652 181.814C298.584 183.308 300.388 184.959 302.047 186.75C308.34 193.514 312.953 201.659 315.515 210.529C319.903 225.64 281.096 241.671 277.865 257.665C277.228 260.905 276.419 264.108 275.503 267.29C270.737 283.627 261.9 288.994 285.068 306.991C293.766 315.403 292.016 321.676 300.602 323.341C346.85 332.289 382.251 338.869 428.807 346.113C456.815 350.492 476.937 352.232 505.02 355.975H552.195C554.572 356.273 556.956 355.488 558.688 353.836L576.218 336.623C580.678 332.392 587.611 332.185 592.317 336.142L596.463 340.42C584.093 353.483 574.916 359.409 562.546 372.473C560.746 374.376 558.892 376.317 556.486 377.36C554.081 378.403 551.37 378.43 548.745 378.43H533.401C520.426 378.43 507.443 378.43 494.453 378.43L231.442 378.483C220.668 378.483 209.53 378.414 199.651 374.109C194.885 372.006 191.156 367.969 187.605 364.162" stroke="black" stroke-width="1.29528"/>
<rect width="293.988" height="281.529" rx="21.2612" transform="matrix(-1 0 0 1 545.891 8.79785)" fill="url(#paint0_linear_2911_101714)"/>
<rect x="2.5" y="-2.5" width="308.136" height="295.813" rx="25.1724" transform="matrix(-1 0 0 1 554.989 5)" stroke="white" stroke-width="5"/>
<rect width="282.427" height="270.455" rx="21.2612" transform="matrix(-1 0 0 1 540.112 14.332)" fill="url(#paint1_linear_2911_101714)"/>
<path fill-rule="evenodd" clip-rule="evenodd" d="M350.191 28.5303H291.056C282.999 28.5303 276.463 35.5352 276.463 44.1604V201.836C276.463 210.477 283.02 217.487 291.056 217.487H350.191C358.227 217.487 364.758 210.477 364.758 201.836V44.1604C364.758 35.5352 358.227 28.5303 350.191 28.5303ZM295.499 210.477C288.781 210.477 283.349 204.654 283.349 197.446L283.36 48.5882C283.36 41.3854 288.792 35.5569 295.51 35.5569H345.741C352.459 35.5569 357.892 41.3854 357.892 48.5882V197.446C357.892 204.654 352.459 210.477 345.741 210.477H295.499Z" fill="url(#paint2_linear_2911_101714)"/>
<path d="M424.357 227.566L511.024 226.32C512.966 226.288 514.515 224.692 514.485 222.753C514.485 222.433 514.438 222.114 514.346 221.807C513.89 220.302 512.492 219.28 510.917 219.299L424.25 220.572C424.908 221.572 425.279 222.734 425.322 223.93C425.356 225.209 425.022 226.471 424.357 227.566Z" fill="#E8B98B"/>
<path opacity="0.2" d="M403.353 225.299C403.807 226.805 405.2 227.833 406.776 227.823L413.034 227.732C411.667 225.601 411.626 222.882 412.926 220.711L406.669 220.802C404.727 220.837 403.179 222.43 403.203 224.368C403.207 224.684 403.257 224.998 403.353 225.299Z" fill="#F3DCC5"/>
<path opacity="0.2" d="M403.556 239.229C404.007 240.732 405.402 241.755 406.974 241.737L493.105 240.48C492.149 239.351 491.605 237.931 491.562 236.454C491.521 235.429 491.725 234.41 492.157 233.48L406.877 234.71C404.938 234.748 403.393 236.341 403.416 238.277C403.416 238.599 403.463 238.92 403.556 239.229Z" fill="#F3DCC5"/>
<path d="M503.461 240.323L511.224 240.222C513.163 240.195 514.714 238.607 514.69 236.671C514.689 236.345 514.64 236.021 514.545 235.709C514.1 234.205 512.703 233.183 511.133 233.212L504.216 233.324C504.615 234.162 504.841 235.071 504.881 235.997C504.94 237.562 504.437 239.097 503.461 240.323Z" fill="#E8B98B"/>
<path d="M430.493 255.473L510.907 254.307C512.843 254.261 514.383 252.673 514.368 250.741C514.364 250.425 514.314 250.111 514.218 249.81C513.766 248.303 512.371 247.275 510.795 247.286L430.503 248.468C431.844 250.611 431.844 253.33 430.503 255.473H430.493Z" fill="#E8B98B"/>
<path opacity="0.2" d="M403.215 253.318C403.667 254.827 405.071 255.85 406.649 255.82L419.255 255.628L430.506 255.473C431.846 253.329 431.846 250.611 430.506 248.468L419.062 248.639L406.547 248.815C404.612 248.848 403.065 250.434 403.086 252.366C403.08 252.688 403.123 253.009 403.215 253.318Z" fill="#F3DCC5"/>
<path d="M413.024 227.731C414.641 230.261 417.756 231.396 420.625 230.5C423.495 229.605 425.407 226.901 425.292 223.902C425.232 222.138 424.472 220.471 423.178 219.267C421.885 218.063 420.165 217.422 418.397 217.486C416.629 217.543 414.956 218.301 413.75 219.593C412.543 220.884 411.902 222.603 411.969 224.368C412.014 225.563 412.378 226.724 413.024 227.731Z" fill="white"/>
<path opacity="0.72" d="M415.536 223.645C415.683 224.445 416.054 225.187 416.608 225.784C416.876 226.087 417.172 226.365 417.492 226.613C417.663 226.736 418.563 227.468 418.756 227.377C419.956 226.773 421.478 225.239 421.665 223.757C421.695 223.525 421.695 223.289 421.665 223.057C421.526 222.217 420.787 221.61 419.935 221.635C419.395 221.66 418.898 221.935 418.59 222.378C418.108 221.777 417.286 221.569 416.575 221.867C415.865 222.165 415.438 222.897 415.531 223.661L415.536 223.645Z" fill="white"/>
<path d="M493.097 240.479C494.385 242.019 496.302 242.896 498.312 242.866C500.322 242.836 502.211 241.902 503.453 240.324C504.432 239.093 504.936 237.552 504.872 235.982C504.833 235.055 504.607 234.146 504.208 233.308C503.055 230.944 500.616 229.477 497.983 229.565C495.448 229.642 493.182 231.161 492.154 233.474C491.722 234.404 491.518 235.423 491.559 236.447C491.599 237.926 492.141 239.348 493.097 240.479Z" fill="white"/>
<path opacity="0.72" d="M495.114 235.735C495.261 236.535 495.632 237.277 496.186 237.874C496.453 238.18 496.751 238.458 497.075 238.703C497.247 238.826 498.147 239.564 498.334 239.467C499.54 238.863 501.056 237.328 501.243 235.847C501.273 235.615 501.273 235.379 501.243 235.147C501.102 234.308 500.364 233.702 499.513 233.724C498.973 233.75 498.476 234.024 498.168 234.468C497.686 233.866 496.861 233.657 496.15 233.957C495.439 234.256 495.013 234.991 495.109 235.756L495.114 235.735Z" fill="white"/>
<path d="M419.254 255.628C420.9 258.114 424 259.208 426.845 258.305C429.691 257.403 431.59 254.724 431.496 251.746C431.451 250.586 431.108 249.457 430.499 248.468C429.259 246.486 427.07 245.297 424.729 245.332C422.389 245.367 420.237 246.621 419.056 248.639C418.418 249.723 418.106 250.966 418.156 252.222C418.203 253.436 418.583 254.614 419.254 255.628Z" fill="white"/>
<path opacity="0.72" d="M421.723 251.5C421.867 252.301 422.239 253.044 422.794 253.639C423.063 253.944 423.361 254.222 423.684 254.468C423.855 254.596 424.755 255.329 424.943 255.233C426.148 254.628 427.664 253.094 427.852 251.613C427.884 251.38 427.884 251.145 427.852 250.912C427.743 250.227 427.226 249.679 426.547 249.53C425.869 249.381 425.168 249.662 424.782 250.238C424.298 249.641 423.477 249.435 422.767 249.732C422.057 250.029 421.63 250.759 421.717 251.522L421.723 251.5Z" fill="white"/>
<path d="M515.145 163.324L514.995 183.831C514.918 191.26 508.982 197.305 501.543 197.531L481.185 197.884C477.657 197.929 474.26 196.548 471.768 194.056C469.276 191.563 467.899 188.17 467.952 184.649L468.107 164.148C468.173 156.711 474.112 150.653 481.56 150.427L501.918 150.068C505.448 150.025 508.847 151.409 511.338 153.906C513.83 156.403 515.203 159.8 515.145 163.324Z" fill="white"/>
<path d="M512.021 168.468L511.913 183.313C511.845 189.767 506.687 195.018 500.224 195.216L482.544 195.52C479.477 195.566 476.522 194.369 474.353 192.204C472.184 190.04 470.986 187.09 471.031 184.029V183.024C473.512 177.96 478.344 170.383 483.498 174.912C490.929 181.43 494.33 176.468 498.659 170.073C502.308 164.72 507.804 160.811 512.021 168.468Z" fill="#E8B98B"/>
<ellipse rx="4.87243" ry="4.99726" transform="matrix(-0.833404 -0.552664 -0.554119 0.832437 481.556 162.264)" fill="#E8B98B"/>
<path d="M504.184 46.6113C499.378 46.6068 495.09 49.6364 493.478 54.1751C491.867 58.7137 493.282 63.7777 497.01 66.8176L471.184 113.252C471 113.224 470.816 113.205 470.63 113.197C470.156 113.204 469.685 113.277 469.231 113.415L449.879 89.3258C451.631 86.8789 451.733 83.6138 450.139 81.0614C448.544 78.509 445.569 77.1757 442.608 77.6865C439.648 78.1974 437.288 80.4512 436.637 83.391C435.986 86.3309 437.172 89.3738 439.638 91.0928L426.085 129.762C423.64 129.905 421.636 131.758 421.296 134.189C420.956 136.62 422.375 138.953 424.686 139.765C426.997 140.576 429.559 139.64 430.806 137.528C432.054 135.416 431.641 132.715 429.82 131.073L443.377 92.4043C443.543 92.4043 443.705 92.428 443.872 92.428C444.881 92.4284 445.881 92.2222 446.808 91.8218L466.144 115.907C465.287 117.489 465.326 119.407 466.247 120.953C467.168 122.498 468.834 123.442 470.63 123.435C472.588 123.445 474.378 122.329 475.234 120.565C476.091 118.8 475.862 116.7 474.646 115.162L500.472 68.7431C504.734 70.2219 509.465 69.0316 512.525 65.7107C515.585 62.3899 516.393 57.5683 514.585 53.4271C512.776 49.2859 508.694 46.6106 504.184 46.6113Z" fill="white"/>
<path d="M164.808 248.308C164.845 248.142 164.883 247.982 164.936 247.816C166.668 241.637 170.231 236.125 175.158 232.004C175.217 231.972 175.287 231.913 175.346 231.876C175.801 231.55 176.278 231.234 176.755 230.924C177.397 230.523 178.062 230.138 178.721 229.753C178.777 229.714 178.838 229.684 178.903 229.662C181.453 228.476 183.881 227.043 186.151 225.384L186.264 225.309C189.328 223.277 192.098 220.914 194.011 217.636C194.054 217.567 194.09 217.493 194.118 217.417C194.155 217.417 194.155 217.358 194.172 217.342C195.934 214.668 197 211.738 196.781 208.695V208.605C197.316 203.642 196.781 198.418 196.984 193.381C196.984 193.071 196.984 192.761 197.038 192.445C197.091 192.13 197.091 191.75 197.113 191.44C197.093 191.337 197.093 191.232 197.113 191.13C197.186 190.134 197.315 189.143 197.498 188.162C199.24 178.745 205.299 170.355 212.714 164.441C212.881 164.299 213.06 164.17 213.249 164.056C221.564 157.971 230.666 155.608 236.629 154.693C236.684 154.685 236.74 154.685 236.795 154.693C239.034 154.527 241.161 154.565 243.128 154.121C243.165 154.121 243.203 154.121 243.219 154.121C245.419 153.695 247.382 152.468 248.726 150.677C249.234 150.026 249.688 149.334 250.081 148.608C250.137 148.567 250.176 148.509 250.194 148.442C251.738 146.044 252.757 143.347 253.183 140.528C253.237 140.256 253.312 139.994 253.349 139.721C254.635 133.625 254.673 126.994 254.705 121.513C255.203 113.07 258.964 102.188 265.5 94.4401C265.5 94.4401 265.5 94.4027 265.538 94.4027C267.433 92.5106 269.567 90.873 271.886 89.5313C277.751 86.2533 284.484 84.8534 291.173 85.5208C291.173 85.5208 291.173 85.5208 291.21 85.5208C291.221 85.5175 291.232 85.5175 291.242 85.5208C295.357 85.8679 299.343 87.1187 302.916 89.1837C304.23 89.9368 305.472 90.8065 306.629 91.7825C313.594 97.7501 317.585 107.076 318.688 116.273C318.779 116.984 318.833 117.685 318.871 118.412C318.889 118.496 318.889 118.584 318.871 118.669C319.74 119.85 320.254 121.254 320.355 122.717C320.556 126.036 318.709 129.142 315.694 130.556V130.7L315 132C314.893 135.254 314.277 138.005 313 141C310.857 146.054 307.636 152.426 301.159 153.34C300.008 153.504 295.662 153.294 294.5 153.34L291.435 166.42L288.81 177.756C277.362 171.254 266.379 169.607 254.287 173.403H254.249C248.589 175.115 243.447 178.212 239.292 182.414C225.855 193.349 210.731 245.394 209.826 248.618C209.822 248.656 209.809 248.693 209.788 248.725C209.788 248.725 209.788 248.725 209.788 248.763C209.788 248.8 209.788 248.816 209.751 248.853C209.712 249.005 209.656 249.152 209.585 249.292C209.531 249.458 209.472 249.623 209.403 249.789L209.017 250.779C206.338 257.682 197.691 280.189 195.768 285.744C193.47 292.305 191.675 292.819 191.675 292.819C191.577 292.796 191.483 292.758 191.396 292.707L191.032 292.562C185.23 290.216 179.849 286.943 175.099 282.873C175.062 282.873 175.062 282.873 175.062 282.835C170.665 278.374 167.476 272.87 165.793 266.842C163.938 260.84 163.599 254.473 164.808 248.308Z" fill="white"/>
<path d="M312.837 114.15C312.837 114.15 312.374 91.9968 290.5 86.4997C268.626 81.0027 249.817 95.8143 248.837 112.086C247.856 128.358 253.67 148.934 242.173 154.046C242.173 154.046 208.957 153.645 196.731 184.114C196.731 184.114 195.076 199.033 195.751 208.637C196.426 218.24 184.42 226.662 177.879 229.63C171.337 232.598 159.963 244.656 163.055 264.35C166.146 284.044 190.645 292.803 190.645 292.803C190.645 292.803 192.451 292.268 194.744 285.718C197.037 279.167 208.775 248.779 208.775 248.779C208.775 248.779 226.352 195.386 240.233 184.114C247.873 177.901 254.811 173.878 260.206 170.606C265.89 167.157 267.937 162.88 269.833 160.442C273.535 155.688 280.098 148.507 275.351 131.566C270.605 114.626 275.389 123.166 279.857 120.781C279.857 120.781 285.396 112.225 293.754 118.278C302.112 124.332 300.076 109.594 300.076 109.594L303.746 114.525C303.746 114.525 309.499 115.664 312.837 114.15Z" fill="#E8B98B"/>
<path d="M531.603 378.488H548.715C551.34 378.488 554.035 378.488 556.456 377.419C558.878 376.349 560.742 374.435 562.516 372.531C574.88 359.505 584.093 353.457 596.463 340.393L592.317 336.115C587.611 332.159 580.678 332.366 576.218 336.597L558.694 353.777L531.603 378.488Z" fill="url(#paint3_linear_2911_101714)"/>
<path d="M290.893 320.199C299.404 322.035 307.956 323.782 316.549 325.44C326.682 327.4 317 325.654 327.14 327.53L353.631 310.585L384.49 337.729C412.37 342.719 427.764 345.401 455.751 349.764L455.622 349.636L382.456 275.945C372.261 265.668 357.155 261.96 343.347 266.347L282.217 293.136C277.455 309.474 275.754 314.624 290.893 320.199Z" fill="white"/>
<path fill-rule="evenodd" clip-rule="evenodd" d="M259 230.5C222.459 285.327 184.735 366.919 183.347 373.667C181.959 380.415 176.41 379.819 171.764 379.822H134.96C131.706 379.822 127.576 377.981 127.576 374.733C127.576 371.484 131.706 370.2 134.96 370.2H150.672C157.048 368.437 163.862 363.679 167.563 359.124C171.263 354.568 193.038 289.597 211.118 243.05" fill="white"/>
<path d="M259 230.5C222.459 285.327 184.735 366.919 183.347 373.667C181.959 380.415 176.41 379.819 171.764 379.822H134.96C131.706 379.822 127.576 377.981 127.576 374.733C127.576 371.484 131.706 370.2 134.96 370.2H150.672C157.048 368.437 163.862 363.679 167.563 359.124C171.263 354.568 193.038 289.597 211.118 243.05" stroke="black" stroke-width="1.29528"/>
<path d="M244.107 256C229.268 279.018 211.999 312.635 196.499 344.597C225.162 319.418 279.055 319.505 281.611 318.511C283.212 318.588 283.535 318.711 283.535 318.711L283.876 318.688H280.595C280.595 318.688 278.939 302.718 285.5 273.5C284.841 276.869 286.454 270.185 285.5 273.5C286.159 270.132 286.36 266.66 291.5 256C297.692 243.16 313 222 312.294 210.979C309.626 201.784 304.837 193.34 298.312 186.323C296.684 184.563 294.916 182.94 293.024 181.467L292.933 181.398H292.901L292.606 181.179L292.477 181.072C290.692 179.71 288.814 178.474 286.858 177.371C284.001 175.752 280.996 174.407 277.884 173.356C269.698 171.377 261.094 171.436 253.331 173.89H253.293C248.723 176.147 247.991 177.056 242.929 181.179C235.787 188.467 227.417 200.017 223.817 209.578C218.845 222.768 213.859 235.944 208.859 249.105C208.856 249.145 208.843 249.184 208.821 249.217C208.821 249.217 208.821 249.217 208.821 249.255C208.821 249.292 208.821 249.308 208.784 249.346C208.745 249.498 208.689 249.645 208.618 249.784C208.567 249.953 208.506 250.119 208.436 250.282C221 244.5 249.345 247.875 244.107 256Z" fill="url(#paint4_linear_2911_101714)"/>
<path d="M296.986 182.472C298.812 183.89 300.52 185.453 302.092 187.146C308.384 193.909 312.998 202.052 315.56 210.92C319.048 222.957 315.27 220.616 313.839 233.423C314.263 233.658 314.702 233.862 315.141 234.081C324.356 238.567 334.54 241.866 344.891 241.792C356.378 241.665 366.589 238.577 373.991 229.808C379.771 222.975 384.075 212.686 386.775 204.254C389.62 195.35 392.214 189.485 398.838 182.472C404.197 177.602 405.027 178.752 412.432 178.148C418.527 176.496 418.903 174.946 420.903 172.082C423.403 167.446 423.369 165.379 423.369 161.656C422.92 155.879 419.203 151.571 419.312 150.123C419.312 150.123 420.586 148.762 420.964 148.303L430.559 141.854C433.505 139.473 434.899 137.111 433.356 134.379C432.462 132.799 431.687 132.794 429.903 132.447C428.247 132.132 425.594 133.933 424.225 134.913L404.403 149.126C404.403 149.126 402.876 144.202 398.199 145.72C393.827 147.148 380.889 152.028 381.425 170.861C381.499 173.731 380.914 174.033 379.413 176.482C379.413 176.482 364.485 199.748 358.398 206.151C354.423 210.333 351.834 212.133 346.778 213.108C341.721 214.082 334.853 210.695 330.738 207.605L298.16 183.355L296.986 182.472Z" fill="white"/>
<path d="M280.405 175.202L302.28 189.542L308.351 213.406L304.583 230.468L317.667 235.597L320.912 236.643L330.729 240.307C323.185 209.512 337.449 209.743 337.449 209.743L303.454 186.868C303.052 187.017 294.423 180.356 294 180.5C278.273 169.71 280.405 175.202 280.405 175.202Z" fill="url(#paint5_linear_2911_101714)"/>
<path d="M264.297 319.86C278.431 317.424 285.712 319.731 295.328 321.801" stroke="black" stroke-width="1.29528"/>
<path d="M254.44 236.796L237.564 265.679" stroke="black" stroke-width="1.29528"/>
<path d="M189.774 300.692C201.204 270.39 212.309 239.361 223.77 209.092C227.37 199.547 235.317 189.029 242.459 181.74C257.341 166.575 279.433 168.698 296.411 181.633L296.539 181.74M296.539 181.74L297 182C296.539 181.74 296.44 181.633 296.539 181.74ZM296.539 181.74C302.832 188.505 305.774 196.168 306.577 208.742C307.991 230.886 291.058 251.196 287 267C283.144 282.017 278.421 307.505 280.686 317.984C280.949 319.201 296.091 322.258 304.677 323.923C350.926 332.87 403.931 342.858 450.487 350.102C470.485 352.585 482.74 354.881 503.567 355.976C522.531 356.973 552.195 355.976 552.195 355.976C554.572 356.274 556.956 355.489 558.688 353.837L576.218 336.624C580.678 332.394 587.611 332.186 592.317 336.143L596.463 340.421C584.093 353.484 575.701 359.835 563.331 372.898C561.531 374.802 559.677 376.743 557.272 377.785C554.866 378.828 552.155 378.855 549.53 378.855H534.187C521.211 378.855 508.228 378.855 495.238 378.855L232.227 378.908C221.453 378.908 210.315 378.839 200.436 374.534C195.67 372.431 191.011 367.287 187.46 363.481" stroke="black" stroke-width="1.29528"/>
<path d="M455.719 349.752L455.59 349.624L382.419 275.959C372.224 265.681 357.123 261.965 343.309 266.334L281.462 293.467" stroke="black" stroke-width="1.29528"/>
<path d="M186.004 308.448L186.261 308.358" stroke="black" stroke-width="1.29528"/>
<path d="M326.326 328.343L353.3 312.277L383.602 338.501" stroke="black" stroke-width="1.29528"/>
<path d="M236.951 184.141V184.125" stroke="black" stroke-width="1.29528"/>
<path d="M173.55 371.866C171.145 371.801 168.738 371.857 166.344 372.034C164.388 372.178 162.347 372.264 160.499 372.926C158.961 373.48 157.359 374.809 157.44 376.434C157.584 379.606 162.154 379.583 164.656 379.583" stroke="black" stroke-width="1.29528"/>
<path d="M172.593 379.567H164.664H164.551H140.277" stroke="black" stroke-width="1.29528"/>
<path d="M303.463 229.921C303.463 229.921 304.157 230.541 304.179 230.579C304.581 230.798 304.347 230.375 304.765 230.579C307.438 231.892 310.177 233.066 312.972 234.097C319.873 236.68 334.144 242.586 341.5 242.5C352.988 242.373 365.45 239.981 372.854 231.213C378.635 224.379 381.274 216.334 386.161 206.07C388.939 200.235 388.52 200.423 392.045 191.76C394.301 186.247 398.576 182.17 401.072 180.192C403.569 178.213 409.743 180.036 414.58 177.651C419.177 175.384 421.619 172.224 422.538 168.985C422.938 167.588 423.46 165.359 423.538 162.985C423.711 157.73 421.635 154.645 419.754 149.351L425.319 144.929L430.788 140.803C434.535 137.541 435.013 136.233 433.464 133.5C432.57 131.92 431.122 131.809 430.252 131.809C428.173 131.808 426.735 133.034 425.366 134.014L405.142 148.135C405.142 148.135 403.615 143.21 398.938 144.729C394.571 146.157 380.615 152.398 381.146 171.232C381.22 174.102 378.197 177.5 375.863 181.263C370.115 190.53 362.958 200.841 359.11 205.439C355.494 209.76 351.882 212.042 346.831 213.015C341.78 213.988 334.85 210.271 330.737 207.188L303.463 186.868L298.159 182.932L297 182L296.578 181.761L296.5 181.5" stroke="black" stroke-width="1.29528"/>
<path d="M401.539 144.661C401.539 144.661 411.964 149.521 393.969 157.179" stroke="black" stroke-width="1.29528"/>
<path d="M421.161 152.688C421.161 152.688 422.756 160.459 412.143 163.407C408.384 164.451 405.385 161.939 407.673 158.819L407.785 158.675" stroke="black" stroke-width="1.29528"/>
<path d="M423.601 163.108C423.601 163.108 418.203 171.83 412.587 171.092C407.629 170.44 411.138 167.323 411.138 167.323" stroke="black" stroke-width="1.29528"/>
<path d="M419.47 149.56L415.952 151.926L412.435 154.292" stroke="black" stroke-width="1.29528"/>
<path d="M191.98 293.263C178.426 289.049 167.19 282.028 163.108 268.269C159.197 255.083 163.393 238.667 175.747 230.935C181.903 227.122 189.173 224.144 192.993 217.615C198.206 208.685 194.691 197.792 196.491 188.13C198.361 178.098 205.122 169.211 213.228 163.254C219.236 158.862 226.222 155.988 233.586 154.88C239.024 154.062 242.795 154.681 246.513 149.869C252.406 142.27 247.644 129.861 247.692 120.711C247.724 113.685 249.385 106.691 253.006 100.665L253.087 100.531C255.96 95.673 260.014 91.616 264.873 88.7347C273.981 83.473 292.742 83.7133 301.93 89.1248C303.242 89.9066 304.482 90.8012 305.638 91.7984C314.129 99.0547 318.19 111.316 317.992 122.235" stroke="black" stroke-width="1.29528"/>
<ellipse rx="7.9478" ry="8.14136" transform="matrix(-0.68714 -0.726525 -0.727822 0.685766 311.478 123.448)" fill="#E8B98B" fill-opacity="0.5"/>
<ellipse rx="7.98526" ry="8.17883" transform="matrix(-0.687141 -0.726524 -0.727823 0.685765 287.754 125.612)" fill="#E8B98B" fill-opacity="0.5"/>
<path d="M300.734 108.889C301.206 112.097 303.167 115.07 306.628 115.963C310.56 116.958 312.644 120.776 313.748 124.615C315.319 130.245 314.912 136.242 312.596 141.609C310.453 146.656 306.622 152.432 300.15 153.373C288.305 155.057 282.417 150.073 282.417 150.073" stroke="black" stroke-width="1.29528"/>
<ellipse rx="2.0358" ry="2.03197" transform="matrix(-1 0 0 1 290.864 124.037)" fill="black"/>
<ellipse rx="2.03578" ry="2.03196" transform="matrix(-1 0 0 1 308.752 122.694)" fill="black"/>
<path d="M300.737 108.889C301.192 110.82 301.123 112.837 300.538 114.733C300.447 115.042 300.328 115.343 300.185 115.632C298.776 118.947 295.492 121.583 289.674 121.257C277.009 120.556 272.492 119.733 273.521 125.561C273.95 127.609 274.565 129.614 275.359 131.55C276.752 135.229 277.721 141.571 276.291 148.459V148.496C274.641 156.554 266.446 169.531 253.256 174.109" stroke="black" stroke-width="1.29528"/>
<path d="M299.62 124.529C299.62 124.529 301.763 132.326 301.544 133.475C301.324 134.625 298.592 133.737 298.592 133.737" stroke="black" stroke-width="1.29528"/>
<path d="M298.145 140.876C294.058 143.08 289.322 141.689 287.468 138.005" stroke="black" stroke-width="1.29528"/>
<ellipse rx="9.26441" ry="9.49023" transform="matrix(-0.687141 -0.726524 -0.727823 0.685765 287.761 125.619)" stroke="black" stroke-width="1.29528"/>
<ellipse rx="9.26442" ry="9.49024" transform="matrix(-0.687142 -0.726523 -0.727824 0.685764 311.48 123.449)" stroke="black" stroke-width="1.29528"/>
<path fill-rule="evenodd" clip-rule="evenodd" d="M319.366 122.722C319.103 118.683 315.734 115.548 311.679 115.567V115.594C311.435 115.593 311.192 115.606 310.95 115.632C306.589 116.039 303.338 119.824 303.6 124.187C303.876 128.214 307.239 131.333 311.282 131.315C311.527 131.316 311.772 131.304 312.016 131.278C316.377 130.87 319.628 127.086 319.366 122.722ZM311.073 116.969C311.277 116.942 311.48 116.942 311.679 116.942C315.018 116.908 317.795 119.497 317.99 122.824C318.205 126.442 315.509 129.58 311.893 129.92C311.69 129.941 311.486 129.952 311.282 129.952C307.946 129.981 305.173 127.394 304.977 124.07C304.761 120.45 307.457 117.311 311.073 116.969Z" fill="white"/>
<path d="M297.134 124.753L302.111 124.299" stroke="black" stroke-width="1.29528"/>
<path fill-rule="evenodd" clip-rule="evenodd" d="M295.841 124.871C295.572 120.733 292.12 117.52 287.966 117.54H287.939C287.688 117.539 287.438 117.552 287.189 117.578C282.728 118.007 279.411 121.888 279.689 126.352C279.958 130.491 283.409 133.704 287.564 133.684C287.814 133.684 288.065 133.672 288.314 133.646C292.785 133.23 296.118 129.345 295.841 124.871ZM287.347 118.947C287.553 118.925 287.761 118.915 287.968 118.915C291.405 118.883 294.264 121.544 294.472 124.968C294.685 128.695 291.911 131.924 288.188 132.283C287.984 132.31 287.77 132.31 287.567 132.31C284.13 132.342 281.271 129.681 281.063 126.257C280.853 122.532 283.626 119.305 287.347 118.947Z" fill="white"/>
<path d="M289 177.854L291.775 165.892L294.786 153" stroke="black" stroke-width="1.29528"/>
<defs>
<linearGradient id="paint0_linear_2911_101714" x1="446.477" y1="-45.226" x2="449.717" y2="140.665" gradientUnits="userSpaceOnUse">
<stop stop-color="#3A394B"/>
<stop offset="1" stop-color="#2F2E3E"/>
</linearGradient>
<linearGradient id="paint1_linear_2911_101714" x1="428.919" y1="-43.447" x2="432.031" y2="135.131" gradientUnits="userSpaceOnUse">
<stop stop-color="#3A394B"/>
<stop offset="1" stop-color="#2F2E3E"/>
</linearGradient>
<linearGradient id="paint2_linear_2911_101714" x1="230.664" y1="-1.82452" x2="225.811" y2="122.791" gradientUnits="userSpaceOnUse">
<stop stop-color="#3A394B"/>
<stop offset="1" stop-color="#2F2E3E"/>
</linearGradient>
<linearGradient id="paint3_linear_2911_101714" x1="497.961" y1="326.018" x2="497.582" y2="355.872" gradientUnits="userSpaceOnUse">
<stop stop-color="#3A394B"/>
<stop offset="1" stop-color="#2F2E3E"/>
</linearGradient>
<linearGradient id="paint4_linear_2911_101714" x1="136.425" y1="144.219" x2="133.333" y2="258.165" gradientUnits="userSpaceOnUse">
<stop stop-color="#3A394B"/>
<stop offset="1" stop-color="#2F2E3E"/>
</linearGradient>
<linearGradient id="paint5_linear_2911_101714" x1="251.409" y1="161.621" x2="250.004" y2="213.208" gradientUnits="userSpaceOnUse">
<stop stop-color="#3A394B"/>
<stop offset="1" stop-color="#2F2E3E"/>
</linearGradient>
</defs>
</svg>
