<svg width="24" height="24" viewBox="0 0 24 24" fill="none" xmlns="http://www.w3.org/2000/svg">
<path d="M11.0664 16.3179L14.2484 19.4998L17.4303 16.3179" stroke="white" stroke-width="1.5" stroke-linecap="round" stroke-linejoin="round"/>
<path d="M14.25 12V19.5" stroke="white" stroke-width="1.5" stroke-linecap="round" stroke-linejoin="round"/>
<path d="M8.99978 19.5H6.74978C6.00525 19.4993 5.26939 19.3402 4.59104 19.0333C3.91269 18.7265 3.30737 18.2788 2.81526 17.7201C2.32314 17.1614 1.95548 16.5045 1.73669 15.7928C1.5179 15.0812 1.45297 14.3311 1.54623 13.5924C1.63948 12.8538 1.88877 12.1434 2.27757 11.5084C2.66636 10.8735 3.18576 10.3285 3.80129 9.90963C4.41682 9.49077 5.11439 9.20762 5.84772 9.07897C6.58105 8.95032 7.33336 8.97912 8.05471 9.16345" stroke="white" stroke-width="1.5" stroke-linecap="round" stroke-linejoin="round"/>
<path d="M7.5 11.9998C7.50012 10.8114 7.78261 9.64011 8.3242 8.58236C8.86578 7.5246 9.65097 6.61068 10.615 5.91591C11.5791 5.22113 12.6945 4.76538 13.8692 4.58622C15.044 4.40706 16.2445 4.50961 17.3719 4.88542C18.4992 5.26123 19.5211 5.89955 20.3534 6.74778C21.1857 7.596 21.8045 8.62985 22.1588 9.76414C22.5132 10.8984 22.5929 12.1007 22.3915 13.2718C22.19 14.443 21.7132 15.5495 21.0002 16.5002" stroke="white" stroke-width="1.5" stroke-linecap="round" stroke-linejoin="round"/>
</svg>
