<svg width="23" height="23" viewBox="0 0 23 23" fill="none" xmlns="http://www.w3.org/2000/svg">
<path d="M11.4548 6.65576V11.5" stroke="#828282" stroke-width="1.5" stroke-linecap="round" stroke-linejoin="round"/>
<path d="M15.65 13.9221L11.4548 11.5" stroke="#828282" stroke-width="1.5" stroke-linecap="round" stroke-linejoin="round"/>
<path d="M17.1212 8.64622H21.1581V4.60938" stroke="#828282" stroke-width="1.5" stroke-linecap="round" stroke-linejoin="round"/>
<path d="M17.7346 17.7801C16.4926 19.0221 14.9102 19.8679 13.1874 20.2106C11.4646 20.5533 9.67896 20.3774 8.05615 19.7052C6.43335 19.033 5.04632 17.8947 4.07046 16.4343C3.0946 14.9738 2.57373 13.2567 2.57373 11.5002C2.57373 9.74369 3.0946 8.02663 4.07046 6.56615C5.04632 5.10567 6.43335 3.96736 8.05615 3.29517C9.67896 2.62299 11.4646 2.44711 13.1874 2.78979C14.9102 3.13247 16.4926 3.97831 17.7346 5.22035L21.16 8.64572" stroke="#828282" stroke-width="1.5" stroke-linecap="round" stroke-linejoin="round"/>
</svg>
