<svg width="133" height="18" viewBox="0 0 133 18" fill="none" xmlns="http://www.w3.org/2000/svg">
<path d="M0.0255683 17L0.0255683 0.272727L10.1207 0.272727V2.0696L2.05114 2.0696L2.05114 7.72159L9.59801 7.72159V9.51847L2.05114 9.51847L2.05114 15.2031L10.2514 15.2031V17L0.0255683 17ZM19.2786 17H14.1167L14.1167 0.272727L19.5073 0.272727C21.1299 0.272727 22.5184 0.607599 23.6728 1.27734C24.8271 1.94164 25.712 2.89725 26.3272 4.14418C26.9425 5.38565 27.2502 6.87216 27.2502 8.60369C27.2502 10.3461 26.9398 11.8462 26.3191 13.104C25.6983 14.3564 24.7945 15.3202 23.6074 15.9954C22.4204 16.6651 20.9775 17 19.2786 17ZM16.1422 15.2031H19.1479C20.531 15.2031 21.6772 14.9363 22.5865 14.4027C23.4958 13.8691 24.1737 13.1095 24.6202 12.1239C25.0667 11.1384 25.29 9.96496 25.29 8.60369C25.29 7.25331 25.0694 6.09079 24.6284 5.11612C24.1873 4.13601 23.5285 3.38459 22.6518 2.86186C21.7752 2.33369 20.6834 2.0696 19.3766 2.0696L16.1422 2.0696L16.1422 15.2031ZM41.9702 0.272727L43.9958 0.272727V11.348C43.9958 12.4915 43.7262 13.5124 43.1872 14.4109C42.6535 15.3039 41.8994 16.009 40.9247 16.5263C39.9501 17.0381 38.8066 17.294 37.4943 17.294C36.1821 17.294 35.0386 17.0381 34.0639 16.5263C33.0893 16.009 32.3324 15.3039 31.7933 14.4109C31.2597 13.5124 30.9929 12.4915 30.9929 11.348V0.272727L33.0185 0.272727V11.1847C33.0185 12.0014 33.1982 12.7283 33.5575 13.3654C33.9169 13.997 34.4288 14.4953 35.0931 14.8601C35.7628 15.2195 36.5632 15.3991 37.4943 15.3991C38.4254 15.3991 39.2259 15.2195 39.8956 14.8601C40.5654 14.4953 41.0772 13.997 41.4311 13.3654C41.7905 12.7283 41.9702 12.0014 41.9702 11.1847V0.272727ZM61.846 5.5H59.8204C59.7006 4.91738 59.491 4.40554 59.1915 3.96449C58.8975 3.52344 58.5381 3.15317 58.1134 2.85369C57.6941 2.54877 57.2286 2.32008 56.7167 2.16761C56.2049 2.01515 55.6713 1.93892 55.1159 1.93892C54.1031 1.93892 53.1856 2.19484 52.3634 2.70668C51.5466 3.21851 50.8959 3.97266 50.4113 4.96911C49.9322 5.96555 49.6926 7.18797 49.6926 8.63636C49.6926 10.0848 49.9322 11.3072 50.4113 12.3036C50.8959 13.3001 51.5466 14.0542 52.3634 14.5661C53.1856 15.0779 54.1031 15.3338 55.1159 15.3338C55.6713 15.3338 56.2049 15.2576 56.7167 15.1051C57.2286 14.9527 57.6941 14.7267 58.1134 14.4272C58.5381 14.1223 58.8975 13.7493 59.1915 13.3082C59.491 12.8617 59.7006 12.3499 59.8204 11.7727H61.846C61.6935 12.6276 61.4158 13.3926 61.0129 14.0678C60.61 14.743 60.109 15.3175 59.5101 15.7912C58.9111 16.2595 58.2386 16.6161 57.4927 16.8612C56.7521 17.1062 55.9599 17.2287 55.1159 17.2287C53.6893 17.2287 52.4206 16.8802 51.3098 16.1832C50.199 15.4863 49.325 14.4953 48.688 13.2102C48.0509 11.9252 47.7324 10.4006 47.7324 8.63636C47.7324 6.87216 48.0509 5.34754 48.688 4.0625C49.325 2.77746 50.199 1.78646 51.3098 1.08949C52.4206 0.392518 53.6893 0.0440335 55.1159 0.0440335C55.9599 0.0440335 56.7521 0.166548 57.4927 0.411576C58.2386 0.656605 58.9111 1.01598 59.5101 1.4897C60.109 1.95798 60.61 2.52971 61.0129 3.2049C61.4158 3.87464 61.6935 4.63968 61.846 5.5ZM66.1502 17H64.0267L70.1687 0.272727L72.2596 0.272727L78.4017 17H76.2781L71.2795 2.91903H71.1488L66.1502 17ZM66.9343 10.4659L75.494 10.4659V12.2628L66.9343 12.2628V10.4659ZM78.4833 2.0696V0.272727L91.0287 0.272727V2.0696L85.7688 2.0696V17H83.7432V2.0696L78.4833 2.0696ZM96.5254 0.272727V17H94.4999V0.272727L96.5254 0.272727ZM115.045 8.63636C115.045 10.4006 114.727 11.9252 114.09 13.2102C113.453 14.4953 112.579 15.4863 111.468 16.1832C110.357 16.8802 109.089 17.2287 107.662 17.2287C106.235 17.2287 104.967 16.8802 103.856 16.1832C102.745 15.4863 101.871 14.4953 101.234 13.2102C100.597 11.9252 100.278 10.4006 100.278 8.63636C100.278 6.87216 100.597 5.34754 101.234 4.0625C101.871 2.77746 102.745 1.78646 103.856 1.08949C104.967 0.392518 106.235 0.0440335 107.662 0.0440335C109.089 0.0440335 110.357 0.392518 111.468 1.08949C112.579 1.78646 113.453 2.77746 114.09 4.0625C114.727 5.34754 115.045 6.87216 115.045 8.63636ZM113.085 8.63636C113.085 7.18797 112.843 5.96555 112.358 4.96911C111.879 3.97266 111.228 3.21851 110.406 2.70668C109.589 2.19484 108.675 1.93892 107.662 1.93892C106.649 1.93892 105.732 2.19484 104.909 2.70668C104.093 3.21851 103.442 3.97266 102.957 4.96911C102.478 5.96555 102.239 7.18797 102.239 8.63636C102.239 10.0848 102.478 11.3072 102.957 12.3036C103.442 13.3001 104.093 14.0542 104.909 14.5661C105.732 15.0779 106.649 15.3338 107.662 15.3338C108.675 15.3338 109.589 15.0779 110.406 14.5661C111.228 14.0542 111.879 13.3001 112.358 12.3036C112.843 11.3072 113.085 10.0848 113.085 8.63636ZM132.061 0.272727V17H130.1L120.985 3.86648H120.822V17L118.796 17V0.272727H120.757L129.904 13.4389H130.068V0.272727L132.061 0.272727Z" fill="#ADADAD"/>
</svg>
