<svg width="25" height="209" viewBox="0 0 25 209" fill="none" xmlns="http://www.w3.org/2000/svg">
<path d="M24 208.182L0.727272 208.182L0.727271 194.136L3.22727 194.136L3.22727 205.364L11.0909 205.364L11.0909 194.864L13.5909 194.864L13.5909 205.364L21.5 205.364L21.5 193.955L24 193.955L24 208.182ZM24 178.355L24 185.537L0.727271 185.537L0.727271 178.037C0.72727 175.779 1.19318 173.847 2.125 172.241C3.04924 170.635 4.37878 169.404 6.11363 168.548C7.84091 167.692 9.90909 167.264 12.3182 167.264C14.7424 167.264 16.8295 167.696 18.5795 168.56C20.322 169.423 21.6629 170.681 22.6023 172.332C23.5341 173.984 24 175.991 24 178.355ZM21.5 182.719L21.5 178.537C21.5 176.613 21.1288 175.018 20.3864 173.753C19.6439 172.488 18.5871 171.544 17.2159 170.923C15.8447 170.302 14.2121 169.991 12.3182 169.991C10.4394 169.991 8.82197 170.298 7.46591 170.912C6.10227 171.525 5.05682 172.442 4.32954 173.662C3.59469 174.882 3.22727 176.4 3.22727 178.219L3.22727 182.719L21.5 182.719ZM0.727269 143.744L0.727269 140.926L16.1364 140.926C17.7273 140.926 19.1477 141.301 20.3977 142.051C21.6401 142.793 22.6212 143.843 23.3409 145.199C24.053 146.555 24.4091 148.146 24.4091 149.971C24.4091 151.797 24.053 153.388 23.3409 154.744C22.6212 156.1 21.6401 157.153 20.3977 157.903C19.1477 158.646 17.7273 159.017 16.1364 159.017L0.72727 159.017L0.72727 156.199L15.9091 156.199C17.0455 156.199 18.0568 155.949 18.9432 155.449C19.822 154.949 20.5151 154.237 21.0227 153.312C21.5227 152.38 21.7727 151.267 21.7727 149.971C21.7727 148.676 21.5227 147.562 21.0227 146.63C20.5151 145.699 19.822 144.987 18.9432 144.494C18.0568 143.994 17.0455 143.744 15.9091 143.744L0.727269 143.744ZM8 113.051L8 115.869C7.18939 116.036 6.47727 116.327 5.86363 116.744C5.25 117.153 4.73484 117.653 4.31818 118.244C3.89394 118.827 3.57575 119.475 3.36363 120.187C3.15151 120.899 3.04545 121.642 3.04545 122.414C3.04545 123.824 3.40151 125.1 4.11363 126.244C4.82575 127.38 5.875 128.286 7.26136 128.96C8.64772 129.627 10.3485 129.96 12.3636 129.96C14.3788 129.96 16.0795 129.627 17.4659 128.96C18.8523 128.286 19.9015 127.38 20.6136 126.244C21.3258 125.1 21.6818 123.824 21.6818 122.414C21.6818 121.642 21.5758 120.899 21.3636 120.187C21.1515 119.475 20.8371 118.827 20.4205 118.244C19.9962 117.653 19.4773 117.153 18.8636 116.744C18.2424 116.327 17.5303 116.036 16.7273 115.869L16.7273 113.051C17.9167 113.263 18.9811 113.649 19.9205 114.21C20.8598 114.77 21.6591 115.467 22.3182 116.301C22.9697 117.134 23.4659 118.07 23.8068 119.108C24.1477 120.138 24.3182 121.24 24.3182 122.414C24.3182 124.399 23.8333 126.164 22.8636 127.71C21.8939 129.255 20.5151 130.471 18.7273 131.358C16.9394 132.244 14.8182 132.687 12.3636 132.687C9.90909 132.687 7.78788 132.244 6 131.358C4.21212 130.471 2.83333 129.255 1.86363 127.71C0.893935 126.164 0.409086 124.399 0.409086 122.414C0.409086 121.24 0.579541 120.138 0.92045 119.108C1.26136 118.07 1.76136 117.134 2.42045 116.301C3.07196 115.467 3.86742 114.77 4.80681 114.21C5.73863 113.649 6.80303 113.263 8 113.051ZM24 104.022L24 106.977L0.727267 98.4314L0.727267 95.5223L24 86.9768L24 89.9314L4.40909 96.8859L4.40909 97.0677L24 104.022ZM14.9091 102.931L14.9091 91.0223L17.4091 91.0223L17.4091 102.931L14.9091 102.931ZM3.22727 83.8233L0.727266 83.8233L0.727266 66.3688L3.22727 66.3688L3.22727 73.6869L24 73.6869L24 76.5051L3.22727 76.5051L3.22727 83.8233ZM0.727265 55.6811L24 55.6811L24 58.4993L0.727265 58.4993L0.727265 55.6811ZM12.3636 26.8742C14.8182 26.8742 16.9394 27.3174 18.7273 28.2037C20.5151 29.0901 21.8939 30.306 22.8636 31.8515C23.8333 33.3969 24.3182 35.1621 24.3182 37.1469C24.3182 39.1318 23.8333 40.8969 22.8636 42.4424C21.8939 43.9878 20.5151 45.2037 18.7273 46.0901C16.9394 46.9765 14.8182 47.4197 12.3636 47.4197C9.90908 47.4197 7.78787 46.9765 5.99999 46.0901C4.21211 45.2038 2.83333 43.9878 1.86363 42.4424C0.893931 40.8969 0.409083 39.1318 0.409082 37.1469C0.409082 35.1621 0.893931 33.3969 1.86363 31.8515C2.83333 30.306 4.21211 29.0901 5.99999 28.2038C7.78787 27.3174 9.90908 26.8742 12.3636 26.8742ZM12.3636 29.6015C10.3485 29.6015 8.64772 29.9386 7.26136 30.6128C5.87499 31.2795 4.82575 32.1848 4.11363 33.3288C3.40151 34.4651 3.04545 35.7378 3.04545 37.1469C3.04545 38.556 3.40151 39.8325 4.11363 40.9765C4.82575 42.1128 5.87499 43.0181 7.26136 43.6924C8.64772 44.3591 10.3485 44.6924 12.3636 44.6924C14.3788 44.6924 16.0795 44.3591 17.4659 43.6924C18.8523 43.0181 19.9015 42.1128 20.6136 40.9765C21.3257 39.8325 21.6818 38.556 21.6818 37.1469C21.6818 35.7378 21.3257 34.4651 20.6136 33.3287C19.9015 32.1848 18.8523 31.2795 17.4659 30.6128C16.0795 29.9386 14.3788 29.6015 12.3636 29.6015ZM0.727263 0.161018L24 0.161017L24 2.88829L5.72726 15.5701L5.72726 15.7974L24 15.7974L24 18.6156L0.727264 18.6156L0.727264 15.8883L19.0454 3.16102L19.0454 2.93375L0.727263 2.93375L0.727263 0.161018Z" fill="#ADADAD"/>
</svg>
