<svg width="441" height="292" viewBox="0 0 441 292" fill="none" xmlns="http://www.w3.org/2000/svg">
<path d="M418.217 293.699H282.654H292.046L377.785 292.707C393.635 291.33 404.804 275.805 398.783 261.106C397.742 258.566 398.83 257.859 397.542 255.41C384.063 230.065 360.694 209.418 334.212 197.424C334.868 197.301 335.529 197.211 336.203 197.12C331.272 194.654 326.193 192.493 320.995 190.651C318.238 189.669 315.448 188.781 312.663 188.003C298.971 184.149 280.468 185.91 274.641 201.05C269.741 213.761 276.248 229.115 288.486 234.683L310.467 243.074C310.282 242.799 310.116 242.524 309.945 242.234L329.06 249.529C329.837 250.073 330.194 251.041 329.956 251.958C329.718 252.874 328.934 253.547 327.991 253.644L281.566 258.709C274.874 259.383 266.495 262.178 261.562 266.778C257.964 270.1 254.932 274.623 254.96 280.347C251.926 280.576 248.91 280.999 245.93 281.615C241.382 282.592 236.753 284.277 236.425 287.044C235.778 292.598 243.682 293.727 248.663 293.727L217.143 293.604C220.527 293.604 220.945 293.575 223.188 291.345C225.432 289.114 227.941 287.396 227.941 284.016L228.217 273.185C228.217 270.954 228.749 269.151 226.515 269.151H206.554C208.214 269.196 209.747 268.268 210.475 266.778C210.49 266.76 210.5 266.739 210.503 266.716C211.501 264.865 211.729 262.202 211.544 259.682L211.777 258.856L212.376 256.654L225.056 249.202C225.151 249.147 225.243 249.087 225.332 249.022C231.948 244.982 232.775 237.763 230.507 231.308C230.46 231.185 230.431 231.076 230.384 230.971C230.279 230.696 230.184 230.435 230.065 230.174C229.46 228.702 228.71 227.293 227.827 225.969C224.552 220.862 219.8 216.699 215.284 215.612C214.018 215.326 212.724 215.183 211.425 215.185C227.138 200.471 245.241 187.395 266.623 183.048C285.332 179.188 304.68 179.691 323.162 184.519C344.758 190.257 364.206 202.171 379.629 218.261C400.389 239.89 410.099 265.159 418.217 293.699Z" fill="#353642"/>
<path d="M207.004 228.67C206.258 230.135 205.039 231.306 203.544 231.993C202.267 232.634 200.914 233.112 199.518 233.416C197.218 233.801 196.405 232.349 194.937 230.925C194.099 230.117 193.136 229.45 192.085 228.95C190.809 228.325 189.32 228.302 188.026 228.888C187.142 229.282 186.572 230.158 186.572 231.124C186.667 232.866 189.072 234.242 190.431 234.964C192.206 235.801 194.05 236.481 195.944 236.995C200.588 238.419 192.855 241.386 191.229 241.571C187.753 242.041 184.224 241.957 180.773 241.324C181.764 243.534 182.524 245.84 183.04 248.206C183.578 250.47 184.205 253.194 183.763 255.473C183.226 258.15 181.415 260.138 179.181 261.486L170.498 225.31C176.971 222.231 184.436 221.986 191.096 224.636C193.34 225.462 195.86 224.906 197.546 223.212L198.435 222.353C199.672 222.084 200.962 222.186 202.142 222.647C204.247 223.44 208.144 225.988 207.004 228.67Z" fill="#E8B98B"/>
<path fill-rule="evenodd" clip-rule="evenodd" d="M215.922 269.123H180.068C179.317 276.118 173.406 281.422 166.361 281.421H45.8223C45.8379 288.198 51.3357 293.689 58.1223 293.704H215.913C222.699 293.681 228.196 288.197 228.227 281.421V273.162C228.227 270.931 226.416 269.123 224.183 269.123L215.922 269.123Z" stroke="black" stroke-width="1.65186"/>
<path fill-rule="evenodd" clip-rule="evenodd" d="M160.554 188.825C161.613 190.282 162.374 191.934 162.792 193.685L179.778 264.405C180.154 265.941 180.252 267.53 180.068 269.1C179.318 276.095 173.406 281.399 166.361 281.397H43.5842C37.2034 281.393 31.6565 277.023 30.1672 270.827L13.2 200.107C12.207 196.002 13.1557 191.67 15.7735 188.353C18.3913 185.037 22.3885 183.104 26.6169 183.11H149.375C153.458 183.104 157.331 184.916 159.941 188.051L160.554 188.825Z" stroke="black" stroke-width="1.65186"/>
<ellipse rx="13.2727" ry="14.9005" transform="matrix(0.953833 -0.300337 0.301074 0.953601 96.5036 237.434)" fill="#F3DCC5"/>
<path d="M336.876 196.709C326.044 198.517 317.717 203.463 312.128 213.701C307.124 222.861 306.539 234.039 311.876 243.128L290.085 234.784C277.466 229.012 273.027 216.188 278.084 203.017C284.097 187.325 303.174 185.503 317.294 189.499C320.17 190.306 323.04 191.227 325.883 192.243C329.596 193.572 333.26 195.06 336.876 196.709Z" fill="#353642"/>
<path d="M83.1025 183.119C91.7477 171.963 103.669 163.785 117.199 159.729C115.397 154.895 113.967 149.93 112.921 144.878C101.695 90.3523 136.804 37.0463 191.389 25.8023C245.974 14.5582 299.371 49.6051 310.625 104.117C311.883 110.225 312.583 116.435 312.716 122.67C316.616 121.288 320.607 120.178 324.66 119.348C372.363 109.499 419.035 140.151 428.883 187.799C434.518 214.963 426.991 243.191 408.574 263.959" stroke="#9F9F9F" stroke-width="1.65186"/>
<path d="M202.086 269.127H205.456C207.42 269.174 209.292 268.295 210.508 266.754C210.523 266.736 210.535 266.715 210.541 266.692C211.75 265.042 212.3 263.001 212.086 260.968L211.81 258.827L211.582 257.1L212.409 256.625L225.365 248.993L226.239 248.49C232.565 244.774 233.021 237.844 230.541 231.28C230.498 231.161 230.464 231.052 230.422 230.943C230.312 230.667 230.203 230.411 230.099 230.15C229.464 228.692 228.715 227.286 227.86 225.945C224.585 220.833 219.837 216.675 215.318 215.588C214.052 215.3 212.757 215.157 211.458 215.161C208.749 215.161 205.755 215.679 204.182 217.24C220.988 200.728 240.621 185.231 264.237 180.423C282.954 176.57 302.309 177.083 320.795 181.923C342.391 187.661 361.858 199.589 377.281 215.679C378.094 216.523 378.887 217.378 379.657 218.251C398.987 239.467 411.315 266.265 419.105 293.689" stroke="black" stroke-width="1.65186"/>
<path fill-rule="evenodd" clip-rule="evenodd" d="M288.607 234.56C276.364 228.993 269.862 213.638 274.758 200.932C280.594 185.787 299.096 184.026 312.779 187.88C315.574 188.662 318.351 189.544 321.111 190.528C351.875 201.445 379.831 224.109 395.097 252.824C396.385 255.254 397.411 257.751 398.452 260.295C401.298 267.226 400.672 275.096 396.768 281.492C392.863 287.888 386.144 292.049 378.671 292.698L292.937 293.699H266.55C261.77 293.7 257.52 290.662 255.98 286.143C253.085 277.6 256.826 271.154 261.555 266.764C266.488 262.188 272.923 259.573 279.615 258.899L327.779 254.039C328.723 253.942 329.509 253.27 329.749 252.353C329.989 251.435 329.634 250.465 328.858 249.919L288.607 234.56Z" stroke="black" stroke-width="1.65186"/>
<path d="M274.253 268.23C269.857 270.756 265.337 274.709 263.825 279.717C262.086 285.483 266.169 290.723 270.807 293.723" stroke="black" stroke-width="1.65186"/>
<path d="M278.962 274.847C274.861 278.743 271.306 283.684 273.677 289.56C274.355 291.173 275.412 292.599 276.757 293.718" stroke="black" stroke-width="1.65186"/>
<path d="M287.006 282.47C287.006 282.47 277.563 289.48 283.561 293.685" stroke="black" stroke-width="1.65186"/>
<path d="M262.772 293.03L262.939 293.704H247.701C242.72 293.704 235.82 292.94 236.471 287.387C237.122 281.833 254.959 280.319 254.959 280.319" stroke="black" stroke-width="1.65186"/>
<path d="M235.441 118.408L203.014 123.254L208.665 127.232L219.235 135.685C220.889 136.848 220.475 139.591 221.392 141.257C222.104 146.396 219.692 151.466 215.253 154.161C210.814 156.856 205.196 156.661 200.956 153.664L175.457 135.751C172.643 133.81 170.383 131.17 168.903 128.091C166.817 117.72 173.219 106.186 185.538 104.359L220.984 99.0431L215.756 94.9898L199.658 82.4785C198.279 81.4123 197.129 80.0808 196.274 78.5627C195.542 73.3056 198.077 68.1306 202.683 65.4818C207.289 62.8331 213.043 63.2406 217.229 66.5118L245.945 88.8196C248.293 90.6205 250.192 92.9405 251.491 95.5973C253.45 105.622 247.185 116.647 235.441 118.408Z" fill="#E8B98B"/>
<path d="M211.581 257.095C211.581 257.095 210.593 248.409 207.242 245.348" stroke="black" stroke-width="1.65186"/>
<path d="M170.166 225.917C176.709 222.707 184.307 222.414 191.078 225.11C193.325 225.938 195.848 225.381 197.537 223.686L204.158 217.212" stroke="black" stroke-width="1.65186"/>
<path d="M191.21 262.815L196.737 265.297C196.986 265.4 197.267 265.392 197.509 265.276C197.752 265.16 197.935 264.947 198.011 264.69L198.881 262.725" stroke="black" stroke-width="1.65186"/>
<path d="M192.117 251.852C193.061 254.017 192.713 256.527 191.214 258.354" stroke="black" stroke-width="1.10124"/>
<path d="M204.66 269.124C205.53 267.837 205.525 264.729 205.302 263.48C205.159 262.688 203.824 262.403 203.681 263.2C203.291 265.426 200.777 268.848 198.453 269.124" stroke="black" stroke-width="1.65186"/>
<ellipse cx="193.498" cy="253.645" rx="7.09583" ry="7.08629" stroke="black" stroke-width="1.65186"/>
<path d="M191.124 260.318L189.859 263.869C188.087 263.237 186.135 263.336 184.435 264.143C182.735 264.949 181.426 266.398 180.796 268.169" stroke="black" stroke-width="1.65186"/>
<ellipse opacity="0.53" cx="193.494" cy="253.645" rx="6.00746" ry="5.99937" fill="white"/>
<path d="M179.158 261.951C181.392 260.603 183.198 258.629 183.735 255.942C184.182 253.659 183.554 250.94 183.017 248.676C182.501 246.31 181.742 244.003 180.75 241.793C184.201 242.425 187.73 242.507 191.206 242.035C192.827 241.855 200.565 238.903 195.921 237.465C194.028 236.951 192.184 236.27 190.413 235.429C189.044 234.721 186.644 233.345 186.558 231.598C186.546 230.634 187.106 229.754 187.984 229.353C189.28 228.77 190.769 228.796 192.043 229.424C193.097 229.919 194.061 230.587 194.895 231.399C196.368 232.823 197.171 234.247 199.481 233.881C200.875 233.581 202.225 233.103 203.497 232.457C204.996 231.772 206.218 230.602 206.966 229.135C208.117 226.463 204.21 223.914 202.09 223.15C200.913 222.688 199.625 222.582 198.388 222.846" stroke="black" stroke-width="1.65186"/>
<path fill-rule="evenodd" clip-rule="evenodd" d="M235.434 118.408L203.006 123.254L208.657 127.232L215.967 132.358C219.873 134.999 222.046 139.54 221.652 144.234C221.258 148.928 218.358 153.044 214.066 154.999C209.775 156.954 204.761 156.444 200.953 153.664L175.455 135.751C172.64 133.811 170.381 131.17 168.901 128.091C163.478 116.847 169.818 101.872 183.986 99.76L212.108 95.5548L215.748 94.99L199.651 82.4787C195.974 79.6206 194.103 75.0206 194.743 70.4114C195.383 65.8023 198.437 61.8843 202.754 60.1333C207.071 58.3822 211.995 59.0642 215.672 61.9223L244.388 84.2301C248.064 87.0218 250.583 91.0661 251.465 95.5928C253.442 105.622 247.178 116.647 235.434 118.408V118.408Z" stroke="black" stroke-width="1.65186"/>
<path d="M164.259 173.46L163.945 165.188L160.271 168.947C158.973 170.271 156.847 170.296 155.518 169.004C154.192 167.708 154.167 165.585 155.461 164.257L162.044 157.546C163.43 156.129 165.529 155.673 167.38 156.386C169.23 157.1 170.478 158.846 170.551 160.826L170.86 169.265L173.569 166.213C174.161 165.544 174.994 165.138 175.886 165.085C176.778 165.031 177.655 165.335 178.322 165.928C178.991 166.519 179.398 167.351 179.452 168.241C179.506 169.131 179.204 170.007 178.612 170.674L173.274 176.688C171.881 178.276 169.657 178.852 167.666 178.139C165.676 177.426 164.324 175.571 164.259 173.46Z" fill="#F3DCC5"/>
<path d="M191.799 188.382L195.71 187.508L193.595 186.085C192.849 185.582 192.65 184.573 193.149 183.825C193.651 183.08 194.664 182.882 195.411 183.384L199.185 185.904C199.984 186.437 200.388 187.395 200.211 188.339C200.034 189.282 199.31 190.03 198.372 190.238L194.365 191.139L196.062 192.16C196.432 192.382 196.698 192.743 196.801 193.161C196.904 193.58 196.837 194.022 196.613 194.391C196.149 195.159 195.15 195.407 194.38 194.946L191.053 192.938C190.177 192.416 189.71 191.412 189.874 190.407C190.039 189.401 190.802 188.598 191.799 188.382Z" fill="#F3DCC5"/>
<path d="M181.901 211.199L182.219 208.588L180.874 209.585C180.647 209.754 180.361 209.827 180.081 209.786C179.8 209.745 179.547 209.594 179.377 209.367C179.027 208.893 179.124 208.225 179.596 207.871L181.972 206.092C182.478 205.715 183.16 205.676 183.706 205.992C184.252 206.308 184.557 206.918 184.482 207.544L184.159 210.211L185.161 209.386C185.381 209.205 185.663 209.119 185.945 209.147C186.228 209.175 186.488 209.313 186.668 209.533C186.849 209.752 186.934 210.033 186.907 210.315C186.879 210.598 186.74 210.857 186.521 211.037L184.544 212.661C184.026 213.072 183.312 213.131 182.733 212.811C182.155 212.491 181.826 211.855 181.901 211.199Z" fill="#F3DCC5"/>
<path d="M336.876 197.036L336.676 197.373C336.525 197.278 336.366 197.195 336.201 197.126L336.876 197.036Z" fill="#353642"/>
</svg>
