<svg width="24" height="24" viewBox="0 0 24 24" fill="none" xmlns="http://www.w3.org/2000/svg">
<path d="M8.81641 15.1813L15.1804 8.81738" stroke="white" stroke-width="1.5" stroke-linecap="round" stroke-linejoin="round"/>
<path d="M13.5903 16.7726L10.9386 19.4243C10.0947 20.268 8.95016 20.7419 7.75682 20.7418C6.56348 20.7417 5.41904 20.2676 4.57522 19.4238C3.7314 18.5799 3.2573 17.4355 3.2572 16.2422C3.2571 15.0488 3.731 13.9043 4.57468 13.0603L7.22633 10.4087" stroke="white" stroke-width="1.5" stroke-linecap="round" stroke-linejoin="round"/>
<path d="M16.7741 13.5904L19.4258 10.9388C20.2694 10.0948 20.7433 8.95028 20.7432 7.75694C20.7431 6.5636 20.269 5.41916 19.4252 4.57534C18.5814 3.73152 17.437 3.25743 16.2436 3.25732C15.0503 3.25722 13.9058 3.73112 13.0618 4.5748L10.4102 7.22645" stroke="white" stroke-width="1.5" stroke-linecap="round" stroke-linejoin="round"/>
</svg>
