<svg width="39" height="39" viewBox="0 0 39 39" fill="none" xmlns="http://www.w3.org/2000/svg">
<circle cx="19.5" cy="19.5" r="19.5" fill="white"/>
<path d="M25.952 15.5098H13.0476C12.6912 15.5098 12.4023 15.7986 12.4023 16.155V25.1881C12.4023 25.5444 12.6912 25.8333 13.0476 25.8333H25.952C26.3083 25.8333 26.5972 25.5444 26.5972 25.1881V16.155C26.5972 15.7986 26.3083 15.5098 25.952 15.5098Z" stroke="#E8B98B" stroke-width="1.5" stroke-linecap="round" stroke-linejoin="round"/>
<path d="M16.5977 15.5091V12.6056C16.5977 11.8356 16.9036 11.0971 17.4481 10.5526C17.9926 10.0081 18.7311 9.70215 19.5011 9.70215C20.2712 9.70215 21.0097 10.0081 21.5542 10.5526C22.0987 11.0971 22.4046 11.8356 22.4046 12.6056V15.5091" stroke="#E8B98B" stroke-width="1.5" stroke-linecap="round" stroke-linejoin="round"/>
<path d="M19.4991 21.6388C20.0336 21.6388 20.4669 21.2055 20.4669 20.671C20.4669 20.1364 20.0336 19.7031 19.4991 19.7031C18.9646 19.7031 18.5312 20.1364 18.5312 20.671C18.5312 21.2055 18.9646 21.6388 19.4991 21.6388Z" fill="#E8B98B"/>
</svg>
