<svg width="24" height="25" viewBox="0 0 24 25" fill="none" xmlns="http://www.w3.org/2000/svg">
<path d="M19.1875 8.75H4.8125C4.41555 8.75 4.09375 9.08579 4.09375 9.5V20C4.09375 20.4142 4.41555 20.75 4.8125 20.75H19.1875C19.5845 20.75 19.9062 20.4142 19.9062 20V9.5C19.9062 9.08579 19.5845 8.75 19.1875 8.75Z" stroke="#828282" stroke-width="1.5" stroke-linecap="round" stroke-linejoin="round"/>
<path d="M8.76562 8.75V5.375C8.76563 4.47989 9.10639 3.62145 9.71295 2.98851C10.3195 2.35558 11.1422 2 12 2C12.8578 2 13.6805 2.35558 14.287 2.98851C14.8936 3.62145 15.2344 4.47989 15.2344 5.375V8.75" stroke="#828282" stroke-width="1.5" stroke-linecap="round" stroke-linejoin="round"/>
<path d="M12 15.875C12.5954 15.875 13.0781 15.3713 13.0781 14.75C13.0781 14.1287 12.5954 13.625 12 13.625C11.4046 13.625 10.9219 14.1287 10.9219 14.75C10.9219 15.3713 11.4046 15.875 12 15.875Z" fill="#828282"/>
</svg>
