<svg width="21" height="20" viewBox="0 0 21 20" fill="none" xmlns="http://www.w3.org/2000/svg">
<path d="M18.1536 8.93331L6.90601 2.05953C6.71655 1.94368 6.49966 1.8804 6.27763 1.8762C6.0556 1.872 5.83647 1.92703 5.64277 2.03563C5.44907 2.14423 5.2878 2.30247 5.17555 2.49408C5.06331 2.6857 5.00415 2.90375 5.00415 3.12582V16.8746C5.00433 17.0966 5.06361 17.3145 5.17589 17.506C5.28818 17.6975 5.44942 17.8557 5.64306 17.9643C5.8367 18.0728 6.05575 18.1279 6.2777 18.1238C6.49966 18.1197 6.71652 18.0565 6.90601 17.9409L18.1536 11.0671C18.3363 10.9554 18.4872 10.7986 18.592 10.6118C18.6967 10.425 18.7517 10.2144 18.7517 10.0002C18.7517 9.78604 18.6967 9.57546 18.592 9.38864C18.4872 9.20183 18.3363 9.04505 18.1536 8.93331Z" fill="#E8B98B"/>
</svg>
