<svg width="200" height="200" viewBox="0 0 450 531" fill="none" xmlns="http://www.w3.org/2000/svg">
<rect width="293.988" height="281.529" rx="21.2612" transform="matrix(-1 0 0 1 393.581 9.29688)" fill="url(#paint0_linear_2217_80106)"/>
<rect x="2.5" y="-2.5" width="308.136" height="295.813" rx="25.1724" transform="matrix(-1 0 0 1 402.679 5.5)" stroke="white" stroke-width="5"/>
<rect width="282.427" height="270.455" rx="21.2612" transform="matrix(-1 0 0 1 387.801 14.832)" fill="url(#paint1_linear_2217_80106)"/>
<path opacity="0.2" d="M251.207 225.72C251.661 227.226 253.055 228.253 254.631 228.244L260.888 228.153C259.522 226.022 259.481 223.303 260.781 221.132L254.524 221.223C252.582 221.258 251.034 222.851 251.057 224.789C251.061 225.105 251.112 225.419 251.207 225.72Z" fill="#F3DCC5"/>
<path opacity="0.2" d="M251.41 239.65C251.862 241.153 253.256 242.176 254.829 242.158L340.96 240.901C340.003 239.772 339.459 238.352 339.417 236.874C339.376 235.85 339.579 234.831 340.011 233.901L254.732 235.131C252.793 235.169 251.247 236.762 251.271 238.698C251.271 239.02 251.318 239.341 251.41 239.65Z" fill="#F3DCC5"/>
<path opacity="0.2" d="M251.07 253.739C251.522 255.248 252.926 256.271 254.504 256.241L267.11 256.049L278.36 255.894C279.701 253.75 279.701 251.032 278.36 248.889L266.917 249.06L254.402 249.236C252.466 249.268 250.92 250.855 250.941 252.787C250.935 253.109 250.978 253.43 251.07 253.739Z" fill="#F3DCC5"/>
<path d="M260.879 228.152C262.496 230.682 265.611 231.816 268.48 230.921C271.35 230.025 273.262 227.322 273.147 224.323C273.087 222.559 272.327 220.891 271.033 219.688C269.74 218.484 268.02 217.843 266.252 217.907C264.484 217.964 262.811 218.722 261.604 220.014C260.398 221.305 259.757 223.024 259.823 224.789C259.868 225.984 260.233 227.145 260.879 228.152Z" fill="white"/>
<path d="M267.109 256.048C268.755 258.534 271.855 259.627 274.7 258.725C277.546 257.823 279.445 255.144 279.351 252.166C279.306 251.006 278.963 249.877 278.354 248.888C277.114 246.906 274.925 245.717 272.584 245.752C270.243 245.787 268.092 247.041 266.911 249.059C266.273 250.142 265.961 251.386 266.011 252.642C266.058 253.856 266.437 255.034 267.109 256.048Z" fill="white"/>
<path d="M272.047 228.066L358.714 226.82C360.656 226.788 362.204 225.192 362.175 223.253C362.175 222.933 362.128 222.614 362.035 222.307C361.58 220.802 360.181 219.78 358.606 219.799L271.94 221.072C272.597 222.072 272.968 223.234 273.011 224.43C273.046 225.709 272.711 226.971 272.047 228.066Z" fill="#E8B98B"/>
<path opacity="0.2" d="M251.245 239.729C251.697 241.232 253.091 242.255 254.663 242.237L340.794 240.98C339.838 239.851 339.294 238.431 339.251 236.954C339.21 235.929 339.414 234.91 339.846 233.98L254.567 235.21C252.627 235.248 251.082 236.841 251.106 238.777C251.106 239.099 251.153 239.42 251.245 239.729Z" fill="#F3DCC5"/>
<path d="M351.15 240.823L358.913 240.722C360.852 240.695 362.403 239.107 362.379 237.171C362.378 236.845 362.329 236.521 362.235 236.209C361.789 234.705 360.393 233.683 358.822 233.712L351.905 233.824C352.304 234.662 352.53 235.571 352.57 236.497C352.629 238.062 352.126 239.597 351.15 240.823Z" fill="#E8B98B"/>
<path d="M278.182 255.972L358.597 254.806C360.532 254.76 362.073 253.172 362.058 251.24C362.054 250.924 362.003 250.61 361.908 250.309C361.455 248.802 360.061 247.774 358.484 247.785L278.193 248.967C279.533 251.11 279.533 253.829 278.193 255.972H278.182Z" fill="#E8B98B"/>
<path d="M340.786 240.978C342.075 242.518 343.991 243.395 346.001 243.365C348.011 243.335 349.9 242.401 351.142 240.823C352.121 239.592 352.625 238.051 352.562 236.481C352.522 235.554 352.296 234.645 351.897 233.807C350.744 231.443 348.305 229.976 345.672 230.064C343.138 230.141 340.872 231.66 339.843 233.973C339.411 234.903 339.207 235.922 339.248 236.946C339.289 238.425 339.831 239.847 340.786 240.978Z" fill="white"/>
<path opacity="0.72" d="M342.804 236.234C342.95 237.034 343.322 237.776 343.875 238.373C344.142 238.679 344.44 238.957 344.765 239.202C344.936 239.325 345.836 240.063 346.024 239.966C347.229 239.362 348.745 237.827 348.933 236.346C348.962 236.114 348.962 235.878 348.933 235.646C348.791 234.807 348.053 234.201 347.202 234.223C346.662 234.249 346.165 234.523 345.857 234.967C345.375 234.365 344.551 234.156 343.839 234.456C343.128 234.755 342.703 235.49 342.798 236.255L342.804 236.234Z" fill="white"/>
<path d="M362.835 163.823L362.685 184.33C362.608 191.759 356.672 197.804 349.232 198.03L328.874 198.383C325.346 198.428 321.95 197.047 319.457 194.555C316.965 192.062 315.589 188.669 315.641 185.148L315.796 164.647C315.862 157.21 321.801 151.152 329.249 150.926L349.607 150.567C353.138 150.524 356.536 151.908 359.028 154.405C361.52 156.902 362.893 160.299 362.835 163.823Z" fill="white"/>
<path d="M359.71 168.968L359.603 183.813C359.534 190.267 354.377 195.518 347.913 195.716L330.234 196.02C327.167 196.066 324.212 194.869 322.043 192.704C319.874 190.54 318.675 187.59 318.721 184.529V183.524C321.201 178.46 326.033 170.883 331.187 175.412C338.618 181.93 342.02 176.968 346.349 170.573C349.997 165.22 355.494 161.311 359.71 168.968Z" fill="#E8B98B"/>
<ellipse cx="4.87243" cy="4.99726" rx="4.87243" ry="4.99726" transform="matrix(-0.833404 -0.552664 -0.554119 0.832437 336.075 161.297)" fill="#E8B98B"/>
<path d="M351.873 47.1113C347.067 47.1068 342.779 50.1364 341.168 54.6751C339.556 59.2137 340.971 64.2777 344.699 67.3176L318.873 113.752C318.69 113.724 318.505 113.705 318.32 113.697C317.846 113.704 317.375 113.777 316.921 113.915L297.569 89.8258C299.32 87.3789 299.423 84.1138 297.828 81.5614C296.234 79.009 293.259 77.6757 290.298 78.1865C287.337 78.6974 284.978 80.9512 284.327 83.891C283.675 86.8309 284.861 89.8738 287.328 91.5928L273.774 130.262C271.33 130.405 269.326 132.258 268.986 134.689C268.646 137.12 270.065 139.453 272.376 140.265C274.687 141.076 277.248 140.14 278.496 138.028C279.743 135.916 279.331 133.215 277.51 131.573L291.067 92.9043C291.233 92.9043 291.395 92.928 291.561 92.928C292.571 92.9284 293.57 92.7222 294.498 92.3218L313.834 116.407C312.976 117.989 313.015 119.907 313.936 121.453C314.857 122.998 316.524 123.942 318.32 123.935C320.277 123.945 322.067 122.829 322.924 121.065C323.78 119.3 323.552 117.2 322.336 115.662L348.162 69.2431C352.423 70.7219 357.154 69.5316 360.214 66.2107C363.274 62.8899 364.083 58.0683 362.274 53.9271C360.466 49.7859 356.383 47.1106 351.873 47.1113Z" fill="white"/>
<path d="M401.168 239.565C430.582 250.511 446.266 266.158 445.64 294.589C444.973 324.551 401.629 348.377 374.3 361.14C356.513 369.441 337.392 370.966 319.372 375.334C315.834 376.198 312.349 377.15 308.932 378.298C306.81 379 304.728 379.772 302.646 380.654C296.874 383.002 291.441 386.108 286.488 389.889C284.671 391.276 282.929 392.757 281.268 394.327C280.224 395.313 279.186 396.339 278.142 397.401C277.098 398.463 278.142 397.436 278.107 397.453C273.206 402.396 268.352 407.895 263.179 412.89C261.756 414.278 260.3 415.62 258.812 416.916C257.159 418.354 255.454 419.724 253.708 420.977C247.816 425.269 241.314 428.448 233.821 429.382C230.511 429.806 227.182 430.059 223.845 430.142C223.793 430.159 164.56 420.994 164.507 420.977" stroke="white" stroke-opacity="0.1" stroke-width="6.18993"/>
<path d="M92.7928 23.082C92.7928 23.082 84.5153 24.5375 79.1597 26.3027C75.5896 27.479 72.1316 28.9702 68.8246 30.7576C52.5858 39.5465 40.3313 56.062 41.2303 86.0584C41.7116 101.721 40.7949 117.169 37.7097 132.159C36.7004 137.024 35.4534 141.839 33.9686 146.603C30.3319 158.253 25.0824 169.336 18.3734 179.53C-2.99217 211.934 0.24402 245.615 23.9415 276.847C25.182 278.483 26.458 280.101 27.7688 281.685" stroke="white" stroke-opacity="0.1" stroke-width="6.18993"/>
<path d="M293.378 437.35C293.373 439.143 292.257 440.746 290.575 441.374L250.159 456.452C250.159 456.452 248.232 452.88 244.873 446.913L231.736 415.05L214.546 387.09C208.308 419.16 206.017 464.936 201.705 484.949L200.128 512.438L216.782 517.913C218.842 518.41 220.296 520.248 220.304 522.367C220.301 523.781 219.648 525.116 218.532 525.986C217.416 526.857 215.962 527.167 214.588 526.826L175.988 517.049V507.619L175.071 507.439L185.362 355.026L136.072 384.161C131.343 385.634 131.567 385.636 126.46 386.732C125.278 384.808 120.709 390.773 120.031 389.214C107.637 392.461 97.8138 396.291 85.1864 394.122C85.0761 394.122 84.9486 394.069 84.8442 394.046C83.9269 393.872 83.0102 393.669 82.1106 393.466C81.8381 393.415 81.5715 393.362 81.2983 393.287C80.5096 393.107 79.7204 392.875 78.9311 392.661C78.4957 392.533 78.0663 392.428 77.6545 392.301C77.2422 392.173 76.9348 392.069 76.575 391.941C69.7788 389.809 63.5016 386.283 58.1453 381.589C54.0384 378.143 50.5563 374.016 47.8516 369.388C46.6907 367.555 45.6058 365.63 44.5959 363.652C38.468 351.561 38.307 347.396 40.0885 347.286C36.1656 345.904 34.4933 345.441 32.6838 346.019C32.6838 346.019 28.3573 311.891 45.8467 264.819C45.5122 261.907 36.8075 242.537 37.2611 239.641C40.9462 213.231 61.227 186.085 85.4241 175.09C98.3877 169.198 119.527 160.156 112.698 142.155C110.539 136.461 107.475 131.554 106.895 125.645C106.842 125.065 106.773 124.549 106.732 123.975C105.763 110.057 113.87 96.8399 126.996 92.0788C135.684 88.8096 145.361 89.4437 153.549 93.8184C154.947 94.5558 156.2 95.538 157.251 96.7184C161.243 96.8228 166.257 97.5242 168.613 98.6202C172.605 100.488 175.803 103.759 178.193 107.441C182.603 114.305 184.374 122.534 183.178 130.603C182.49 135.068 180.899 139.347 178.501 143.176C177.318 145.095 175.945 146.89 174.404 148.535C173.052 149.95 171.131 152.014 169.28 152.774C169.323 152.808 169.383 152.808 169.425 152.774L163.105 162.841C174.188 160.319 209.58 148.483 231.289 105.574C232.855 102.251 234.468 98.9453 236.163 95.6743C241.177 85.9374 246.55 76.253 253.67 67.8788C255.411 65.8489 257.987 64.0161 260.755 64.898C263.18 65.669 264.817 68.3772 263.129 70.6507L251.476 86.5639L255.196 86.0825C256.017 86.2807 256.708 86.8299 257.086 87.5844C257.464 88.3389 257.49 89.2219 257.157 89.9971L254.802 95.5876L255.915 94.2768C257.508 92.3974 260.301 92.1077 262.245 93.6202C264.19 95.1327 264.595 97.9094 263.163 99.9139L257.024 107.842C256.201 108.888 255.157 109.74 253.966 110.335L241.815 116.192C245.409 120.608 248.75 125.221 251.824 130.012C245.153 142.792 237.741 147.331 228.866 158.695C213.907 177.954 187.008 199.481 160.711 208.482C160.13 224.4 156.906 247.784 152.537 263.215L197.046 265.085L207.637 236.156C208.57 233.598 211.005 231.898 213.729 231.899H253.391C254.081 231.901 254.765 232.035 255.405 232.293C257.393 233.114 258.691 235.05 258.695 237.2C258.688 237.844 258.566 238.483 258.335 239.084L255.706 245.916H255.62H244.438L239.888 258.941L241.182 255.653H246.776C248.555 255.653 250.217 256.542 251.203 258.022C252.188 259.503 252.367 261.378 251.679 263.018L246.915 274.408C243.996 281.378 237.722 286.378 230.273 287.671L229.768 287.758L228.834 290.518L229.315 289.567C229.159 289.944 228.979 290.355 228.816 290.808L240.59 291.208C240.59 291.208 238.577 298.927 233.453 299.414C233.039 299.446 232.622 299.433 232.211 299.373H206.215C207.671 300.991 204.468 304.811 206.215 307.114C213.758 307.003 205.5 304.983 208.216 310.248C208.683 310.772 207.833 318.214 208.216 318.802C209.255 320.542 216.497 322.407 216.247 328.27C216.321 334.316 227.26 324.792 226.18 330.742C227.495 333.208 235.761 347.53 236.975 350.024C239.617 354.958 241.999 360.026 244.113 365.207C244.186 365.344 244.246 365.487 244.292 365.636C250.627 380.153 256.184 394.997 260.941 410.105L261.208 411.038C264.805 421.64 267.736 431.272 268.85 437.135L287.709 433.272C289.021 432.838 290.463 433.058 291.585 433.865C292.707 434.672 293.374 435.968 293.378 437.35Z" fill="white"/>
<path d="M228.05 291.735H240.592C240.077 293.149 239.422 294.509 238.637 295.793C237.088 298.216 234.698 300.751 231.537 300.321H193.49C192.011 300.331 190.571 299.85 189.395 298.953C189.134 297.748 189.208 296.495 189.61 295.33C204.975 292.975 220.719 290.442 227.76 288.986L229.089 288.754L228.05 291.735Z" fill="#E8B98B"/>
<path d="M257.918 238.206C257.911 238.851 257.79 239.489 257.558 240.091L254.937 246.915H243.753L239.159 260.019L237.488 264.205H201.036L209.483 241.21C210.421 238.654 212.855 236.955 215.579 236.954H255.221C255.911 236.955 256.594 237.089 257.234 237.348C257.456 237.439 257.673 237.541 257.883 237.656C257.9 237.83 257.918 238.027 257.918 238.206Z" fill="#E8B98B"/>
<path d="M257.924 238.2C257.916 238.845 257.795 239.483 257.564 240.084L254.936 246.909H243.759L247.645 236.368C248.531 233.955 251.022 232.526 253.553 232.977C256.084 233.429 257.926 235.63 257.924 238.2Z" fill="#E8B98B"/>
<path d="M240.586 291.735C240.586 291.735 236.989 302.298 230.458 300.026C226.398 298.628 227.006 294.587 228.068 291.711L240.586 291.735Z" fill="#E8B98B"/>
<path d="M231.166 246.63H212.879" stroke="white" stroke-width="2.87832" stroke-linecap="round" stroke-linejoin="round"/>
<path d="M229.396 253.709H211.109" stroke="white" stroke-width="2.87832" stroke-linecap="round" stroke-linejoin="round"/>
<path d="M243.593 365.74C240.435 358.11 230.098 336.762 225.915 329.64C228.589 321.283 228.282 314.868 225.915 312.272C221.346 307.259 217.907 306.595 210.34 306.706C204.497 298.989 198.596 294.039 198.596 294.039C198.596 294.039 153.264 301.157 145.233 301.204C126.475 297.298 135.269 308.327 135.269 308.327C135.269 308.327 149.392 319.197 136.784 329.595C130.459 337.973 113.178 346.317 88.6615 350.236C64.1453 354.156 46.6946 349.224 42.2727 346.766C37.8514 344.307 36.1431 348.612 44.0578 364.192C51.9725 379.771 64.1581 390.973 84.6241 394.666C97.2473 396.838 109.462 392.221 121.851 388.971C121.851 388.971 156.199 374.489 165.697 368.267C175.197 362.046 176.682 370.506 176.682 370.506L174.518 507.972L199.586 512.97L213.847 386.434L221.274 396.383L245.192 445.854L268.33 437.636C265.504 422.81 250.991 383.714 243.593 365.74Z" fill="url(#paint2_linear_2217_80106)"/>
<path d="M137.754 175.105C141.909 175.364 144.796 177.116 148.6 178.807C151.867 180.26 156.342 183.441 158.629 187.885C161.312 193.1 160.628 195.823 160.942 201.636C161.069 203.998 160.693 206.73 160.675 208.725C158.629 229.211 155.367 245.671 152.575 262.494L192.864 265.11L237.473 263.865L239.144 259.682L240.478 256.317H246.107C247.887 256.316 249.55 257.207 250.536 258.689C251.523 260.171 251.702 262.048 251.015 263.691L246.252 275.085C243.326 282.054 237.052 287.052 229.605 288.347L229.1 288.441L227.771 288.672C220.727 290.129 204.98 292.664 189.61 295.019C175.551 297.195 161.799 299.208 155.295 300.142C152.829 300.502 150.31 300.769 147.752 300.931C127.448 303.435 120.949 292.369 116.887 275.085C114.241 264.016 114.822 252.082 114.943 240.56" stroke="black" stroke-width="2"/>
<path d="M210.021 306.385C219.85 305.932 223.031 308.496 226.808 314.646C228.711 317.756 227.866 327.7 225.308 330.347" stroke="black" stroke-width="2"/>
<path d="M45.7885 367.552C28.7658 321.477 45.8268 367.608 45.8404 367.639C50.047 376.214 57.4449 383.617 66.9087 388.798C100.255 407.038 151.541 375.769 169.58 366.875C171.044 366.155 172.776 366.242 174.16 367.105C175.544 367.968 176.384 369.485 176.381 371.116L175.249 517.797L213.84 527.573C215.047 527.883 216.329 527.687 217.389 527.029C218.447 526.372 219.193 525.311 219.451 524.092C219.98 521.653 218.461 519.24 216.034 518.662L199.387 513.179C200.158 507.772 204.949 436.289 214.546 386.987" stroke="black" stroke-width="2"/>
<path d="M197.801 293.877C207.665 302.232 215.969 314.739 222.601 325.652C238.761 352.24 250.847 381.179 260.235 410.791C263.073 419.737 265.684 428.776 268.149 437.815L286.995 433.945C289.22 433.222 291.614 434.407 292.389 436.614C293.163 438.821 292.033 441.243 289.844 442.067L249.431 457.152C249.431 457.152 235.538 418.955 222.601 398.315C198.854 360.424 154.498 306.263 142.685 318.834" stroke="black" stroke-width="2"/>
<path d="M163.766 162.667C163.766 162.667 203.396 159.923 230.562 106.147C230.562 106.147 239.15 112.071 251.119 130.601C251.119 130.601 213.212 190.407 160.597 208.392" stroke="black" stroke-width="2"/>
<path d="M177.974 195.911C177.464 199.427 172.83 209.097 170.528 211.799C168.759 214.063 166.508 215.904 163.94 217.186C163.337 217.478 161.388 217.001 160.744 217.186C160.744 215.182 161.124 213.575 161.238 211.252C161.749 200.794 162.814 190.838 158.081 185.115C155.805 182.382 153.273 179.681 150.024 178.236C150.117 176.862 150.226 175.499 150.313 174.125C150.561 171.775 150.549 169.405 150.278 167.058C149.973 165.633 149.8 164.184 149.76 162.727C149.811 161.37 149.616 156.162 150.687 155.036C152.477 155.782 154.393 156.175 156.33 156.191C160.671 156.156 164.118 153.488 166.441 150.076C167.295 149.796 168.183 149.633 169.081 149.591C171.709 149.984 163.864 157.068 166.424 156.266C164.758 156.78 163.541 159.286 162.757 160.718C161.605 162.935 160.936 165.545 162.066 167.889C163.173 170.129 165.49 172.058 167.133 173.9C169.347 176.23 171.418 178.692 173.334 181.274C176.366 185.5 178.58 190.692 177.974 195.911Z" fill="#E8B98B"/>
<path d="M160.378 100.04L162.671 103.571L164.052 105.718C165.454 109.025 166.686 112.404 167.744 115.839L167.813 116.083L170.439 126.244C170.443 126.255 170.443 126.268 170.439 126.279C171.322 127.75 172.538 128.986 173.987 129.885C174.331 130.072 174.65 130.3 174.939 130.564C176.516 132.167 172.359 132.631 171.5 133.159C170.729 133.695 170.265 134.577 170.256 135.523C165.319 156.327 168.495 150.863 166.374 155.491C168.215 153.911 172.789 148.889 172.789 148.889C173.363 148.512 173.902 147.379 174.274 146.816C175.458 144.976 176.477 143.033 177.318 141.01C179.934 134.966 180.538 128.224 179.038 121.802C176.671 111.821 171.15 101.834 160.378 100.04Z" fill="#E8B98B"/>
<path d="M159.642 102.931C159.208 105.132 158.162 107.167 156.624 108.802C154.954 110.625 153.01 112.175 150.861 113.4C146.818 115.803 142.318 117.62 138.921 120.863C135.52 124.127 133.484 128.558 133.223 133.261C132.986 138.078 134.712 143.067 135.761 147.576C139.087 162.153 138.02 176.161 136.182 190.831C134.439 204.674 130.728 218.22 123.53 230.269C115.04 244.472 101.101 255.841 85.4133 261.675C72.37 266.535 47.0243 270.843 37.4377 257.326C35.7833 253.059 35.7652 248.177 36.4058 243.579C40.1703 216.604 60.8917 188.92 85.615 177.699C98.8599 171.687 120.459 162.449 113.48 144.073C111.257 138.279 108.145 133.279 107.552 127.225C107.498 126.674 107.445 126.124 107.392 125.538C106.396 111.335 114.678 97.8539 128.089 92.9893C136.965 89.6431 146.857 90.2905 155.219 94.7644C156.687 95.5446 158 96.5826 159.097 97.8299C159.172 97.9147 159.239 98.006 159.299 98.1022C159.382 98.312 159.449 98.5278 159.5 98.7472C159.827 100.118 159.876 101.541 159.642 102.931Z" fill="#E8B98B"/>
<path d="M159.752 218.318C166.764 216.699 177.446 204.123 179.205 196.79C180.842 189.996 178.954 183.502 174.943 178.037C171.223 172.989 163.475 168.754 164.084 161.594C164.281 159.273 165.43 157.243 166.928 155.444C167.468 154.818 169.334 153.538 169.944 152.946" stroke="black" stroke-width="2"/>
<path fill-rule="evenodd" clip-rule="evenodd" d="M111.869 143.045C109.704 137.359 106.645 132.457 106.064 126.528C106.006 125.982 105.954 125.436 105.914 124.856C104.933 110.932 113.047 97.7204 126.17 92.9457C134.863 89.6682 144.547 90.3024 152.737 94.6859C154.169 95.4534 155.451 96.4733 156.521 97.6974L156.793 98.0277C158.711 100.37 159.522 103.428 159.017 106.412C158.594 108.563 157.577 110.553 156.08 112.156C154.439 113.946 152.532 115.472 150.427 116.682C146.468 119.037 142.068 120.807 138.731 123.986C135.399 127.196 133.411 131.551 133.17 136.17C132.932 140.893 134.627 145.778 135.637 150.211C138.893 164.501 137.855 178.229 136.055 192.606C134.349 206.177 130.721 219.463 123.663 231.276C115.351 245.201 101.711 256.352 86.3475 262.067C73.3284 266.918 47.8016 271.211 38.834 257.014C35.8213 252.251 35.6243 246.222 36.4018 240.641C40.0875 214.201 60.3854 187.048 84.5772 176.053C97.5674 170.089 118.712 161.055 111.869 143.045Z" stroke="black" stroke-width="2"/>
<path d="M162.147 127.175C163.45 127.175 164.507 126.119 164.507 124.816C164.507 123.512 163.45 122.456 162.147 122.456C160.844 122.456 159.788 123.512 159.788 124.816C159.788 126.119 160.844 127.175 162.147 127.175Z" fill="black"/>
<path d="M161.428 117.467C161.428 117.467 153.789 120.911 156.208 127.607" stroke="black" stroke-width="2" stroke-linecap="round"/>
<path d="M148.911 155.091L148.586 178.78" stroke="black" stroke-width="2"/>
<path d="M168.16 154.379C170.053 152.919 172.442 150.86 173.835 149.416C175.374 147.775 176.749 145.986 177.941 144.077C184.794 133.118 184.669 119.182 177.622 108.348C175.233 104.66 172.048 101.39 168.058 99.535C164.731 97.9688 161.01 97.4438 157.379 98.0278C159.408 99.6831 161.227 101.58 162.797 103.675C165.161 106.776 166.817 110.358 167.646 114.168C167.773 114.835 167.884 115.496 168 116.168C168.58 119.751 168.904 123.38 170.662 126.314C171.558 127.795 172.795 129.041 174.27 129.948C174.616 130.135 174.94 130.363 175.233 130.627C176.828 132.227 172.622 132.685 171.752 133.213C169.52 134.517 170.349 138.263 170.053 140.43C169.696 142.962 168.938 145.419 167.808 147.712C167.408 148.527 166.952 149.313 166.445 150.066C164.125 153.504 160.645 156.194 156.272 156.217C154.325 156.2 152.401 155.806 150.605 155.058C147.523 153.806 144.768 151.869 142.548 149.393" stroke="black" stroke-width="2"/>
<path d="M164.287 141.764C164.287 141.764 159.027 144.762 156.747 137.862" stroke="black" stroke-width="2" stroke-linecap="round"/>
<path d="M240.247 117.612L253.355 111.281C254.554 110.704 255.6 109.854 256.412 108.8L262.531 100.863C263.996 98.8599 263.605 96.0561 261.646 94.5306C259.688 93.0057 256.872 93.3119 255.287 95.2226L254.168 96.5268L256.528 90.944C256.853 90.1671 256.823 89.2882 256.448 88.5348C256.073 87.7815 255.389 87.2282 254.573 87.0188L250.844 87.5114L262.502 71.5976C264.155 69.3425 262.549 66.6177 260.13 65.8467C257.346 64.9595 254.77 66.7917 253.042 68.8204C245.931 77.1922 240.543 86.8737 235.537 96.6135C233.855 99.8875 232.233 103.188 230.671 106.516" stroke="black" stroke-width="2" stroke-linejoin="round"/>
<path d="M250.85 87.5117C250.85 87.5117 243.246 96.9678 254.173 96.5272" stroke="black" stroke-width="2"/>
<path d="M229.679 288.578C229.679 288.578 224.041 297.721 230.607 299.964C235.54 301.65 238.794 296.113 240.107 293.255C240.461 292.484 239.882 291.657 239.034 291.657H228.09" stroke="black" stroke-width="3"/>
<path d="M231.697 300.233L204.438 300.232" stroke="black" stroke-width="3"/>
<path fill-rule="evenodd" clip-rule="evenodd" d="M257.475 238.123C257.467 238.768 257.346 239.406 257.116 240.008L254.799 246.038C254.615 246.516 254.155 246.832 253.643 246.832H243.317L247.197 236.292C248.083 233.879 250.573 232.45 253.104 232.901C255.636 233.352 257.478 235.554 257.475 238.123Z" stroke="black" stroke-width="3"/>
<path d="M203.252 247.149L196.836 264.823L206.791 237.177C207.735 234.558 210.189 232.819 212.932 232.825H252.787" stroke="black" stroke-width="3"/>
<path d="M236.971 264.114L243.317 246.832" stroke="black" stroke-width="3"/>
<path d="M45.1629 264.306C27.6753 311.364 33.1967 345.164 33.1967 345.164C60.719 354.566 85.6771 353.54 117.805 343.607C127.294 339.027 137.525 332.129 141.667 322.018C144.706 314.615 131.326 308.437 133.93 300.929" stroke="black" stroke-width="2"/>
<path d="M21.5033 396.104H175.401" stroke="black" stroke-width="3"/>
<path d="M152.39 262.697L148.408 268.304" stroke="black" stroke-width="2"/>
<path d="M46.0147 367.818C46.0147 367.818 40.3862 354.773 38.1824 346.732" stroke="black" stroke-width="1.23799"/>
<defs>
<linearGradient id="paint0_linear_2217_80106" x1="446.477" y1="-45.226" x2="449.717" y2="140.665" gradientUnits="userSpaceOnUse">
<stop stop-color="#3A394B"/>
<stop offset="1" stop-color="#2F2E3E"/>
</linearGradient>
<linearGradient id="paint1_linear_2217_80106" x1="428.919" y1="-43.447" x2="432.031" y2="135.131" gradientUnits="userSpaceOnUse">
<stop stop-color="#3A394B"/>
<stop offset="1" stop-color="#2F2E3E"/>
</linearGradient>
<linearGradient id="paint2_linear_2217_80106" x1="387.52" y1="258.869" x2="390.026" y2="403.427" gradientUnits="userSpaceOnUse">
<stop stop-color="#3A394B"/>
<stop offset="1" stop-color="#2F2E3E"/>
</linearGradient>
</defs>
</svg>
