<svg width="419" height="381" viewBox="0 0 419 381" fill="none" xmlns="http://www.w3.org/2000/svg">
<path d="M79.9707 234.02L81.1875 219.676L100.49 230.971L101.945 213.844L129.276 235.24L109.475 229.514L108.537 243.89L79.9707 234.02Z" fill="#56515A"/>
<path d="M156.67 87.674L166.089 80.8487L171.13 100.565L182.376 92.4064L186.252 123.22L177.53 106.139L168.274 113.181L156.67 87.674Z" fill="#E8B98B"/>
<path fill-rule="evenodd" clip-rule="evenodd" d="M5.60987 108.787L15.3718 84.099L47.5176 114.937L59.1731 85.4485L101.932 138.664L65.9249 117.409L56.7115 142.31L5.60987 108.787Z" stroke="white" stroke-width="5.15"/>
<path d="M309.238 205.559H156.324C146.186 205.572 137.369 212.602 134.971 222.584L110.613 324.744C109.281 330.329 110.55 336.225 114.056 340.74C117.563 345.254 122.92 347.889 128.589 347.889H281.132C291.237 347.867 300.029 340.875 302.451 330.933L327.207 228.766C328.562 223.173 327.304 217.26 323.796 212.73C320.289 208.2 314.92 205.555 309.238 205.559Z" fill="url(#paint0_linear_2048_69486)"/>
<path d="M53.9821 378.471H61.8439H265.265C272.625 378.467 278.591 372.488 278.595 365.111H108.691C104.908 365.116 101.278 363.613 98.6025 360.933C95.927 358.253 94.4254 354.616 94.429 350.824H47.4099C45.7901 350.822 44.2359 351.466 43.0898 352.613C41.9438 353.761 41.2998 355.318 41.2998 356.941V365.76C41.3074 372.777 46.981 378.463 53.9821 378.471Z" stroke="white" stroke-width="4.83"/>
<path fill-rule="evenodd" clip-rule="evenodd" d="M314.971 200.854H151.35C140.502 200.839 131.058 208.275 128.506 218.839L102.457 326.93C101.033 332.839 102.392 339.077 106.146 343.853C109.899 348.63 115.631 351.418 121.698 351.418H284.898C295.724 351.428 305.153 344.018 307.722 333.481L334.192 225.41C335.64 219.495 334.295 213.24 330.543 208.447C326.792 203.654 321.05 200.855 314.971 200.854V200.854Z" stroke="white" stroke-width="4.83"/>
<path fill-rule="evenodd" clip-rule="evenodd" d="M246.474 229.08L236.748 274.757C236.483 276.026 236.794 277.347 237.597 278.362C238.393 279.361 239.593 279.949 240.866 279.964L287.539 280.526H287.65C288.916 280.526 290.113 279.944 290.899 278.945C291.327 278.447 291.623 277.848 291.761 277.204L303.04 230.987C303.362 229.718 303.082 228.371 302.281 227.339C301.473 226.285 300.224 225.667 298.901 225.668H250.662C248.638 225.664 246.89 227.089 246.474 229.08ZM299.666 229.392C299.846 229.615 299.91 229.911 299.839 230.189L289.126 274.07C287.96 268.793 283.911 260.777 269.928 268.099C269.928 268.099 267.127 240.494 242.335 264.556L249.758 229.766C249.853 229.326 250.241 229.013 250.689 229.017H298.921C299.214 229.016 299.491 229.155 299.666 229.392Z" fill="#E8B98B"/>
<path d="M285.905 246.762C283.222 245.923 281.939 242.338 283.049 238.76C284.16 235.182 287.23 232.949 289.948 233.788C292.665 234.627 293.914 238.212 292.81 241.797C291.707 245.382 288.554 247.629 285.905 246.762Z" fill="#D7E8F0"/>
<path d="M274.067 245.951H258.249H252.337H252.062C251.508 245.966 250.958 245.862 250.447 245.646C249.726 245.291 249.252 244.571 249.209 243.765C249.166 242.959 249.561 242.193 250.24 241.762C250.609 241.587 250.946 241.352 251.241 241.069C251.427 240.759 251.558 240.419 251.627 240.063C251.993 239.063 252.696 238.224 253.614 237.692C254.971 236.772 256.643 236.448 258.242 236.797C259.01 236.997 259.71 237.399 260.27 237.962C260.767 238.448 260.857 239.093 261.236 239.64C261.484 239.994 261.643 239.883 261.981 239.682C262.319 239.481 262.505 239.349 262.781 239.204C263.326 238.913 263.891 238.663 264.471 238.455C265.654 238.012 266.916 237.823 268.176 237.9C270.39 238.073 272.597 239.405 273.377 241.492C274.815 241.515 276.023 242.585 276.226 244.016C276.316 244.556 276.15 245.108 275.778 245.507C275.279 245.858 274.672 246.015 274.067 245.951V245.951Z" fill="#D7E8F0"/>
<path fill-rule="evenodd" clip-rule="evenodd" d="M161.888 239.716L160.618 244.958C159.685 248.834 160.573 252.925 163.026 256.058C165.48 259.191 169.227 261.02 173.194 261.018H190.522C197.792 261.024 204.161 256.125 206.057 249.07L207.498 243.731C208.551 239.824 207.733 235.647 205.285 232.433C202.837 229.219 199.039 227.335 195.013 227.338H177.553C170.116 227.335 163.642 232.45 161.888 239.716ZM185.77 249.943L179.796 246.24C179.24 245.896 178.918 245.272 178.957 244.617C178.996 243.962 179.39 243.382 179.982 243.106L188.177 239.445C188.811 239.172 189.543 239.29 190.061 239.748C190.578 240.205 190.787 240.921 190.598 241.587L188.391 248.959C188.235 249.489 187.84 249.914 187.325 250.108C186.809 250.301 186.234 250.24 185.77 249.943Z" fill="#56515A"/>
<path d="M164.538 292.115H195.035C197.885 292.109 200.465 290.416 201.616 287.794C202.053 286.821 201.964 285.691 201.381 284.798C200.798 283.906 199.802 283.375 198.739 283.391H166.318C167.836 285.978 167.077 289.57 164.538 292.115V292.115Z" fill="#E8B98B"/>
<path d="M144.822 288.966C144.822 290.702 146.22 292.11 147.947 292.114H164.537C167.075 289.569 167.848 285.977 166.324 283.391H151.679C148.83 283.388 146.249 285.077 145.098 287.697C144.921 288.097 144.827 288.528 144.822 288.966V288.966Z" fill="#56515A"/>
<path d="M152.451 292.113C152.533 292.282 152.632 292.443 152.748 292.591C154.928 295.58 159.646 295.857 163.309 293.173C163.745 292.852 164.155 292.497 164.537 292.113C167.075 289.568 167.848 285.976 166.324 283.389C166.237 283.22 166.136 283.06 166.02 282.911C163.861 279.901 159.122 279.645 155.48 282.314C155.038 282.641 154.62 283 154.231 283.389C151.713 285.941 150.941 289.505 152.451 292.113V292.113Z" fill="white"/>
<path d="M137.153 308.215C137.168 309.954 138.575 311.356 140.305 311.356H261.168C259.623 308.749 260.396 305.185 262.934 302.633H144.009C141.155 302.632 138.572 304.331 137.429 306.96C137.251 307.355 137.157 307.782 137.153 308.215V308.215Z" fill="#56515A"/>
<path d="M261.168 311.356H276.234C279.08 311.354 281.658 309.67 282.815 307.057C282.988 306.654 283.082 306.22 283.091 305.781C283.091 304.042 281.689 302.633 279.959 302.633H262.934C260.396 305.185 259.623 308.749 261.168 311.356V311.356Z" fill="#E8B98B"/>
<path d="M261.169 311.356C261.24 311.529 261.335 311.69 261.452 311.835C263.611 314.844 268.35 315.108 271.992 312.438C272.434 312.109 272.852 311.747 273.241 311.356C275.759 308.811 276.531 305.24 275.021 302.633C274.939 302.463 274.84 302.302 274.724 302.154C272.544 299.165 267.826 298.888 264.163 301.579C263.729 301.9 263.318 302.252 262.935 302.633C260.396 305.184 259.624 308.749 261.169 311.356V311.356Z" fill="white"/>
<path d="M250.508 330.462H269.671C272.515 330.456 275.092 328.773 276.252 326.162C276.425 325.766 276.519 325.34 276.528 324.907C276.52 323.16 275.113 321.746 273.375 321.738H252.288C253.798 324.346 253.026 327.917 250.508 330.462V330.462Z" fill="#56515A"/>
<path d="M130.586 327.334C130.587 328.167 130.919 328.964 131.506 329.551C132.094 330.138 132.889 330.465 133.717 330.462H250.51C253.028 327.917 253.801 324.346 252.29 321.738H137.449C134.595 321.738 132.012 323.436 130.868 326.065C130.689 326.465 130.593 326.896 130.586 327.334V327.334Z" fill="#E8B98B"/>
<path d="M238.418 330.461C238.504 330.63 238.606 330.79 238.721 330.939C240.881 333.949 245.62 334.212 249.262 331.543C249.704 331.213 250.121 330.852 250.51 330.461C253.028 327.916 253.801 324.345 252.29 321.738C252.209 321.568 252.11 321.407 251.994 321.259C249.814 318.27 245.095 318.014 241.432 320.683C240.998 321.005 240.588 321.357 240.205 321.738C237.666 324.289 236.893 327.874 238.418 330.461V330.461Z" fill="white"/>
<path d="M227.486 136.264L240.061 140.855L225.217 155.421L240.231 160.905L214.365 180.21L224.333 163.839L211.662 159.491L227.486 136.264Z" fill="#56515A"/>
<path d="M303.926 9.39548L326.901 11.2143L309.153 47.4203L336.598 49.5795L302.825 101.021L311.635 64.0535L288.626 62.7695L303.926 9.39548Z" fill="#E8B98B"/>
<path fill-rule="evenodd" clip-rule="evenodd" d="M378.96 144.991L391.858 157.018L364.989 169.413L380.396 183.776L337.115 197.304L358.995 180.196L345.832 168.457L378.96 144.991Z" stroke="white" stroke-width="3.42094"/>
<defs>
<linearGradient id="paint0_linear_2048_69486" x1="-2.79611" y1="182.694" x2="-3.91476" y2="276.688" gradientUnits="userSpaceOnUse">
<stop stop-color="#3A394B"/>
<stop offset="1" stop-color="#2F2E3E"/>
</linearGradient>
</defs>
</svg>
