<svg width="385" height="325" viewBox="0 0 385 325" fill="none" xmlns="http://www.w3.org/2000/svg">
<path fill-rule="evenodd" clip-rule="evenodd" d="M97.0354 302.1L97.0734 303.897C97.3354 316.299 107.523 318.216 116.288 318.237L285.943 318.506C293.378 318.542 299.487 312.003 299.475 304.002L299.468 303.668C299.302 295.824 293.324 289.425 285.98 289.4C285.98 289.4 191.067 288.772 117.561 288.334C116.259 292.742 112.914 296.203 108.733 298.937C105.237 301.109 101.166 302.21 97.0354 302.1V302.1Z" fill="url(#paint0_linear_2048_69519)" stroke="white" stroke-width="4.5"/>
<path fill-rule="evenodd" clip-rule="evenodd" d="M2.45409 124.166C2.49917 126.241 3.03573 128.276 4.02006 130.105L83.3934 283.929C85.2788 287.525 88.6488 290.122 92.6187 291.036C95.78 291.762 99.0976 291.35 101.984 289.873C106.689 287.446 109.599 282.564 109.483 277.288C109.428 275.22 108.911 273.191 107.97 271.348L28.5568 117.512C25.5876 111.857 19.102 108.98 12.8933 110.562C6.68465 112.145 2.38377 117.771 2.50617 124.152L2.45409 124.166Z" fill="url(#paint1_linear_2048_69519)" stroke="white" stroke-width="4.5"/>
<ellipse rx="42.1571" ry="41.5086" transform="matrix(-0.999777 0.02112 0.02112 0.999777 207.723 45.1065)" fill="#56515A"/>
<path d="M221.286 59.1019C222.681 58.5503 223.983 57.7897 225.146 56.8468C229.388 53.5341 230.452 47.5971 227.619 43.0421C225.811 40.1455 222.734 38.2594 219.311 37.9485C221.135 33.4411 219.725 28.2823 215.854 25.3061C211.983 22.3299 206.59 22.2572 202.637 25.1279C198.591 28.0455 195.853 33.0959 194.209 37.6884C193.361 40.0997 192.755 42.5878 192.399 45.1166C192.227 46.4375 191.025 53.708 192.104 54.4229C199.221 59.0938 212.363 62.689 221.286 59.1019V59.1019Z" fill="white"/>
<circle r="23.0075" transform="matrix(-0.999777 0.02112 0.02112 0.999777 245.177 150.625)" fill="#E8B98B"/>
<path d="M240.829 160.48C241.396 161.07 242.051 161.568 242.771 161.958C245.324 163.378 248.535 162.676 250.263 160.32C251.373 158.808 251.706 156.861 251.16 155.065C253.806 155.026 256.108 153.245 256.812 150.695C257.515 148.144 256.451 145.435 254.2 144.045C251.717 142.738 248.909 142.179 246.115 142.435C244.718 142.503 243.332 142.717 241.979 143.072C241.289 143.244 237.355 144.165 237.213 144.849C236.301 149.41 237.176 156.761 240.829 160.48V160.48Z" fill="white"/>
<path d="M146.646 133.761C149.849 127.435 147.316 119.709 140.99 116.506L111.089 101.37C104.762 98.1669 97.0365 100.699 93.8336 107.026L78.6969 136.927C75.4941 143.254 78.0266 150.979 84.3535 154.182L114.254 169.319C120.581 172.522 128.307 169.989 131.509 163.662L146.646 133.761Z" fill="#E8B98B"/>
<path d="M106.653 161.415L89.9927 153.056C82.7607 149.402 79.8638 140.647 83.5076 133.455L93.6469 113.622C97.3308 106.447 106.172 103.571 113.426 107.187L114.547 107.752C118.782 113.326 124.462 122.898 116.255 126.119C104.475 130.776 108.084 137.305 112.708 145.67C116.631 152.689 117.77 160.971 106.653 161.415V161.415Z" fill="white"/>
<ellipse rx="5.83714" ry="6.48571" transform="matrix(-0.999777 0.02112 0.02112 0.999777 131.693 131.045)" fill="white"/>
<path d="M209.224 238.697C206.919 239.813 204.464 240.592 201.936 241.009C192.491 242.451 182.981 238.839 176.894 231.497C174.588 228.633 172.862 225.047 170.436 222.157C168.778 220.048 166.559 218.445 164.031 217.532C163.164 217.347 162.354 216.955 161.672 216.389C160.011 214.682 162.832 213.236 163.399 211.857C164.249 209.632 164.249 207.172 163.399 204.947C158.937 192.882 163.649 179.355 174.653 172.644C185.657 165.932 199.885 167.907 208.631 177.358C212.822 181.864 215.339 187.619 217.949 193.123C220.269 198.023 222.733 202.897 224.012 208.165C226.977 220.646 220.282 233.324 209.224 238.697Z" fill="#56515A"/>
<circle r="5.82386" transform="matrix(-0.999777 0.02112 0.02112 0.999777 185.569 188.877)" fill="white"/>
<circle r="5.82386" transform="matrix(-0.999777 0.02112 0.02112 0.999777 193.538 204.783)" fill="white"/>
<circle r="5.82386" transform="matrix(-0.999777 0.02112 0.02112 0.999777 201.013 219.706)" fill="white"/>
<path d="M341.686 259.317C339.912 259.12 338.155 258.794 336.429 258.341L316.607 253.21C310.539 251.636 304.153 249.886 299.778 245.384C291.669 237.033 293.947 223.45 296.785 212.159C299.094 202.92 301.408 193.682 303.726 184.444C305.32 178.075 306.963 171.599 310.287 165.979C313.611 160.358 318.954 155.481 325.422 154.323C330.182 153.476 335.05 154.656 339.748 155.827L358.766 160.661C365.004 162.218 371.586 163.977 376.03 168.635C383.928 176.911 381.722 190.205 378.998 201.298L372.044 229.654C367.77 246.696 359.397 261.168 341.686 259.317V259.317Z" fill="#56515A"/>
<path d="M342.18 220.836C339.854 223.205 336.439 224.153 333.225 223.321C330.01 222.49 327.483 220.006 326.596 216.806L324.216 208.243L321.849 199.667C320.964 196.467 321.854 193.038 324.183 190.673C326.512 188.307 329.926 187.363 333.139 188.197L341.734 190.424L350.342 192.651C353.551 193.493 356.067 195.981 356.944 199.18C357.821 202.379 356.927 205.803 354.597 208.164L348.356 214.501L342.18 220.836Z" fill="#E8B98B"/>
<defs>
<linearGradient id="paint0_linear_2048_69519" x1="-8.29654" y1="285.574" x2="-7.89364" y2="307.846" gradientUnits="userSpaceOnUse">
<stop stop-color="#3A394B"/>
<stop offset="1" stop-color="#2F2E3E"/>
</linearGradient>
<linearGradient id="paint1_linear_2048_69519" x1="-52.27" y1="82.189" x2="-53.5912" y2="202.921" gradientUnits="userSpaceOnUse">
<stop stop-color="#3A394B"/>
<stop offset="1" stop-color="#2F2E3E"/>
</linearGradient>
</defs>
</svg>
