<svg width="442" height="315" viewBox="0 0 442 315" fill="none" xmlns="http://www.w3.org/2000/svg">
<g clip-path="url(#clip0_2048_69538)">
<path d="M356.556 190.189C356.002 212.052 348.629 233.199 335.463 250.682C335.433 250.71 335.408 250.743 335.39 250.78C334.144 252.121 332.874 253.462 331.579 254.754C310.701 275.672 282.328 287.417 252.744 287.387H252.443C235.536 287.387 218.637 287.444 201.754 287.444C188.431 287.444 174.952 288.256 161.759 286.33C157.516 285.721 153.509 284.38 149.168 284.575C132.62 285.339 121.251 300.968 113.408 313.606C113.305 313.771 113.165 313.91 113.001 314.013C112.942 313.868 112.914 313.713 112.919 313.558C113.962 294.507 109.825 274.805 100.304 258.209C100.133 257.884 99.9539 257.575 99.7748 257.274C94.473 248.334 87.4121 240.653 82.8677 231.266C66.8743 198.079 69.3488 158.975 89.3988 128.06C109.449 97.1449 144.181 78.878 181.069 79.8483L253.632 81.799C312.043 83.3714 358.12 131.896 356.556 190.189V190.189Z" fill="url(#paint0_linear_2048_69538)"/>
<path fill-rule="evenodd" clip-rule="evenodd" d="M364 176.12C364.04 203.642 353.804 230.192 335.288 250.586C335.258 250.614 335.233 250.647 335.215 250.684C333.971 252.023 332.703 253.362 331.41 254.652C310.565 275.541 282.236 287.269 252.699 287.239H252.399C235.518 287.239 218.646 287.296 201.79 287.296C188.487 287.296 175.03 288.108 161.857 286.184C157.621 285.575 153.62 284.236 149.286 284.431C132.764 285.194 121.412 300.801 113.582 313.422C113.479 313.586 113.34 313.725 113.175 313.828C112.796 314.065 112.317 314.074 111.929 313.852C111.541 313.629 111.307 313.211 111.321 312.765C111.883 292.677 106.963 272.094 96.4738 254.888C96.2949 254.563 96.0917 254.23 95.8884 253.93C90.0583 244.694 82.4312 236.805 77.3898 227.065C59.586 192.618 61.0519 151.4 81.258 118.3C101.464 85.1994 137.49 65.0008 176.323 65H252.699C282.222 65.0022 310.534 76.7108 331.407 97.55C352.28 118.389 364.004 146.652 364 176.12V176.12Z" stroke="white" stroke-width="4"/>
<rect x="215" y="117.001" width="101.827" height="124.043" rx="23.78" fill="#E8B98B"/>
<ellipse cx="266.248" cy="149.406" rx="7.86842" ry="7.40557" fill="white"/>
<path d="M244.492 184.583C244.492 172.824 254.232 163.292 266.246 163.292C278.26 163.292 288 172.824 288 184.583H244.492Z" fill="white"/>
<rect x="243.121" y="190.746" width="44.553" height="24.7517" rx="7" fill="white"/>
<path d="M182.564 156.645H121.468" stroke="white" stroke-width="4.23" stroke-linecap="round" stroke-linejoin="round"/>
<path d="M182.564 170.994H121.468" stroke="white" stroke-width="4.23" stroke-linecap="round" stroke-linejoin="round"/>
<path d="M182.564 183.952H121.468" stroke="white" stroke-width="4.23" stroke-linecap="round" stroke-linejoin="round"/>
<path d="M182.564 198.301H121.468" stroke="white" stroke-width="4.23" stroke-linecap="round" stroke-linejoin="round"/>
<path d="M182.564 144.147H121.468" stroke="white" stroke-width="4.23" stroke-linecap="round" stroke-linejoin="round"/>
<path d="M402.312 34.3714C394.024 27.4333 388.702 20.0801 390.457 17.999C392.212 15.9178 400.338 19.8711 408.635 26.8299C416.933 33.7887 422.227 41.08 420.486 43.187C420.454 43.2315 420.411 43.2663 420.36 43.2876C418.384 45.1063 410.413 41.18 402.312 34.3714V34.3714Z" fill="#E8B98B"/>
<path d="M424.25 62.5739C418.609 66.2174 410.817 66.2373 404.57 63.6814C413.344 60.5504 419.51 52.623 420.387 43.3492L420.389 43.3139C425.117 40.995 429.874 43.7328 431.417 48.5278C433.354 54.5838 429.067 59.4854 424.25 62.5739V62.5739Z" fill="#E8B98B"/>
<path d="M390.38 18.0102C381.312 20.4181 374.502 27.926 372.987 37.1858C369.366 31.4902 368.105 23.8766 370.739 17.6837C372.965 12.3928 377.032 7.29455 383.327 8.18428C388.239 8.81574 391.774 13.0163 390.38 18.0102Z" fill="#E8B98B"/>
<path d="M384.086 61.518L366.758 82.1828C365.937 83.2251 364.614 83.7378 363.306 83.5208C361.997 83.3037 360.91 82.3913 360.47 81.1399C360.03 79.8886 360.306 78.4968 361.191 77.5084L378.513 56.8534L384.086 61.518Z" fill="#E8B98B"/>
<path d="M374.165 95.7956C371.939 98.4525 363.944 95.4251 356.315 89.0216C348.686 82.6181 344.283 75.2752 346.539 72.6246C348.492 70.2944 354.838 72.3188 361.506 77.1278L361.196 77.5034C360.305 78.4901 360.023 79.8848 360.461 81.1402C360.9 82.3957 361.989 83.3118 363.301 83.529C364.612 83.7462 365.938 83.2299 366.758 82.1827L367.073 81.8073C373.003 87.5392 376.118 93.4653 374.165 95.7956V95.7956Z" fill="#E8B98B"/>
<path d="M408.102 107.213C406.108 108.054 403.886 108.172 401.816 107.547C400.136 106.901 398.728 105.691 397.829 104.121C393.1 103.866 390.458 100.541 389.477 96.5401C389.103 96.437 388.614 96.283 388.301 96.1571C385.28 94.7758 383.582 91.1151 382.558 88.0954C382.196 86.3375 382.181 84.3861 383.247 82.9052C383.932 81.9504 384.92 81.2606 386.047 80.9508C387.177 80.6594 388.351 80.8386 389.487 80.7614C391.962 80.6472 394.3 79.5779 396.016 77.7748C400.604 72.7516 410.036 74.2786 411.269 85.7319C412.501 97.1851 410.769 105.747 416.337 109.314C416.285 109.342 416.232 109.367 416.177 109.388C413.771 109.862 410.741 109.693 408.102 107.213V107.213Z" fill="white"/>
<path d="M334.557 36.3008C333.518 38.1897 333.179 40.3755 333.599 42.4848C334.08 44.2093 335.148 45.7205 336.626 46.7659C336.418 51.4666 339.473 54.4234 343.386 55.7712C343.451 56.1506 343.557 56.6474 343.645 56.9726C344.734 60.0937 348.218 62.1305 351.13 63.4441C352.855 63.9772 354.799 64.1836 356.384 63.2744C357.407 62.6935 358.195 61.783 358.614 60.6966C359.02 59.6099 358.954 58.432 359.147 57.3158C359.505 54.8799 360.804 52.6741 362.773 51.1543C368.248 47.1181 367.654 37.642 356.315 35.3035C344.976 32.965 336.277 33.821 333.264 27.9638C333.228 28.0114 333.196 28.0621 333.17 28.1153C332.47 30.4343 332.342 33.4464 334.557 36.3008V36.3008Z" fill="white"/>
<path fill-rule="evenodd" clip-rule="evenodd" d="M420.39 43.3136L420.388 43.3489L420.434 43.3509C419.557 52.6247 413.39 60.5521 404.617 63.6832C404.566 63.6986 404.521 63.7168 404.476 63.7351C404.43 63.7533 404.385 63.7715 404.334 63.787C402.5 64.4092 400.598 64.8139 398.669 64.9927C391.335 65.622 384.118 62.8416 379.102 57.4535C374.085 52.0655 371.827 44.669 372.978 37.3977L372.987 37.1858C374.512 27.9288 381.33 20.4295 390.4 18.0312C390.407 17.9911 390.437 17.9924 390.472 17.994C390.367 18.1295 390.288 18.2838 390.24 18.4488C389.444 21.0072 394.586 27.862 402.322 34.3612C410.411 41.1287 418.32 45.0725 420.39 43.3136ZM390.49 50.2033L398.152 41.3306C398.557 40.8274 398.598 40.1229 398.255 39.5759C397.906 39.0047 397.209 38.7497 396.573 38.9607L391.285 40.5673C390.781 40.7257 390.4 41.1407 390.286 41.6561C390.171 42.1715 390.34 42.7089 390.729 43.066C391.118 43.423 391.668 43.5453 392.172 43.387L392.545 43.2872L388.219 48.3033L385.948 46.383C385.644 46.1245 385.249 45.999 384.852 46.0347C384.455 46.0704 384.089 46.2643 383.836 46.5728C383.581 46.8736 383.458 47.2646 383.495 47.6573C383.532 48.0501 383.725 48.4113 384.032 48.6593L387.185 51.3263C387.224 51.3533 387.261 51.3878 387.297 51.4222C387.334 51.4567 387.37 51.4912 387.409 51.5182L390.992 54.5277C391.143 54.635 391.31 54.7174 391.487 54.772C392.059 54.9742 392.697 54.801 393.088 54.3372C393.613 53.7077 393.542 52.7751 392.929 52.2321L390.49 50.2033Z" fill="white"/>
<path d="M26.1374 70.2564C20.5772 74.8874 15.0977 77.5152 13.9364 76.1104C12.7751 74.7057 16.3498 69.8246 21.9247 65.19C27.4997 60.5554 32.935 57.9384 34.1151 59.337C34.1406 59.3633 34.1583 59.3961 34.1664 59.4318C35.1284 60.9508 31.5901 65.7327 26.1374 70.2564V70.2564Z" fill="#E8B98B"/>
<path d="M47.336 59.1718C49.0625 63.3229 48.1451 68.4578 45.7154 72.2676C44.7006 66.1145 40.2149 61.1054 34.2106 59.4203L34.1875 59.4151C33.2246 56.0235 35.5963 53.2164 38.9392 52.773C43.1599 52.2204 45.8769 55.6292 47.336 59.1718V59.1718Z" fill="#E8B98B"/>
<path d="M13.9354 76.1612C14.4386 82.4228 18.571 87.8055 24.49 89.9091C20.3056 91.6142 15.1396 91.5358 11.3747 89.0608C8.15514 86.9629 5.28242 83.6747 6.62034 79.634C7.62284 76.4741 10.8121 74.6469 13.9354 76.1612Z" fill="#E8B98B"/>
<path d="M41.8435 85.5033L53.387 99.3858C53.9755 100.051 54.1553 100.984 53.856 101.82C53.5568 102.656 52.826 103.263 51.9491 103.403C51.0722 103.544 50.1884 103.195 49.6429 102.495L38.1052 88.617L41.8435 85.5033Z" fill="#E8B98B"/>
<path d="M63.2394 96.133C64.7238 97.9163 61.7747 102.822 56.6453 107.083C51.5159 111.343 46.1531 113.367 44.6764 111.564C43.3747 109.999 45.4661 106.061 49.4304 102.242L49.6408 102.491C50.1843 103.196 51.0694 103.549 51.9488 103.41C52.8281 103.271 53.5616 102.663 53.8614 101.825C54.1611 100.986 53.9794 100.051 53.3874 99.3864L53.1778 99.1341C57.6618 95.9125 61.9376 94.568 63.2394 96.133V96.133Z" fill="#E8B98B"/>
<path d="M74.8144 75.1411C75.1304 76.5553 74.9428 78.0329 74.2834 79.3217C73.6572 80.3514 72.6922 81.1345 71.5506 81.5391C70.8182 84.6237 68.3119 85.9673 65.5593 86.1354C65.4467 86.3697 65.2869 86.673 65.1666 86.8641C63.8959 88.6894 61.2817 89.3707 59.1702 89.6845C57.9689 89.7131 56.6817 89.4898 55.8334 88.6108C55.2862 88.0459 54.9498 87.3126 54.8804 86.533C54.8233 85.7541 55.0816 85.0017 55.1664 84.2446C55.3868 82.6003 54.9616 80.9326 53.9787 79.5869C51.2177 75.9648 53.35 69.9335 61.042 70.4895C68.7339 71.0454 74.167 73.2091 77.1815 69.9673C77.194 70.0047 77.204 70.0429 77.2115 70.0816C77.2366 71.7232 76.7632 73.6986 74.8144 75.1411V75.1411Z" fill="white"/>
<path d="M19.318 115.119C20.4381 116.029 21.8376 116.513 23.2772 116.489C24.4706 116.378 25.5937 115.854 26.4589 115.006C29.5306 115.704 31.8432 114.045 33.1983 111.628C33.4561 111.631 33.796 111.62 34.0207 111.601C36.2068 111.256 37.9645 109.205 39.1777 107.443C39.7349 106.37 40.103 105.114 39.6933 103.962C39.4329 103.218 38.9272 102.591 38.2616 102.185C37.5942 101.788 36.8105 101.69 36.0981 101.43C34.5363 100.903 33.2383 99.7846 32.4723 98.3058C30.4674 94.2171 24.1542 93.4766 21.2595 100.667C18.3648 107.857 17.8899 113.69 13.6716 114.975C13.6986 115.005 13.7283 115.031 13.7602 115.055C15.2042 115.793 17.1731 116.237 19.318 115.119V115.119Z" fill="white"/>
<path fill-rule="evenodd" clip-rule="evenodd" d="M34.1881 59.4153L34.2112 59.4205L34.2179 59.3909C40.2222 61.0759 44.7079 66.085 45.7227 72.2382C45.7267 72.2738 45.7334 72.3056 45.74 72.3374C45.7466 72.3693 45.7533 72.4011 45.7573 72.4367C45.9481 73.7196 45.9877 75.0204 45.8751 76.3124C45.4137 81.2193 42.7203 85.6411 38.5718 88.3021C34.4234 90.9632 29.2813 91.5676 24.6289 89.941L24.4904 89.9095C18.5746 87.7992 14.4486 82.4127 13.952 76.1515C13.9263 76.1422 13.9308 76.1224 13.9361 76.0993C14.0127 76.1851 14.105 76.2555 14.2079 76.3067C15.7982 77.1363 20.9279 74.5676 26.1331 70.2478C31.5571 65.728 35.0996 60.9886 34.1881 59.4153ZM33.4342 84.1004L34.6877 85.3539L40.5535 79.4881L39.1313 78.0659L35.6761 81.521L35.6198 81.4648L35.6439 79.0863C35.6948 78.0069 35.6922 77.1284 35.6359 76.4508C35.577 75.7704 35.4565 75.2187 35.2743 74.7955C35.0949 74.3696 34.8498 74.0013 34.5391 73.6906C34.065 73.2166 33.5226 72.9179 32.9119 72.7947C32.3013 72.6715 31.6732 72.7264 31.0277 72.9594C30.3822 73.1871 29.7648 73.5956 29.1755 74.1848C28.6023 74.758 28.2046 75.3727 27.9823 76.0289C27.76 76.6851 27.7252 77.3333 27.8778 77.9735C28.0305 78.6136 28.376 79.2029 28.9144 79.7412L30.5656 78.09C30.3031 77.8275 30.1277 77.5503 30.0393 77.2583C29.9509 76.9664 29.9496 76.6758 30.0353 76.3865C30.121 76.0972 30.2898 75.8267 30.5415 75.5749C30.7826 75.3339 31.0464 75.1665 31.333 75.0727C31.6169 74.9763 31.9022 74.9616 32.1888 75.0285C32.4727 75.0928 32.7352 75.2455 32.9762 75.4865C33.1932 75.7035 33.3512 75.9499 33.4503 76.2258C33.5467 76.499 33.6057 76.8177 33.6271 77.182C33.6512 77.5436 33.6592 77.9694 33.6512 78.4596L33.4342 84.1004Z" fill="white"/>
</g>
<defs>
<linearGradient id="paint0_linear_2048_69538" x1="504.001" y1="42.1885" x2="506.321" y2="196.841" gradientUnits="userSpaceOnUse">
<stop stop-color="#3A394B"/>
<stop offset="1" stop-color="#2F2E3E"/>
</linearGradient>
<clipPath id="clip0_2048_69538">
<rect width="441.393" height="314.013" fill="white" transform="matrix(-1 0 0 1 441.394 0)"/>
</clipPath>
</defs>
</svg>
