<svg width="337" height="326" viewBox="0 0 337 326" fill="none" xmlns="http://www.w3.org/2000/svg">
<ellipse rx="7.90267" ry="6.42715" transform="matrix(0.500536 -0.865716 0.866335 0.499464 134.196 164.121)" fill="#F3DCC5"/>
<ellipse rx="7.92987" ry="6.4493" transform="matrix(0.498819 -0.866706 0.867321 0.497749 153.416 168.147)" fill="#F3DCC5"/>
<path d="M89.167 221.642C94.1584 210.294 97.3098 197.2 97.607 182.016C99.0494 107.749 183.144 50.4376 276.43 113.431C369.716 176.425 287.269 349.724 287.269 349.724" stroke="#F3DCC5" stroke-width="1.80085"/>
<path d="M23.9446 349.724C19.823 346.489 -11.5987 315.811 7.2744 298.252C15.3385 290.758 32.695 282.007 50.082 268.665" stroke="#F3DCC5" stroke-width="1.80085"/>
<path d="M248.793 163.575C249.132 165.333 250.021 166.937 251.332 168.158" stroke="#F3DCC5" stroke-width="1.80085"/>
<path d="M221.369 316.846C223.389 330.009 225.858 342.959 228.437 349.724H112.519C98.5628 310.155 105.18 266.928 105.18 266.928L84.5938 267.574C96.9762 245.883 92.5705 227.543 90.4812 221.424C106.653 218.678 122.825 216.522 139.168 216.339C138.73 225.679 148.941 236.416 163.666 233.592C169.636 232.457 176.914 230.1 177.071 219.656L180.913 220.328C186.228 221.201 191.036 222.135 195.595 223.187C207.396 225.902 217.536 229.297 230.172 233.592C212.689 246.515 221.378 276.365 221.378 276.365L221.815 277.36L216.234 276.365C216.234 276.365 218.301 296.839 221.369 316.846Z" fill="#353642"/>
<path d="M29.5682 15.3988C28.9239 16.4051 28.3654 17.4636 27.8985 18.5631C27.193 20.2443 26.6301 21.9817 26.2157 23.757C25.3066 22.4956 24.533 20.9855 24.4106 19.4753C24.3244 18.3777 24.6993 17.2938 25.4454 16.4833C26.1916 15.6728 27.2418 15.2088 28.3443 15.2024C28.7605 15.1972 29.1745 15.2637 29.5682 15.3988Z" fill="white"/>
<ellipse cx="109.954" cy="18.8215" rx="3.09454" ry="3.0901" fill="white"/>
<path d="M162.5 195C157 198 153.5 198.5 148.998 199.5C139 201.722 130 196.5 128.397 185.481C128.117 178.227 128.4 174.001 131.997 164.501C135.712 157.556 140.938 150.01 148.998 146.501C161.5 143.501 215.5 180.501 168.25 188.427" stroke="black" stroke-width="1.80085"/>
<path d="M259.701 206.579L260.204 206.661C260.051 214.911 259.544 223.186 259.124 231.435C258.902 235.45 258.687 239.47 258.578 243.49C251.117 240.997 241.532 237.453 234.137 234.948L230.194 233.591C217.558 229.292 207.435 225.9 195.617 223.186C191.058 222.134 186.25 221.195 180.935 220.327L175.284 219.336C174.501 219.2 173.932 218.519 173.938 217.726V197.758" stroke="black" stroke-width="1.80085"/>
<path d="M56.043 233.592C57.7913 220.062 58.5955 206.3 60.2914 192.691" stroke="black" stroke-width="1.80085"/>
<path d="M60.5713 190.561C61.0477 186.877 61.6115 183.194 62.3196 179.554C62.3458 179.375 62.3764 179.204 62.4158 179.039C62.8091 176.883 63.2462 174.74 63.727 172.597C65.1869 166.185 70.2832 161.493 73.9066 156.269L74.1295 155.71C81.9467 144.354 86.2745 130.966 86.5819 117.189C86.6693 112.204 86.4727 102.349 80.7513 100.315C77.5387 99.1673 74.1295 101.411 72.3506 103.973C71.62 105.03 71.0322 106.179 70.6023 107.39" stroke="black" stroke-width="1.80085"/>
<path d="M112.523 349.723C98.5668 310.154 105.184 266.928 105.184 266.928L84.6021 267.574L30.308 269.293C23.856 269.506 17.6286 266.915 13.2363 262.191C8.84412 257.467 6.71854 251.073 7.40937 244.664L23.5376 185.869" stroke="black" stroke-width="1.80085"/>
<path d="M24.3203 182.997L25.7364 177.847L27.3799 172.007" stroke="black" stroke-width="1.80085"/>
<path d="M28.7798 166.979L29.7195 163.605C30.9643 159.126 30.6562 154.358 28.8454 150.075L26.979 145.623C25.7596 141.914 25.3793 140.12 26.9091 136.493C27.6329 134.781 28.6489 133.209 29.9118 131.845C33.5964 127.785 38.7846 125.769 44.13 125.079C49.4755 124.39 55.3761 124.927 59.677 128.388C62.5967 130.736 65.359 136.327 63.449 139.98C62.0634 142.638 59.1306 143.411 56.6349 142.459C55.7614 142.133 54.9748 141.61 54.3359 140.932C51.3899 137.85 45.1572 137.178 42.9718 140.176" stroke="black" stroke-width="1.80085"/>
<path d="M258.457 248.392C258.457 247.296 258.497 246.209 258.54 245.101V245.013C258.54 244.512 258.566 243.992 258.597 243.49" stroke="black" stroke-width="1.80085"/>
<path d="M252.843 143.555C247.724 146.287 241.439 153.157 252.043 169.306C255.539 174.626 259.233 180.378 259.753 186.947C260.238 193.511 260.392 200.095 260.216 206.675" stroke="black" stroke-width="1.80085"/>
<path d="M203.207 274.041L215.375 276.197L216.25 276.35L221.831 277.345L278.743 287.441C281.561 287.952 284.451 287.914 287.253 287.327V287.327C297.266 285.222 304.564 276.588 304.959 266.377L296.55 197.631L294.688 182.958C294.097 178.343 295.089 173.664 297.503 169.685L299.998 165.539C299.998 165.539 304.343 159.21 296.742 158.747C292.647 158.507 288.385 159.62 284.683 161.296C282.568 162.235 279.596 163.915 278.402 166.224C277.917 167.098 277.753 168.114 277.939 169.096C278.813 173.604 284.495 175.507 288.245 173.604" stroke="black" stroke-width="1.80085"/>
<path d="M299.257 159.075C299.257 159.075 303.553 156.522 300.647 150.241C299.615 148.006 296.49 146.457 289.764 146.885C271.843 148.024 264.824 166.425 278.43 166.224" stroke="black" stroke-width="1.80085"/>
<path d="M295.172 146.854C299.15 141.381 292.113 136.144 286.986 136.323C282.152 136.493 277.261 138.278 273.025 140.513C267.134 143.62 259.528 149.639 261.705 157.255C262.348 159.499 267.431 162.27 270.753 160.668" stroke="black" stroke-width="1.80085"/>
<path d="M261.327 154.549C261.327 154.549 261.327 154.549 261.327 154.575C258.551 159.87 245.412 154.575 252.83 143.555C254.562 141.117 256.64 138.943 258.997 137.1C277.494 122.007 281.629 137.353 281.603 136.441" stroke="black" stroke-width="1.80085"/>
<path d="M269.379 160.79C269.379 160.79 276.145 165.591 274.069 173.591" stroke="black" stroke-width="1.80085"/>
<path d="M31.1647 122.387C30.7276 120.667 30.7844 118.498 31.8072 115.722C33.2802 111.733 37.5723 109.114 41.7508 107.39C43.2762 106.762 44.8103 106.242 46.1216 105.836C50.6803 104.44 55.6849 103.698 60.5452 104.187C62.1832 104.345 63.8029 104.655 65.3837 105.112C67.207 105.637 68.9519 106.403 70.5719 107.39C74.5668 109.843 77.2723 113.566 78.8982 118.454C80.3144 122.67 80.8607 127.681 77.3553 130.313" stroke="black" stroke-width="1.80085"/>
<path d="M77.675 186.415L76.3857 192.648C76.2992 193.071 76.0442 193.441 75.6791 193.673C75.314 193.905 74.8702 193.979 74.4494 193.878C69.4885 192.704 65.1396 191.613 60.5677 190.561C58.2993 190.029 55.9565 189.527 53.4739 189.008C43.7707 187.004 34.0807 184.743 24.325 182.998C20.2471 182.269 16.1648 181.636 12.0562 181.16C9.75716 180.894 7.42752 180.785 5.11537 180.615C4.60996 180.603 4.12023 180.437 3.71234 180.139C1.52694 178.541 3.71234 173.348 4.18876 171.191C4.18876 171.165 4.18876 171.135 4.18876 171.109C4.52531 169.454 14.0449 169.93 27.354 172.003C31.9958 172.732 37.0965 173.64 42.442 174.735C49.9554 176.276 56.7302 177.939 62.268 179.536C63.2208 179.816 64.1343 180.082 65.0041 180.348H65.0303C66.1361 180.697 67.1764 181.034 68.1554 181.37C74.3401 183.478 77.9023 185.311 77.675 186.415Z" fill="#E8B98B"/>
<path fill-rule="evenodd" clip-rule="evenodd" d="M77.678 186.415L76.3886 192.648C76.3022 193.071 76.0472 193.441 75.6821 193.673C75.317 193.905 74.8731 193.979 74.4523 193.878C69.4915 192.704 65.1425 191.613 60.5706 190.561C58.3022 190.029 55.9595 189.527 53.4768 189.008C43.7737 187.004 34.0836 184.743 24.328 182.998C20.25 182.269 16.1677 181.636 12.0591 181.16C9.76009 180.894 7.43045 180.785 5.1183 180.615C4.61288 180.603 4.12316 180.437 3.71527 180.139C1.52987 178.541 3.71527 173.348 4.19169 171.191C4.19169 171.165 4.19169 171.135 4.19169 171.109C4.52824 169.454 14.0478 169.93 27.3569 172.003C31.9987 172.732 37.0994 173.64 42.4449 174.735C49.9583 176.276 56.7331 177.939 62.2709 179.536C63.2237 179.816 64.1372 180.082 65.007 180.348H65.0332C66.139 180.697 67.1793 181.034 68.1584 181.37C74.343 183.478 77.9052 185.311 77.678 186.415V186.415Z" stroke="black" stroke-width="1.80085"/>
<path d="M64.0713 136.625L65.3126 139.108C66.8729 140.815 69.0321 141.893 71.9911 141.151C77.7956 139.71 78.3681 134.905 77.3585 130.314C77.185 129.48 76.9602 128.658 76.6854 127.852C75.3261 123.802 73.2237 120.541 70.2778 118.163C68.1846 116.47 65.7656 115.226 63.1709 114.505C61.0566 113.896 58.8752 113.548 56.6759 113.471C52.3545 113.322 48.0395 113.912 43.9175 115.217C39.7958 116.478 34.1575 118.647 31.1591 122.37C30.4875 123.188 29.9559 124.111 29.5857 125.102C28.6634 127.607 28.5061 129.637 28.8295 131.278L29.1398 132.806" stroke="black" stroke-width="1.80085"/>
<path d="M65.6744 105.209L67.1168 99.2422L68.8301 92.2153C69.319 90.1671 68.9334 88.0081 67.7654 86.255C66.5975 84.5019 64.7524 83.3124 62.6717 82.9712C62.2687 82.9045 61.8607 82.8724 61.4522 82.8752C57.8881 82.8666 54.8025 85.3457 54.0481 88.824C53.611 90.8579 53.0646 93.3326 52.4615 96.1216C51.8889 98.7665 51.2551 101.665 50.582 104.72" stroke="black" stroke-width="1.80085"/>
<path d="M48.553 114.099V114.086" stroke="black" stroke-width="1.20057"/>
<path d="M42.9877 140.173C42.5506 142.316 42.3014 143.664 42.3146 143.896V143.926C40.422 156.627 34.8536 163.418 28.7957 166.958C25.0903 169.063 20.9521 170.295 16.6973 170.559" stroke="black" stroke-width="1.80085"/>
<path d="M56.6711 142.455C56.6711 142.455 46.5221 169.467 62.3925 179.043C63.2316 179.546 64.1084 179.984 65.0149 180.352C66.1011 180.803 67.2223 181.163 68.3673 181.431" stroke="black" stroke-width="1.80085"/>
<path d="M75.5501 193.752C75.5501 193.752 75.62 195 60.2916 192.692C55.0467 191.906 47.9966 190.701 38.5163 188.881C32.572 187.747 27.633 186.738 23.5419 185.87C2.04634 181.278 3.71161 180.144 3.71161 180.144" stroke="black" stroke-width="1.80085"/>
<path d="M118.735 41.9145C115.465 59.22 104.696 77.4376 91.6358 89.1302C86.2947 93.9313 80.0838 97.2789 73.379 98.597C71.3216 99.0147 69.2282 99.2296 67.1287 99.2385L68.829 92.216C69.6905 88.6466 67.8729 84.9727 64.5106 83.4869C63.922 83.2345 63.3059 83.0514 62.6749 82.9413C62.2704 82.8745 61.861 82.8424 61.4511 82.8453C57.879 82.8393 54.7907 85.3316 54.0469 88.8204C53.7803 90.0948 53.4569 91.5395 53.1072 93.1194C36.4982 82.1557 29.2951 58.7049 30.0949 39.6624C30.3484 33.3338 30.6981 25.0019 33.4736 18.5598C34.4101 16.2638 35.8085 14.1841 37.5821 12.4494C45.4496 5.05587 56.2192 1.68207 67.3254 1.17578C75.8498 1.57724 84.239 3.45886 92.1166 6.73622C106.802 12.9295 122.126 23.9107 118.735 41.9145Z" fill="#E8B98B"/>
<path d="M118.735 41.9145C115.465 59.22 104.696 77.4376 91.6358 89.1302C86.2947 93.9312 80.0838 97.2789 73.379 98.597L74.9306 92.216C75.4195 90.1678 75.0338 88.0088 73.8659 86.2557C72.698 84.5025 70.8529 83.3131 68.7721 82.9719C68.3691 82.9052 67.9612 82.8731 67.5527 82.8758C66.4989 82.8715 65.4562 83.0902 64.4931 83.5174C63.9045 83.2651 63.2884 83.082 62.6574 82.9719C62.2529 82.905 61.8435 82.8729 61.4336 82.8758C57.8774 82.875 54.8018 85.3502 54.0469 88.8204C53.7803 90.0948 53.4569 91.5395 53.1072 93.1194C36.4982 82.1557 29.2951 58.7049 30.0949 39.6624C30.3484 33.3338 30.6981 25.0019 33.4736 18.5598C34.4101 16.2638 35.8085 14.1841 37.5821 12.4494C45.4496 5.05587 56.2192 1.68207 67.3254 1.17578C75.8498 1.57724 84.239 3.45886 92.1166 6.73622C106.802 12.9295 122.126 23.9107 118.735 41.9145Z" fill="#E8B98B"/>
<path fill-rule="evenodd" clip-rule="evenodd" d="M118.738 41.9177C115.473 59.2232 104.703 77.4408 91.639 89.1334C84.6457 95.3922 76.2057 99.1981 67.1188 99.2417L68.8322 92.2148C69.3211 90.1666 68.9354 88.0076 67.7675 86.2545C66.5996 84.5014 64.7544 83.3119 62.6737 82.9707C62.2707 82.904 61.8627 82.8719 61.4542 82.8747C57.8902 82.8661 54.8046 85.3452 54.0501 88.8236C53.613 90.8574 53.0667 93.3321 52.4635 96.1211C31.9645 87.0472 23.1136 60.6809 24.0009 39.6656C24.25 33.337 24.5997 25.0051 27.3795 18.563C28.3144 16.2661 29.713 14.1861 31.4881 12.4526C46.9651 -2.08132 73.5963 -1.07748 92.1198 6.73943C106.801 12.9327 122.13 23.9096 118.738 41.9177V41.9177Z" stroke="black" stroke-width="1.80085"/>
<path d="M118.649 42.541C122.185 46.7659 125.503 53.8452 122.583 64.3638C122.134 66.0232 121.492 67.6243 120.669 69.1342C116.027 77.4269 107.067 78.8803 101.026 78.793" stroke="black" stroke-width="1.80085"/>
<path d="M115.958 51.3887C119.018 55.0462 121.845 60.8379 120.665 69.1437C120.478 70.4771 120.202 71.7967 119.839 73.0936C115.468 88.7711 99.4232 87.9985 93.916 87.2347" stroke="black" stroke-width="1.80085"/>
<path d="M30.2699 73.0108C26.8519 73.7135 7.51111 69.7505 7.27508 53.6496C7.20575 51.4672 7.61758 49.2963 8.48142 47.2905C11.5104 40.473 19.5002 38.317 24.1027 37.6143" stroke="black" stroke-width="1.80085"/>
<path d="M26.7875 64.9413C23.2909 65.1552 4.71062 58.5341 6.72556 42.5555C6.96587 40.3912 7.67746 38.3057 8.81043 36.4451C12.7441 30.1122 20.9787 29.0952 25.6293 29.0254" stroke="black" stroke-width="1.80085"/>
<path d="M105.187 266.932C105.187 266.932 105.584 263.898 107.77 257.046" stroke="black" stroke-width="1.80085"/>
<path d="M177.069 219.628V219.659C176.912 230.094 169.639 232.46 163.664 233.595C148.939 236.406 138.715 225.682 139.166 216.342" stroke="black" stroke-width="1.80085"/>
<path d="M141.958 162.209C141.958 162.209 142.395 167.01 138.212 173.203C137.093 174.871 140.966 175.556 141.888 175.866" stroke="black" stroke-width="1.80085"/>
<ellipse rx="8.98546" ry="7.30974" transform="matrix(0.500537 -0.865715 0.866335 0.499464 152.493 168.948)" stroke="black" stroke-width="1.80085"/>
<ellipse rx="9.01639" ry="7.33493" transform="matrix(0.49882 -0.866706 0.867322 0.497748 135.108 163.391)" stroke="black" stroke-width="1.80706"/>
<path fill-rule="evenodd" clip-rule="evenodd" d="M128.631 160.93C130.213 158.172 132.892 156.565 135.418 156.565V156.57C135.421 156.57 135.423 156.57 135.425 156.57C136.381 156.565 137.321 156.812 138.15 157.286C141.227 159.031 141.953 163.549 139.767 167.324C138.181 170.078 135.501 171.689 132.975 171.689C132.017 171.695 131.074 171.446 130.243 170.968C127.166 169.223 126.445 164.71 128.631 160.93ZM137.506 158.42C136.873 158.056 136.155 157.868 135.425 157.875C133.262 157.875 131.076 159.328 129.765 161.572C128.874 163.049 128.518 164.787 128.755 166.495C128.921 167.881 129.711 169.115 130.901 169.847C131.534 170.21 132.252 170.396 132.982 170.388C135.145 170.388 137.331 168.939 138.642 166.691C139.533 165.215 139.889 163.479 139.652 161.772C139.488 160.386 138.697 159.151 137.506 158.42Z" fill="white"/>
<path d="M141.898 163.794C141.898 163.794 143.21 161.843 146.169 165.296" stroke="black" stroke-width="1.80085"/>
<ellipse rx="2.12229" ry="1.79982" transform="matrix(0.607369 -0.79442 0.795257 0.606273 153.335 167.471)" fill="#353642"/>
<ellipse rx="2.1223" ry="1.79983" transform="matrix(0.607371 -0.794418 0.795258 0.606271 138.584 163.232)" fill="#353642"/>
<path d="M150.88 183.647C141.929 191.242 137.23 184.477 137.23 184.477" stroke="black" stroke-width="1.80085"/>
<path d="M56.043 227.302C63.7837 225.919 71.5943 224.836 79.265 223.422C83.0064 222.735 86.7449 222.069 90.4805 221.423C107.125 218.595 123.742 216.395 140.57 216.325C142.25 216.326 143.673 215.089 143.905 213.427L144.215 211.101L145.5 200" stroke="black" stroke-width="1.80085"/>
<path d="M173.917 197.758V197.688V193" stroke="black" stroke-width="1.80085"/>
<path d="M216.249 276.351C216.249 276.351 218.312 296.838 221.38 316.845C223.4 330.008 225.869 342.958 228.448 349.723" stroke="black" stroke-width="1.80085"/>
</svg>
