<svg width="597" height="383" viewBox="0 0 597 383" fill="none" xmlns="http://www.w3.org/2000/svg">
<path d="M244.5 73.3746C244.5 73.3746 217.5 58.3748 180.877 95.7458C146.422 141.944 197.943 178.025 152.679 205.208C107.414 232.391 142.372 284.556 101.332 301.886C49.5 329.875 21.5 295.375 2 270.375" stroke="#343438" stroke-width="4"/>
<path fill-rule="evenodd" clip-rule="evenodd" d="M185.757 308.357C186.785 305.646 187.814 302.935 188.821 300.224L188.934 299.946C200.363 269.645 211.808 239.36 223.269 209.091C226.87 199.546 230.647 189.707 237.788 182.418C252.671 167.253 278.933 168.697 295.91 181.632L296.039 181.739L296.152 181.814C298.083 183.308 299.888 184.959 301.546 186.75C307.839 193.514 312.452 201.659 315.015 210.529C319.403 225.64 319.585 241.998 316.354 257.991C315.717 261.232 314.908 264.435 313.992 267.616C309.227 283.954 301.183 299.154 290.349 312.293C298.868 314.122 307.42 315.869 316.006 317.533C362.255 326.481 408.657 334.577 455.213 341.821C483.222 346.2 512.896 350.911 540.98 354.654L551.695 355.975C554.071 356.273 556.456 355.488 558.188 353.836L575.717 336.623C580.177 332.393 587.111 332.185 591.816 336.142L595.963 340.42C583.593 353.483 575.519 362.969 563.149 376.033C561.349 377.936 559.495 379.877 557.09 380.92C554.684 381.963 551.973 381.989 549.348 381.989H534.004C521.029 381.989 508.046 381.989 495.056 381.989L232.045 382.043C221.271 382.043 210.133 381.973 200.254 377.669C195.488 375.566 191.199 372.519 187.648 368.712" fill="white"/>
<path d="M185.757 308.357C186.785 305.646 187.814 302.935 188.821 300.224L188.934 299.946C200.363 269.645 211.808 239.36 223.269 209.091C226.87 199.546 230.647 189.707 237.788 182.418C252.671 167.253 278.933 168.697 295.91 181.632L296.039 181.739L296.152 181.814C298.083 183.308 299.888 184.959 301.546 186.75C307.839 193.514 312.452 201.659 315.015 210.529C319.403 225.64 319.585 241.998 316.354 257.991C315.717 261.232 314.908 264.435 313.992 267.616C309.227 283.954 301.183 299.154 290.349 312.293C298.868 314.122 307.42 315.869 316.006 317.533C362.255 326.481 408.657 334.577 455.213 341.821C483.222 346.2 512.896 350.911 540.98 354.654L551.695 355.975C554.071 356.273 556.456 355.488 558.188 353.836L575.717 336.623C580.177 332.393 587.111 332.185 591.816 336.142L595.963 340.42C583.593 353.483 575.519 362.969 563.149 376.033C561.349 377.936 559.495 379.877 557.09 380.92C554.684 381.963 551.973 381.989 549.348 381.989H534.004C521.029 381.989 508.046 381.989 495.056 381.989L232.045 382.043C221.271 382.043 210.133 381.973 200.254 377.669C195.488 375.566 191.199 372.519 187.648 368.712" stroke="black" stroke-width="1.29528"/>
<rect width="293.988" height="281.529" rx="21.2612" transform="matrix(-1 0 0 1 545.391 8.79785)" fill="url(#paint0_linear_2012_69458)"/>
<rect x="2.5" y="-2.5" width="308.136" height="295.813" rx="25.1724" transform="matrix(-1 0 0 1 554.489 5)" stroke="white" stroke-width="5"/>
<rect width="282.427" height="270.455" rx="21.2612" transform="matrix(-1 0 0 1 539.611 14.332)" fill="url(#paint1_linear_2012_69458)"/>
<path fill-rule="evenodd" clip-rule="evenodd" d="M349.691 28.5298H290.556C282.498 28.5298 275.962 35.5347 275.962 44.1599V201.835C275.962 210.476 282.519 217.487 290.556 217.487H349.691C357.727 217.487 364.258 210.476 364.258 201.835V44.1599C364.258 35.5347 357.727 28.5298 349.691 28.5298ZM294.999 210.477C288.281 210.477 282.848 204.653 282.848 197.445L282.859 48.5877C282.859 41.3849 288.291 35.5564 295.01 35.5564H345.241C351.959 35.5564 357.391 41.3849 357.391 48.5877V197.445C357.391 204.653 351.959 210.477 345.241 210.477H294.999Z" fill="url(#paint2_linear_2012_69458)"/>
<path d="M423.857 227.565L510.524 226.32C512.466 226.287 514.014 224.691 513.985 222.753C513.985 222.432 513.938 222.113 513.845 221.806C513.39 220.302 511.992 219.279 510.417 219.299L423.75 220.571C424.408 221.572 424.778 222.733 424.821 223.929C424.856 225.209 424.521 226.471 423.857 227.565V227.565Z" fill="#E8B98B"/>
<path opacity="0.2" d="M402.852 225.299C403.306 226.805 404.7 227.833 406.276 227.823L412.533 227.732C411.167 225.601 411.125 222.882 412.426 220.711L406.168 220.802C404.227 220.837 402.678 222.43 402.702 224.368C402.706 224.684 402.757 224.998 402.852 225.299V225.299Z" fill="#F3DCC5"/>
<path opacity="0.2" d="M403.055 239.228C403.507 240.732 404.901 241.755 406.473 241.736L492.604 240.48C491.648 239.35 491.104 237.931 491.061 236.453C491.02 235.429 491.224 234.41 491.656 233.48L406.377 234.71C404.437 234.748 402.892 236.341 402.916 238.276C402.916 238.599 402.963 238.919 403.055 239.228Z" fill="#F3DCC5"/>
<path d="M502.96 240.324L510.723 240.222C512.662 240.196 514.213 238.607 514.189 236.672C514.188 236.346 514.139 236.021 514.045 235.709C513.599 234.206 512.203 233.184 510.632 233.212L503.716 233.324C504.115 234.162 504.341 235.071 504.38 235.998C504.44 237.563 503.936 239.097 502.96 240.324V240.324Z" fill="#E8B98B"/>
<path d="M429.992 255.473L510.407 254.307C512.343 254.261 513.883 252.673 513.868 250.741C513.864 250.425 513.813 250.111 513.718 249.81C513.265 248.303 511.871 247.275 510.294 247.286L430.003 248.468C431.343 250.611 431.343 253.33 430.003 255.473H429.992Z" fill="#E8B98B"/>
<path opacity="0.2" d="M402.714 253.318C403.166 254.827 404.571 255.851 406.149 255.821L418.755 255.628L430.005 255.473C431.345 253.33 431.345 250.612 430.005 248.468L418.562 248.639L406.047 248.816C404.111 248.848 402.565 250.434 402.586 252.366C402.579 252.688 402.623 253.009 402.714 253.318V253.318Z" fill="#F3DCC5"/>
<path d="M412.523 227.731C414.14 230.26 417.255 231.395 420.125 230.5C422.994 229.604 424.907 226.901 424.792 223.902C424.732 222.138 423.971 220.47 422.678 219.266C421.384 218.063 419.664 217.422 417.897 217.485C416.128 217.542 414.456 218.301 413.249 219.592C412.043 220.884 411.402 222.602 411.468 224.367C411.513 225.562 411.877 226.723 412.523 227.731Z" fill="white"/>
<path opacity="0.72" d="M415.036 223.645C415.182 224.445 415.554 225.187 416.107 225.783C416.375 226.087 416.671 226.364 416.991 226.612C417.163 226.735 418.063 227.468 418.256 227.377C419.456 226.773 420.977 225.238 421.165 223.757C421.194 223.524 421.194 223.289 421.165 223.056C421.026 222.217 420.287 221.609 419.434 221.634C418.895 221.659 418.398 221.934 418.09 222.377C417.608 221.777 416.785 221.568 416.075 221.866C415.364 222.164 414.938 222.897 415.031 223.661L415.036 223.645Z" fill="white"/>
<path d="M492.596 240.479C493.885 242.019 495.801 242.896 497.811 242.866C499.821 242.835 501.71 241.901 502.952 240.324C503.931 239.093 504.435 237.552 504.372 235.982C504.332 235.055 504.106 234.146 503.707 233.308C502.554 230.943 500.116 229.477 497.482 229.565C494.948 229.641 492.682 231.161 491.653 233.474C491.221 234.403 491.018 235.423 491.059 236.447C491.099 237.926 491.641 239.347 492.596 240.479Z" fill="white"/>
<path opacity="0.72" d="M494.614 235.734C494.76 236.534 495.132 237.276 495.685 237.873C495.953 238.179 496.251 238.457 496.575 238.702C496.746 238.825 497.646 239.563 497.834 239.467C499.039 238.863 500.555 237.328 500.743 235.847C500.772 235.614 500.772 235.379 500.743 235.146C500.602 234.308 499.864 233.701 499.012 233.724C498.473 233.749 497.976 234.024 497.668 234.467C497.185 233.865 496.361 233.656 495.65 233.956C494.938 234.256 494.513 234.991 494.609 235.756L494.614 235.734Z" fill="white"/>
<path d="M418.754 255.627C420.399 258.114 423.499 259.207 426.345 258.305C429.19 257.402 431.089 254.724 430.995 251.745C430.951 250.585 430.608 249.456 429.999 248.467C428.758 246.486 426.57 245.296 424.229 245.331C421.888 245.366 419.736 246.621 418.556 248.638C417.918 249.722 417.606 250.966 417.655 252.221C417.702 253.436 418.082 254.614 418.754 255.627Z" fill="white"/>
<path opacity="0.72" d="M421.222 251.499C421.366 252.3 421.738 253.043 422.294 253.638C422.562 253.943 422.86 254.221 423.183 254.467C423.355 254.595 424.255 255.328 424.442 255.232C425.648 254.628 427.164 253.093 427.351 251.612C427.383 251.379 427.383 251.144 427.351 250.911C427.243 250.226 426.725 249.678 426.047 249.529C425.368 249.38 424.668 249.661 424.281 250.237C423.797 249.64 422.976 249.434 422.267 249.731C421.557 250.028 421.129 250.758 421.217 251.521L421.222 251.499Z" fill="white"/>
<path d="M514.645 163.324L514.495 183.831C514.418 191.259 508.482 197.304 501.042 197.53L480.684 197.883C477.156 197.928 473.76 196.548 471.268 194.055C468.775 191.562 467.399 188.17 467.451 184.649L467.607 164.147C467.672 156.71 473.611 150.653 481.059 150.426L501.417 150.068C504.948 150.024 508.346 151.408 510.838 153.905C513.33 156.403 514.703 159.8 514.645 163.324V163.324Z" fill="white"/>
<path d="M511.52 168.469L511.413 183.313C511.344 189.767 506.187 195.019 499.723 195.216L482.044 195.521C478.977 195.566 476.022 194.37 473.853 192.205C471.684 190.04 470.485 187.091 470.531 184.03V183.024C473.011 177.96 477.843 170.383 482.997 174.912C490.428 181.431 493.83 176.469 498.159 170.073C501.807 164.721 507.304 160.812 511.52 168.469V168.469Z" fill="#E8B98B"/>
<ellipse rx="4.87243" ry="4.99726" transform="matrix(-0.833404 -0.552664 -0.554119 0.832437 481.056 162.264)" fill="#E8B98B"/>
<path d="M503.683 46.6118C498.877 46.6073 494.589 49.6369 492.978 54.1756C491.366 58.7142 492.781 63.7781 496.509 66.8181L470.683 113.253C470.5 113.224 470.315 113.206 470.13 113.197C469.656 113.204 469.185 113.278 468.731 113.415L449.379 89.3263C451.13 86.8794 451.233 83.6142 449.638 81.0619C448.044 78.5095 445.069 77.1762 442.108 77.687C439.147 78.1979 436.788 80.4517 436.137 83.3915C435.485 86.3314 436.671 89.3743 439.138 91.0933L425.584 129.763C423.14 129.906 421.136 131.759 420.796 134.19C420.456 136.62 421.875 138.954 424.186 139.765C426.497 140.577 429.058 139.641 430.306 137.528C431.554 135.416 431.141 132.715 429.32 131.074L442.877 92.4047C443.043 92.4047 443.205 92.4285 443.371 92.4285C444.381 92.4289 445.38 92.2226 446.308 91.8223L465.644 115.907C464.786 117.489 464.825 119.407 465.746 120.953C466.667 122.499 468.334 123.442 470.13 123.435C472.087 123.445 473.877 122.329 474.734 120.565C475.59 118.801 475.362 116.7 474.146 115.163L499.972 68.7436C504.234 70.2224 508.964 69.0321 512.024 65.7112C515.084 62.3903 515.893 57.5688 514.084 53.4276C512.276 49.2864 508.193 46.6111 503.683 46.6118V46.6118Z" fill="white"/>
<path d="M164.307 248.308C164.345 248.142 164.382 247.981 164.436 247.816C166.167 241.637 169.73 236.125 174.658 232.004C174.717 231.972 174.786 231.913 174.845 231.875C175.3 231.549 175.777 231.234 176.254 230.924C176.897 230.523 177.561 230.138 178.22 229.753C178.276 229.714 178.338 229.683 178.402 229.662C180.953 228.476 183.381 227.043 185.651 225.384L185.764 225.309C188.828 223.277 191.598 220.913 193.51 217.636C193.554 217.566 193.589 217.493 193.617 217.416C193.655 217.416 193.655 217.358 193.671 217.341C195.434 214.668 196.5 211.738 196.28 208.695V208.604C196.816 203.642 196.28 198.417 196.484 193.38C196.484 193.07 196.484 192.76 196.537 192.445C196.591 192.129 196.591 191.749 196.612 191.439C196.593 191.337 196.593 191.232 196.612 191.129C196.685 190.133 196.814 189.143 196.998 188.161C198.739 178.745 204.798 170.355 212.213 164.441C212.381 164.298 212.56 164.169 212.749 164.056C221.063 157.971 230.166 155.607 236.128 154.693C236.184 154.685 236.239 154.685 236.295 154.693C238.534 154.527 240.661 154.564 242.627 154.121C242.665 154.121 242.702 154.121 242.718 154.121C244.919 153.695 246.882 152.467 248.226 150.677C248.734 150.026 249.187 149.334 249.581 148.608C249.636 148.567 249.676 148.508 249.693 148.442C251.237 146.044 252.256 143.347 252.683 140.528C252.736 140.255 252.811 139.993 252.849 139.72C254.135 133.624 254.172 126.994 254.204 121.513C254.703 113.07 258.464 102.188 265 94.4396C265 94.4396 265 94.4022 265.037 94.4022C266.932 92.5101 269.066 90.8725 271.386 89.5308C277.251 86.2529 283.984 84.8529 290.672 85.5203C290.672 85.5203 290.672 85.5203 290.71 85.5203C290.72 85.517 290.731 85.517 290.742 85.5203C294.856 85.8674 298.843 87.1182 302.416 89.1832C303.729 89.9363 304.972 90.806 306.128 91.782C313.093 97.7496 317.084 107.075 318.188 116.273C318.279 116.984 318.333 117.684 318.37 118.411C318.389 118.496 318.389 118.584 318.37 118.668C319.239 119.85 319.754 121.254 319.854 122.716C320.056 126.035 318.209 129.142 315.193 130.555V130.7V132.149C315.086 135.402 314.376 138.607 313.098 141.603C310.955 146.656 307.136 152.426 300.658 153.34C299.507 153.504 298.349 153.609 297.187 153.655L294.122 166.735L291.497 178.071C280.049 171.569 265.878 169.606 253.787 173.403H253.749C248.088 175.115 242.946 178.212 238.791 182.413C225.355 193.348 210.231 245.393 209.325 248.618C209.322 248.656 209.309 248.693 209.288 248.725C209.288 248.725 209.288 248.725 209.288 248.762C209.288 248.8 209.288 248.816 209.25 248.853C209.212 249.005 209.156 249.152 209.084 249.291C209.031 249.457 208.972 249.623 208.902 249.789L208.516 250.778C205.838 257.681 197.191 280.188 195.268 285.744C192.969 292.305 191.174 292.818 191.174 292.818C191.076 292.796 190.982 292.758 190.896 292.706L190.532 292.562C184.729 290.216 179.348 286.943 174.599 282.872C174.561 282.872 174.561 282.872 174.561 282.835C170.164 278.373 166.975 272.87 165.293 266.841C163.437 260.839 163.099 254.472 164.307 248.308V248.308Z" fill="white"/>
<path d="M312.337 114.151C312.337 114.151 310.938 90.7722 289.064 85.2752C267.19 79.7782 254.15 105.156 253.169 121.428C252.189 137.7 253.169 148.935 241.672 154.047C241.672 154.047 208.456 153.646 196.231 184.114C196.231 184.114 194.575 199.033 195.25 208.637C195.925 218.241 183.919 226.663 177.378 229.63C170.837 232.598 159.463 244.656 162.554 264.35C165.645 284.044 190.145 292.803 190.145 292.803C190.145 292.803 191.95 292.268 194.243 285.718C196.536 279.168 208.274 248.779 208.274 248.779C208.274 248.779 223.913 193.702 237.794 182.43C245.433 176.216 253.625 173.404 259.02 170.131C264.704 166.682 267.436 162.88 269.333 160.442C273.035 155.688 279.597 148.507 274.851 131.567C270.104 114.626 274.888 123.166 279.356 120.781C279.356 120.781 284.896 112.226 293.253 118.279C301.611 124.332 299.575 109.595 299.575 109.595L303.245 114.525C303.245 114.525 308.999 115.664 312.337 114.151H312.337Z" fill="#E8B98B"/>
<path d="M532.242 381.925H549.353C551.979 381.925 554.673 381.925 557.095 380.856C559.516 379.787 561.381 377.872 563.154 375.969C575.519 362.943 583.593 353.457 595.963 340.393L591.816 336.115C587.111 332.159 580.177 332.366 575.717 336.597L558.193 353.777L532.242 381.925Z" fill="url(#paint3_linear_2012_69458)"/>
<path d="M290.392 312.705C298.903 314.541 307.456 316.288 316.049 317.945C326.182 319.906 336.318 321.824 346.458 323.699L355.913 312.154L371.45 328.239C399.33 333.23 427.263 337.907 455.25 342.27L455.122 342.142L381.956 268.451C371.76 258.174 356.654 254.466 342.847 258.853L314.029 268.028C309.267 284.366 301.225 299.567 290.392 312.705V312.705Z" fill="white"/>
<path d="M311.783 210.957C315.4 223.454 316.246 236.753 314.757 250.03C314.4 253.434 313.864 256.821 313.15 260.19C312.491 263.559 311.644 266.874 310.691 270.189C306.364 285.014 299.437 298.954 290.231 311.363C290.595 311.438 290.943 311.529 291.259 311.599C301.647 298.713 309.383 283.906 314.023 268.029C314.944 264.821 315.748 261.612 316.391 258.404C317.034 255.195 317.569 251.885 317.934 248.608C319.364 235.801 318.539 222.978 315.051 210.941C312.489 202.074 307.875 193.93 301.583 187.167C300.013 185.467 298.307 183.897 296.483 182.472L296.392 182.403L296.097 182.184L295.968 182.071C294.247 180.765 292.437 179.579 290.552 178.521C286.434 176.179 282.004 174.433 277.394 173.334C280.506 174.386 283.511 175.73 286.368 177.35C288.324 178.452 290.202 179.689 291.988 181.05L292.116 181.157L292.411 181.376H292.443L292.534 181.446C294.426 182.918 296.195 184.542 297.822 186.301C304.339 193.32 309.121 201.764 311.783 210.957V210.957Z" fill="#2E2E2E"/>
<path fill-rule="evenodd" clip-rule="evenodd" d="M273.528 241.487C238.115 293.943 182.846 375.809 182.846 375.809C180.25 379.654 175.91 381.961 171.264 381.963H131.346C128.091 381.963 125.453 379.33 125.453 376.081C125.453 372.833 128.091 370.199 131.346 370.199H150.172C156.392 370.2 161.99 366.432 164.321 360.676C164.321 360.676 192.537 289.596 210.617 243.05" fill="white"/>
<path d="M273.528 241.487C238.115 293.943 182.846 375.809 182.846 375.809C180.25 379.654 175.91 381.961 171.264 381.963H131.346C128.091 381.963 125.453 379.33 125.453 376.081C125.453 372.833 128.091 370.199 131.346 370.199H150.172C156.392 370.2 161.99 366.432 164.321 360.676C164.321 360.676 192.537 289.596 210.617 243.05" stroke="black" stroke-width="1.29528"/>
<path d="M254.004 272.883C254.004 272.883 240.988 290.205 226.887 312.94C241.716 306.951 270.869 309.139 282.923 310.39C284.524 310.467 286.118 310.646 287.696 310.925C287.796 310.926 287.894 310.939 287.991 310.962C288.027 310.966 288.063 310.966 288.098 310.962C288.87 311.112 289.588 311.24 290.241 311.384C299.447 298.976 306.375 285.035 310.701 270.21C311.655 266.895 312.501 263.58 313.16 260.211C313.819 256.842 314.392 253.447 314.767 250.051C316.257 236.774 315.41 223.475 311.794 210.979C309.125 201.783 304.336 193.339 297.811 186.322C296.184 184.563 294.415 182.939 292.523 181.467L292.432 181.397H292.4L292.106 181.178L291.977 181.071C290.191 179.71 288.314 178.473 286.357 177.371C283.5 175.751 280.495 174.407 277.383 173.355C269.197 171.377 260.593 171.435 252.83 173.89H252.793C248.223 176.146 242.898 178.783 237.835 182.905C230.694 190.194 226.917 200.017 223.316 209.578C218.345 222.767 213.359 235.943 208.358 249.105C208.356 249.145 208.343 249.183 208.321 249.217C208.321 249.217 208.321 249.217 208.321 249.254C208.321 249.292 208.321 249.308 208.283 249.345C208.245 249.497 208.189 249.644 208.117 249.784C208.066 249.953 208.005 250.119 207.935 250.281C241.001 243.383 254.004 272.883 254.004 272.883Z" fill="url(#paint4_linear_2012_69458)"/>
<path d="M296.486 182.472C298.312 183.889 300.019 185.452 301.591 187.145C307.884 193.908 312.497 202.052 315.06 210.919C318.548 222.956 319.373 235.779 317.942 248.586C318.366 248.821 318.805 249.024 319.244 249.243C328.459 253.73 338.643 257.029 348.994 256.954C360.481 256.828 371.342 251.713 378.744 242.944C384.524 236.11 388.178 227.849 390.878 219.416C393.723 210.513 395.887 201.572 399.412 192.91C401.668 187.391 403.923 181.199 408.788 177.317C411.284 175.339 414.408 174.643 416.883 172.665C419.512 170.556 421.417 167.681 422.331 164.441C422.736 163.045 422.994 161.612 423.103 160.163C423.564 154.447 422.031 148.474 420.151 143.18L429.746 136.731C432.355 134.972 433.496 131.165 431.953 128.432C431.059 126.852 429.516 125.742 427.732 125.395C426.077 125.08 424.365 125.457 422.996 126.438L403.173 140.651C403.173 140.651 401.646 135.726 396.969 137.245C392.598 138.672 377.034 144.774 377.57 163.607C377.644 166.477 376.885 169.307 375.384 171.756L356.773 202.492C354.106 206.889 349.699 209.954 344.642 210.928C339.586 211.903 334.352 210.695 330.238 207.604L297.659 183.354L296.486 182.472Z" fill="white"/>
<path d="M290.385 191.102L312.35 245.324L318.002 247.96L327.421 252.339C319.878 221.544 330.228 207.187 330.228 207.187L302.954 186.867C302.552 187.017 302.15 187.145 301.727 187.29C296.112 189.14 290.385 191.102 290.385 191.102V191.102Z" fill="url(#paint5_linear_2012_69458)"/>
<path d="M278.886 309.636C288.449 311.999 280.739 310.208 290.356 312.277" stroke="black" stroke-width="1.29528"/>
<path d="M187.84 301.031C199.269 270.73 211.808 239.361 223.269 209.091C226.87 199.547 230.647 189.708 237.788 182.419C252.671 167.254 278.933 168.698 295.91 181.633L296.039 181.74L296.152 181.815C298.083 183.309 299.888 184.96 301.546 186.751C307.839 193.515 312.452 201.66 315.015 210.53C319.403 225.641 319.585 241.999 316.354 257.992C315.717 261.233 314.908 264.436 313.992 267.617C309.227 283.955 301.183 299.155 290.349 312.294C298.868 314.123 307.42 315.869 316.006 317.534C362.255 326.482 408.657 334.578 455.213 341.822C483.222 346.201 512.896 350.912 540.98 354.655L551.695 355.976C554.071 356.274 556.456 355.489 558.188 353.837L575.717 336.624C580.177 332.393 587.111 332.186 591.816 336.143L595.963 340.421C583.593 353.484 575.519 362.97 563.149 376.033C561.349 377.937 559.495 379.878 557.09 380.921C554.684 381.964 551.973 381.99 549.348 381.99H534.004C521.029 381.99 508.046 381.99 495.056 381.99L232.045 382.044C221.271 382.044 210.133 381.974 200.254 377.67C195.488 375.567 191.199 372.52 187.648 368.713" stroke="black" stroke-width="1.29528"/>
<path d="M455.218 341.821L455.09 341.693L381.918 268.029C371.723 257.751 356.622 254.034 342.809 258.404L313.997 267.585" stroke="black" stroke-width="1.29528"/>
<path d="M185.504 308.448L185.76 308.357" stroke="black" stroke-width="1.29528"/>
<path d="M346.312 323.395L355.869 311.727L371.572 327.951" stroke="black" stroke-width="1.29528"/>
<path d="M236.45 184.14V184.124" stroke="black" stroke-width="1.29528"/>
<path d="M173.049 371.391C170.645 371.302 168.237 371.379 165.843 371.621C163.888 371.819 161.847 371.936 159.998 372.845C158.461 373.605 156.859 375.428 156.939 377.658C157.084 382.011 161.654 381.979 164.156 381.979" stroke="black" stroke-width="1.29528"/>
<path d="M172.092 381.964H164.163H164.051H139.776" stroke="black" stroke-width="1.29528"/>
<path d="M317.915 248.164C317.915 248.164 317.968 248.164 317.99 248.201C318.392 248.42 318.799 248.618 319.217 248.821C321.89 250.135 324.629 251.309 327.424 252.34C334.324 254.923 341.611 256.618 348.966 256.532C360.454 256.405 371.317 251.29 378.721 242.522C384.502 235.689 388.15 227.427 390.85 218.994C393.695 210.091 395.86 201.15 399.385 192.488C401.64 186.975 403.901 180.783 408.76 176.895C411.257 174.917 414.38 174.222 416.855 172.243C419.484 170.133 421.39 167.259 422.309 164.019C422.709 162.623 422.966 161.189 423.075 159.741C423.536 154.025 422.004 148.057 420.123 142.764L429.724 136.315C432.328 134.555 433.474 130.748 431.926 128.016C431.031 126.436 429.489 125.326 427.704 124.979C426.049 124.664 424.337 125.041 422.968 126.021L403.146 140.234C403.146 140.234 401.619 135.309 396.942 136.828C392.576 138.256 377.012 144.357 377.543 163.19C377.617 166.06 376.858 168.89 375.357 171.339L356.751 202.081C354.083 206.471 349.679 209.53 344.628 210.503C339.577 211.475 334.35 210.271 330.237 207.188L302.962 186.868L297.658 182.932L296.373 181.98L296.078 181.761L295.949 181.654" stroke="black" stroke-width="1.29528"/>
<path d="M403.095 140.186C403.095 140.186 406.186 147.699 395.525 152.704" stroke="black" stroke-width="1.29528"/>
<path d="M421.823 148.415C421.823 148.415 422.895 157.505 410.792 160.901C406.506 162.104 403.035 157.158 405.644 153.564L405.772 153.399" stroke="black" stroke-width="1.29528"/>
<path d="M423.101 159.64C423.101 159.64 419.062 167.538 412.387 166.661C406.494 165.885 408.636 160.137 408.636 160.137" stroke="black" stroke-width="1.29528"/>
<path d="M420.112 142.715L413.078 147.447" stroke="black" stroke-width="1.29528"/>
<path d="M191.48 293.262C177.926 289.049 168.341 280.605 164.259 266.847C160.348 253.66 162.893 238.667 175.247 230.934C181.402 227.122 188.673 224.143 192.492 217.614C197.705 208.684 194.191 197.792 195.991 188.13C197.86 178.098 204.622 169.211 212.727 163.254C218.735 158.861 225.721 155.988 233.085 154.88C238.523 154.062 243.473 155.415 247.191 150.602C253.085 143.004 253.127 130.587 253.176 121.438C253.208 114.412 254.869 107.418 258.49 101.391L258.571 101.258C261.444 96.3997 265.498 92.3428 270.357 89.4615C279.464 84.1998 292.242 83.7132 301.43 89.1246C302.741 89.9065 303.982 90.8011 305.137 91.7983C313.629 99.0545 317.69 111.316 317.491 122.235" stroke="black" stroke-width="1.29528"/>
<ellipse rx="7.9478" ry="8.14136" transform="matrix(-0.68714 -0.726525 -0.727822 0.685766 310.978 123.449)" fill="#E8B98B" fill-opacity="0.5"/>
<ellipse rx="7.98526" ry="8.17883" transform="matrix(-0.687141 -0.726524 -0.727823 0.685765 287.253 125.612)" fill="#E8B98B" fill-opacity="0.5"/>
<path d="M300.234 108.888C300.705 112.097 302.666 115.07 306.127 115.963C310.059 116.957 312.143 120.775 313.247 124.615C314.818 130.244 314.412 136.241 312.095 141.608C309.952 146.656 306.122 152.431 299.65 153.372C287.805 155.057 281.917 150.073 281.917 150.073" stroke="black" stroke-width="1.29528"/>
<ellipse rx="2.0358" ry="2.03197" transform="matrix(-1 0 0 1 290.363 124.037)" fill="black"/>
<ellipse rx="2.03578" ry="2.03196" transform="matrix(-1 0 0 1 308.251 122.695)" fill="black"/>
<path d="M300.236 108.888C300.691 110.819 300.623 112.837 300.038 114.733C299.946 115.042 299.828 115.342 299.684 115.631C298.275 118.946 294.991 121.583 289.173 121.256C276.508 120.556 271.992 119.732 273.021 125.561C273.449 127.609 274.064 129.614 274.858 131.55C276.251 135.229 277.221 141.571 275.79 148.458V148.495C274.14 156.554 264.609 169.275 251.419 173.852" stroke="black" stroke-width="1.29528"/>
<path d="M299.12 124.529C299.12 124.529 301.263 132.326 301.043 133.475C300.823 134.625 298.091 133.737 298.091 133.737" stroke="black" stroke-width="1.29528"/>
<path d="M297.645 140.876C293.557 143.08 288.821 141.689 286.967 138.005" stroke="black" stroke-width="1.29528"/>
<ellipse rx="9.26441" ry="9.49023" transform="matrix(-0.687141 -0.726524 -0.727823 0.685765 287.261 125.619)" stroke="black" stroke-width="1.29528"/>
<ellipse rx="9.26442" ry="9.49024" transform="matrix(-0.687142 -0.726523 -0.727824 0.685764 310.98 123.449)" stroke="black" stroke-width="1.29528"/>
<path fill-rule="evenodd" clip-rule="evenodd" d="M318.866 122.722C318.602 118.683 315.233 115.547 311.178 115.567V115.594C310.935 115.593 310.691 115.605 310.449 115.631C306.089 116.039 302.837 119.823 303.099 124.187C303.376 128.213 306.738 131.333 310.782 131.315C311.027 131.316 311.272 131.303 311.516 131.277C315.876 130.87 319.128 127.085 318.866 122.722ZM310.573 116.968C310.776 116.941 310.98 116.941 311.178 116.941C314.517 116.907 317.295 119.496 317.489 122.824C317.704 126.442 315.008 129.58 311.392 129.919C311.19 129.941 310.986 129.951 310.782 129.951C307.446 129.98 304.673 127.393 304.476 124.069C304.261 120.45 306.956 117.31 310.573 116.968Z" fill="white"/>
<path d="M296.633 124.754L301.61 124.299" stroke="black" stroke-width="1.29528"/>
<path fill-rule="evenodd" clip-rule="evenodd" d="M295.341 124.871C295.071 120.733 291.62 117.52 287.465 117.54H287.438C287.188 117.539 286.938 117.552 286.688 117.578C282.228 118.007 278.91 121.888 279.188 126.352C279.457 130.491 282.909 133.704 287.063 133.684C287.314 133.684 287.564 133.672 287.813 133.646C292.285 133.23 295.618 129.345 295.341 124.871ZM286.846 118.947C287.053 118.925 287.26 118.915 287.468 118.915C290.905 118.883 293.764 121.544 293.972 124.968C294.185 128.695 291.41 131.924 287.688 132.283C287.484 132.31 287.27 132.31 287.066 132.31C283.629 132.342 280.77 129.681 280.562 126.257C280.352 122.532 283.126 119.305 286.846 118.947Z" fill="white"/>
<path d="M290.358 178.708L293.133 166.746L296.144 153.854" stroke="black" stroke-width="1.29528"/>
<defs>
<linearGradient id="paint0_linear_2012_69458" x1="446.477" y1="-45.226" x2="449.717" y2="140.665" gradientUnits="userSpaceOnUse">
<stop stop-color="#3A394B"/>
<stop offset="1" stop-color="#2F2E3E"/>
</linearGradient>
<linearGradient id="paint1_linear_2012_69458" x1="428.919" y1="-43.447" x2="432.031" y2="135.131" gradientUnits="userSpaceOnUse">
<stop stop-color="#3A394B"/>
<stop offset="1" stop-color="#2F2E3E"/>
</linearGradient>
<linearGradient id="paint2_linear_2012_69458" x1="230.164" y1="-1.82501" x2="225.311" y2="122.79" gradientUnits="userSpaceOnUse">
<stop stop-color="#3A394B"/>
<stop offset="1" stop-color="#2F2E3E"/>
</linearGradient>
<linearGradient id="paint3_linear_2012_69458" x1="499.19" y1="325.466" x2="498.744" y2="357.589" gradientUnits="userSpaceOnUse">
<stop stop-color="#3A394B"/>
<stop offset="1" stop-color="#2F2E3E"/>
</linearGradient>
<linearGradient id="paint4_linear_2012_69458" x1="152.16" y1="149.304" x2="149.939" y2="242.371" gradientUnits="userSpaceOnUse">
<stop stop-color="#3A394B"/>
<stop offset="1" stop-color="#2F2E3E"/>
</linearGradient>
<linearGradient id="paint5_linear_2012_69458" x1="269.719" y1="176.349" x2="268.427" y2="219.554" gradientUnits="userSpaceOnUse">
<stop stop-color="#3A394B"/>
<stop offset="1" stop-color="#2F2E3E"/>
</linearGradient>
</defs>
</svg>
