<svg width="577" height="403" viewBox="0 0 577 403" fill="none" xmlns="http://www.w3.org/2000/svg">
<path d="M68.25 174.479C60.2123 184.572 52.5667 197.08 45.653 212.493C3.55645 306.409 56.1739 354.071 56.1739 354.071" stroke="white" stroke-opacity="0.1" stroke-width="6.66572"/>
<path d="M490.473 248.985C490.473 248.985 552.927 178.226 475.047 143.189C397.167 108.152 381.748 103.284 387.367 66.8371C392.985 30.3905 348.819 -6.72165 279.36 17.8023C209.902 42.3262 208.51 88.5419 213.437 124.271C216.233 144.638 204.662 149.532 190.569 148.507" stroke="white" stroke-opacity="0.1" stroke-width="6.66572"/>
<path fill-rule="evenodd" clip-rule="evenodd" d="M357.795 71.6458C360.127 56.503 352.152 41.0804 336.1 31.982C320.057 22.889 295.905 20.1284 266.148 30.6476C219.994 46.9627 203.03 75.3198 187.452 101.362C182.929 108.922 178.523 116.287 173.554 123.106C162.305 138.541 143.683 144.062 126.751 145.915C118.259 146.845 110.119 146.859 103.426 146.708C101.419 146.663 99.5192 146.602 97.7862 146.546L97.7846 146.546L97.7807 146.546C96.6438 146.509 95.579 146.475 94.6032 146.449C92.5438 146.395 90.8698 146.376 89.6139 146.437L89.6146 146.44C78.6375 149.683 67.717 155.776 58.799 162.718C49.855 169.681 43.0675 177.387 40.2055 183.773C22.1732 224.042 26.8019 258.002 35.9117 281.9C40.4712 293.861 46.157 303.309 50.7 309.762C52.9709 312.988 54.9544 315.463 56.3657 317.127C57.0712 317.959 57.6335 318.588 58.0169 319.006C58.2086 319.215 58.3556 319.372 58.4533 319.475C58.5022 319.526 58.5388 319.564 58.5625 319.589L58.5883 319.615L58.5939 319.621L58.5948 319.622C58.5948 319.622 58.5948 319.622 58.5207 319.695C58.4212 319.792 58.1884 320.021 57.6435 320.556C56.6925 321.49 56.6918 321.49 56.6909 321.489L56.6881 321.486L56.6786 321.476L56.645 321.441C56.6161 321.411 56.5742 321.368 56.52 321.311C56.4117 321.197 56.2539 321.029 56.0513 320.808C55.646 320.365 55.061 319.711 54.3323 318.852C52.8749 317.133 50.8416 314.595 48.5198 311.297C43.8775 304.703 38.0746 295.06 33.4203 282.85C24.1027 258.407 19.404 223.702 37.772 182.683L37.7722 182.683C40.8889 175.728 48.0591 167.7 57.1612 160.614C66.2253 153.558 77.3461 147.326 88.6196 143.954L88.6086 143.834C90.0945 143.698 92.1856 143.718 94.674 143.784C95.6863 143.811 96.7627 143.845 97.9036 143.882L97.9042 143.882C99.6188 143.937 101.479 143.997 103.487 144.042C110.133 144.193 118.139 144.176 126.461 143.265C143.154 141.438 160.823 136.047 171.399 121.536C176.182 114.973 180.481 107.778 184.936 100.323C200.562 74.1708 218.113 44.7997 265.259 28.1338C295.573 17.418 320.556 20.1072 337.414 29.6624C354.263 39.2122 362.958 55.6361 360.43 72.0515C359.226 79.8698 359.182 85.8147 360.714 90.8369C362.234 95.8167 365.351 100.039 370.773 104.315C376.225 108.615 383.943 112.921 394.577 118.069C403.078 122.185 413.379 126.811 425.792 132.385L425.793 132.385C428.892 133.777 432.123 135.228 435.49 136.744C452.546 144.427 462.089 154.149 466.662 164.535C471.229 174.906 470.752 185.739 468.159 195.483C465.568 205.221 460.844 213.959 456.791 220.242C454.761 223.389 452.891 225.932 451.526 227.692C450.844 228.572 450.287 229.256 449.899 229.723C449.705 229.957 449.553 230.136 449.449 230.257C449.397 230.318 449.356 230.365 449.329 230.397L449.297 230.433L449.288 230.444L449.285 230.447C449.284 230.447 449.284 230.448 448.284 229.566C447.284 228.685 447.283 228.685 447.284 228.685L447.285 228.684L447.29 228.677L447.316 228.647C447.34 228.62 447.376 228.578 447.424 228.522C447.52 228.41 447.663 228.242 447.849 228.019C448.219 227.573 448.757 226.912 449.42 226.057C450.746 224.348 452.569 221.868 454.551 218.796C458.52 212.643 463.09 204.168 465.583 194.797C468.074 185.431 468.471 175.258 464.222 165.609C459.98 155.974 451.016 146.662 434.395 139.175C431.039 137.664 427.815 136.216 424.72 134.826C412.302 129.25 401.954 124.604 393.415 120.469C382.756 115.308 374.815 110.899 369.122 106.409C363.399 101.895 359.883 97.2493 358.164 91.615C356.458 86.023 356.569 79.6066 357.795 71.6458Z" fill="#1E222A" fill-opacity="0.1"/>
<path fill-rule="evenodd" clip-rule="evenodd" d="M304.398 91.422C315.965 87.9734 328.469 91.8314 336.082 101.198C343.694 110.565 344.915 123.595 339.174 134.211C333.433 144.829 321.861 150.942 309.856 149.7C297.85 148.459 287.774 140.108 284.327 128.54C282.065 120.957 282.91 112.785 286.674 105.824C290.438 98.8628 296.814 93.6822 304.398 91.422ZM319.389 141.712C321.629 140.972 322.876 138.584 322.201 136.323C321.527 134.062 319.177 132.746 316.897 133.355C315.362 133.764 314.171 134.976 313.788 136.518C313.404 138.06 313.89 139.688 315.055 140.768C316.22 141.848 317.88 142.21 319.389 141.712ZM305.613 113.496C305.25 112.7 304.89 111.907 304.528 111.12C304.33 110.678 304.107 110.22 303.877 109.752C302.57 107.085 301.096 104.075 303.437 101.633C305.726 99.282 310.518 98.2309 313.071 100.678C315.324 102.82 315.601 107.021 315.827 110.449C315.89 111.398 315.948 112.287 316.044 113.058C316.75 117.924 317.128 122.833 317.174 127.749C317.168 129.331 314.439 130.145 313.569 128.823C310.426 124.073 307.986 118.711 305.613 113.496Z" fill="#E8B98B"/>
<path fill-rule="evenodd" clip-rule="evenodd" d="M387.743 157.494C393.521 163.374 393.439 172.825 387.559 178.604C381.68 184.383 372.229 184.302 366.449 178.423C360.669 172.545 360.749 163.094 366.627 157.313C372.508 151.534 381.961 151.614 387.743 157.494ZM369.017 175.898C369.563 176.454 370.365 176.677 371.119 176.482C371.874 176.287 372.467 175.704 372.676 174.953C372.885 174.202 372.677 173.397 372.131 172.841C371.287 171.981 369.905 171.968 369.045 172.813C368.186 173.657 368.173 175.038 369.017 175.898ZM378.235 163.246C378.511 162.886 378.786 162.529 379.058 162.173C379.211 161.979 379.363 161.769 379.518 161.554C380.394 160.351 381.374 159.002 382.991 159.472C384.539 159.918 386.155 161.805 385.669 163.5C385.246 165.009 383.439 166.122 381.969 167.027C381.573 167.27 381.202 167.499 380.889 167.716C378.908 169.172 376.832 170.493 374.673 171.671C373.973 172.022 372.978 171.021 373.357 170.327C374.707 167.83 376.495 165.506 378.235 163.246Z" fill="#E8B98B"/>
<path d="M172.778 229.246H143.587L115.787 245.648L82.7039 295.968L64.3555 329.606L73.5297 366.303L89.932 371.585L95.7701 373.809L104.666 375.199H243.391L241.723 368.805V365.747L242.001 361.021L243.947 355.183L246.449 350.735L248.673 351.291L252.287 353.515L255.624 356.295H259.516L262.574 355.183L264.52 352.959L265.354 349.623L264.242 346.287L260.906 342.951L254.512 339.336L249.785 337.112L239.499 334.054L229.769 331.83L219.483 330.718L202.802 329.05L185.844 327.382L167.496 325.714L154.707 324.324L202.524 288.183L206.695 261.217L191.682 245.648L172.778 229.246Z" fill="white"/>
<path d="M312.944 201.267L316.18 208.751C316.387 209.231 316.372 209.778 316.138 210.246C316.015 210.492 315.951 210.763 315.951 211.038V213.956V216.186C315.951 216.716 316.162 217.225 316.537 217.6L317.341 218.404L319.263 220.565C319.462 220.79 319.608 221.056 319.691 221.345L320.524 224.261C320.624 224.613 320.627 224.984 320.531 225.337L319.843 227.856L318.721 230.775C318.548 231.223 318.22 231.595 317.796 231.821L315.153 233.231C314.605 233.523 314.223 234.054 314.121 234.666L313.727 237.03L311.825 243.553C311.796 243.652 311.759 243.75 311.715 243.844L309.557 248.429L306.631 252.951C306.543 253.086 306.44 253.211 306.323 253.321L301.987 257.402C301.845 257.535 301.685 257.647 301.511 257.734L295.953 260.513C295.757 260.611 295.546 260.676 295.329 260.706L289.541 261.495L287.463 261.726C287.183 261.757 286.9 261.729 286.632 261.643L280.372 259.64C280.184 259.58 280.006 259.492 279.844 259.379L277.422 257.703C276.835 257.297 276.077 257.234 275.432 257.537L271.748 259.271L264.965 261.713C264.854 261.753 264.747 261.803 264.645 261.861L247.795 271.563C247.003 272.019 246.004 271.88 245.366 271.227L235.474 261.094C235.199 260.812 235.013 260.454 234.94 260.067L229.833 232.921C229.791 232.697 229.788 232.467 229.823 232.242L233.119 211.198C233.271 210.225 234.11 209.508 235.094 209.508H246.151C246.349 209.508 246.546 209.537 246.736 209.595L259.913 213.629C260.019 213.662 260.122 213.703 260.221 213.753L264.962 216.123C266.292 216.788 267.856 215.821 267.856 214.334V202.83C267.856 202.3 268.067 201.791 268.442 201.416L271.163 198.695C271.538 198.32 272.046 198.11 272.577 198.11H291.402C291.819 198.11 292.225 198.24 292.564 198.482L300.734 204.318C301.368 204.77 302.206 204.814 302.883 204.43L310.121 200.322C311.156 199.734 312.472 200.175 312.944 201.267Z" fill="white"/>
<path fill-rule="evenodd" clip-rule="evenodd" d="M74.4622 356.698C72.9094 353.69 72.0342 350.378 71.897 346.995C71.8918 346.862 71.8958 346.728 71.9079 346.594C71.5072 339.107 73.5466 329.722 78.3893 318.765V318.732C82.8647 308.651 89.7469 297.26 99.2962 284.829L99.3527 284.772C107.687 273.928 115.242 265.232 121.627 258.407C121.838 258.183 122.049 257.958 122.262 257.733C122.996 256.951 123.736 256.164 124.486 255.4C124.611 255.267 124.736 255.138 124.859 255.011C124.987 254.879 125.112 254.75 125.232 254.621C134.33 245.247 140.517 240.229 142.483 238.715C142.918 238.353 143.156 238.189 143.156 238.189C193.564 223.667 199.096 282.682 199.096 282.682H199.056L162.328 311.217L162.203 311.307C162.191 311.303 162.177 311.303 162.164 311.307C161.712 311.527 155.541 314.584 152.886 318.149C152.279 318.909 151.878 319.812 151.722 320.771C151.684 321.113 151.733 321.459 151.863 321.777C152.552 323.286 155.208 324.196 158.118 324.761C161.159 325.268 164.231 325.566 167.312 325.654C167.365 325.654 167.846 325.701 168.678 325.783C168.993 325.815 169.358 325.85 169.77 325.891L171.465 326.054C171.9 326.09 172.36 326.137 172.853 326.187C173.064 326.208 173.281 326.23 173.504 326.252L175.03 326.399C175.12 326.406 175.217 326.418 175.319 326.43C175.486 326.451 175.664 326.473 175.833 326.473L177.528 326.637C177.604 326.645 177.682 326.656 177.761 326.667C177.979 326.697 178.205 326.727 178.42 326.727C191.355 328.015 211.34 330.055 214.268 330.62C215.682 330.95 217.154 330.936 218.562 330.581C219.287 330.407 219.96 330.064 220.528 329.581L245.696 311.165C249.851 308.133 253.593 305.161 256.923 302.249C257.584 301.388 258.289 300.561 259.037 299.774C281.09 275.934 282.893 260.723 282.893 260.723C283.281 260.634 283.676 260.579 284.074 260.56C280.927 258.865 274.107 255.169 272.977 254.135C272.936 254.097 272.896 254.059 272.856 254.022C271.467 252.711 270.523 251.821 266.913 257.062C263.201 262.453 249.154 262.797 249.154 262.797C233.508 258.231 235.135 233.991 235.914 225.272C236.695 216.553 241.373 214.118 241.373 214.118C241.225 210.692 241.737 207.27 242.882 204.037C239.187 202.523 180.935 179.887 118.717 226.854C54.4253 275.392 47.4302 375.152 47.4302 375.152H99.72C94.8075 374.222 90.1338 372.31 85.9777 369.53L85.814 369.417C81.2105 366.228 77.4004 362.026 74.6767 357.132C74.5954 356.993 74.5233 356.848 74.4622 356.698ZM216.59 221.797C217.059 222.141 225.428 228.368 223.935 245.563C222.444 262.752 206.277 277.07 205.645 277.601C205.674 277.553 205.735 277.458 205.824 277.318C208.057 273.817 228.035 242.502 216.59 221.797Z" fill="url(#paint0_linear_1996_70036)"/>
<path d="M255.544 242.19C256.163 242.645 256.808 243.064 257.476 243.444L261.352 236.663C252.413 232.092 249.904 224.034 253.837 219.61C254.937 218.4 256.355 217.523 257.928 217.079C261.884 215.881 264.624 217.644 266.483 220.011C268 222.069 269.113 224.397 269.76 226.871L271.648 205.105L271.794 203.41C271.794 203.41 275.908 201.37 287.051 203.189C298.194 205.009 300.245 211.162 305.031 208.433C309.817 205.704 312.53 205.924 312.53 205.924C313.891 210.925 317.535 210.925 317.535 210.925C318.399 210.821 319.247 210.614 320.061 210.309C325.232 205.557 326.633 197.313 326.633 197.313C321.208 196.641 320.79 191.42 321.412 187.142C318.406 188.928 314.168 189.052 308.218 185.232C291.147 174.315 273.642 180.226 267.489 181.136C264.743 181.537 261.736 180.571 259.245 179.44C258.923 180.017 258.475 180.513 257.934 180.892C253.78 183.786 250.355 187.604 247.927 192.047C231.907 221.989 249.47 237.889 255.544 242.19Z" fill="#E8B98B"/>
<path d="M319.49 375.163H313.048C307.312 375.157 302.663 370.508 302.657 364.772V357.562C302.657 356.234 303.185 354.962 304.124 354.024C305.063 353.086 306.336 352.56 307.664 352.561H346.189C346.186 355.661 347.416 358.634 349.608 360.825C351.801 363.016 354.775 364.245 357.874 364.241H497.086C497.083 370.272 492.195 375.16 486.164 375.163H297.436C296.938 375.165 296.46 374.968 296.108 374.615C295.756 374.264 295.559 373.785 295.56 373.287V361.585C295.56 356.851 291.722 353.013 286.988 353.013C282.254 353.013 278.416 356.851 278.416 361.585V373.287C278.418 373.784 278.221 374.261 277.87 374.614C277.52 374.965 277.043 375.163 276.546 375.163H47.4285C47.4285 375.163 54.4237 275.38 118.716 226.848C180.933 179.881 239.185 202.517 242.88 204.032L243.061 204.099" stroke="black" stroke-width="3.99943"/>
<path d="M307.301 228.453C307.307 230.205 308.731 231.62 310.482 231.617C312.234 231.615 313.652 230.193 313.652 228.442C313.652 226.691 312.234 225.269 310.482 225.266C310.237 225.268 309.992 225.297 309.753 225.357C310.429 225.57 310.886 226.197 310.884 226.905C310.886 227.342 310.715 227.762 310.408 228.073C310.101 228.383 309.682 228.559 309.245 228.56C308.428 228.544 307.739 227.948 307.606 227.142C307.411 227.552 307.307 227.999 307.301 228.453Z" fill="black"/>
<path d="M285.263 229.34C285.261 230.63 286.036 231.794 287.226 232.288C288.417 232.784 289.789 232.512 290.702 231.601C291.614 230.69 291.888 229.319 291.395 228.128C290.902 226.936 289.739 226.159 288.45 226.159C288.298 226.158 288.146 226.175 287.998 226.209C288.573 226.475 288.942 227.051 288.941 227.684C288.968 228.27 288.679 228.825 288.186 229.14C287.692 229.456 287.067 229.484 286.547 229.214C286.027 228.944 285.69 228.417 285.664 227.831C285.403 228.292 285.265 228.811 285.263 229.34Z" fill="black"/>
<path fill-rule="evenodd" clip-rule="evenodd" d="M259.837 174.965C260.204 177.441 259.746 179.61 257.927 180.898C253.773 183.792 250.347 187.61 247.919 192.053C228.81 227.759 257.475 243.473 257.475 243.473L261.351 236.692C250.191 230.996 249.049 219.842 257.927 217.107C266.804 214.373 269.759 226.899 269.759 226.899L271.793 203.421C271.793 203.421 275.907 201.382 287.049 203.201C298.192 205.021 300.243 211.174 305.029 208.445C309.816 205.716 312.528 205.936 312.528 205.936C313.889 210.937 317.534 210.937 317.534 210.937C328.213 209.575 330.723 194.799 330.723 194.799C325.303 194.121 324.885 188.9 325.501 184.628C322.501 186.413 318.257 186.544 312.307 182.718C295.237 171.801 277.732 177.717 271.584 178.627C267.335 179.243 262.459 176.644 259.837 174.965Z" stroke="black" stroke-width="3.99943" stroke-linecap="round" stroke-linejoin="round"/>
<path d="M249.986 352.03L245.765 350.335L242.601 358.873L243.098 374.366L247.376 375.141L263.609 374.44C263.609 374.44 262.479 364.992 259.027 360.5C255.575 356.008 249.986 352.03 249.986 352.03Z" fill="#E8B98B"/>
<path d="M323.898 216.157C323.898 216.157 319.576 208.399 310.478 209.207" stroke="black" stroke-width="3.21954" stroke-linecap="round"/>
<path d="M292.66 209.207C292.66 209.207 282.263 206.874 278.624 212.654" stroke="black" stroke-width="3.21954" stroke-linecap="round"/>
<path d="M276.552 244.331C276.552 244.331 282.768 240.731 287.316 246.783" stroke="black" stroke-width="3.21954" stroke-linecap="round"/>
<path d="M315.829 210.45C315.829 210.45 320.254 262.497 287.26 261.537C281.61 261.373 275.993 257.66 270.625 251.688" stroke="black" stroke-width="3.99943"/>
<path d="M257.476 256.423L270.625 251.688C270.625 251.688 267.364 262.107 251.215 262.904C235.066 263.7 229.647 226.639 241.513 211.727" stroke="black" stroke-width="3.99943" stroke-linejoin="round"/>
<path d="M206.07 360.833C206.07 360.833 218.122 370.614 209.934 375.163" stroke="black" stroke-width="3.99943" stroke-linecap="round"/>
<path d="M215.392 351.73C215.392 351.73 236.298 363.563 218.346 375.163" stroke="black" stroke-width="3.99943" stroke-linecap="round"/>
<path d="M222.445 342.634C222.445 342.634 250.195 355.63 228.814 375.163" stroke="black" stroke-width="3.99943" stroke-linecap="round"/>
<path d="M105.751 375.163C105.751 375.163 72.0846 375.163 71.6326 342.633C71.1806 310.103 136.913 228.419 179.45 217.056C221.987 205.693 223.813 236.832 223.813 238.11C223.813 239.387 226.311 252.801 215.393 267.114C206.963 278.178 169.726 305.797 153.204 317.799C151.961 318.703 151.407 320.281 151.813 321.763C152.219 323.246 153.499 324.322 155.029 324.467L228.101 331.484H228.147C228.836 331.609 254.625 336.366 262.479 344.447C262.479 344.447 266.881 347.707 264.604 352.714C262.327 357.72 255.331 356.07 255.139 355.884" stroke="black" stroke-width="3.99943"/>
<path opacity="0.26" d="M288.442 235.25C283.417 235.25 279.344 231.177 279.344 226.153C279.344 221.128 283.417 217.055 288.442 217.055C293.466 217.055 297.539 221.128 297.539 226.153C297.539 231.177 293.466 235.25 288.442 235.25Z" fill="white"/>
<path opacity="0.26" d="M311.532 234.352C306.507 234.352 302.434 230.279 302.434 225.255C302.434 220.23 306.507 216.157 311.532 216.157C316.556 216.157 320.629 220.23 320.629 225.255C320.629 230.279 316.556 234.352 311.532 234.352Z" fill="white"/>
<path d="M257.846 307.088L255.066 303.196L262.295 296.524L267.855 290.963L272.859 285.403L276.751 280.677L279.809 276.229L282.867 270.391L284.813 265.109L285.925 262.051L287.871 263.997L292.875 267.333L297.601 268.445L305.941 267.055L315.394 265.387L329.572 263.997L341.248 263.441L351.534 263.719L360.987 264.831L368.215 266.499L372.663 264.553L359.041 318.764L355.427 315.984L353.203 313.204L352.09 309.868L346.53 308.2L340.692 307.088H332.63L326.514 307.644L317.34 309.59L304.551 313.204L291.207 315.984L282.033 316.54L273.971 315.984L265.909 313.76L260.627 310.146L257.846 307.088Z" fill="white"/>
<path d="M232.892 350.595C236.09 349.702 241.317 348.9 246.702 350.629C249.335 351.477 251.764 352.86 253.838 354.692C254.29 355.087 254.726 355.488 255.144 355.889C256.045 356.773 256.896 357.707 257.692 358.686C257.797 358.816 257.946 358.902 258.11 358.93C260.116 359.206 273.321 361.297 273.254 367.97C273.191 373.966 266.625 374.949 264.365 375.107C264.177 375.124 263.99 375.062 263.849 374.936C263.709 374.809 263.628 374.629 263.625 374.44C263.625 372.304 263.139 365.608 257.856 358.873" stroke="black" stroke-width="3.99943"/>
<path d="M351.869 303.498C350.32 315.979 360.023 321.624 370.629 322.461" stroke="black" stroke-width="3.99943"/>
<path d="M386.044 319.856C394.328 315.381 398.937 306.21 397.582 296.892C395.887 284.885 385.716 275.675 375.76 269.831C354.853 257.565 307.739 266.441 299.823 268.249C293.754 269.639 288.68 264.893 286.623 262.599C286.445 262.4 286.167 262.324 285.912 262.403C285.657 262.482 285.471 262.702 285.437 262.966C281.091 288.393 230.626 322.907 218.952 330.631" stroke="black" stroke-width="3.99943"/>
<path d="M339.139 294.863L355.847 305.232C357.861 306.486 360.311 306.829 362.592 306.177C364.872 305.524 366.77 303.937 367.816 301.808C369.748 297.886 368.341 293.138 364.583 290.903L339.156 275.753" stroke="black" stroke-width="3.33286" stroke-linecap="round"/>
<path d="M288.442 235.25C283.417 235.25 279.344 231.177 279.344 226.153C279.344 221.128 283.417 217.055 288.442 217.055C293.466 217.055 297.539 221.128 297.539 226.153C297.539 231.177 293.466 235.25 288.442 235.25Z" stroke="black" stroke-width="2.66629"/>
<path d="M311.532 234.352C306.507 234.352 302.434 230.279 302.434 225.255C302.434 220.23 306.507 216.157 311.532 216.157C316.556 216.157 320.629 220.23 320.629 225.255C320.629 230.279 316.556 234.352 311.532 234.352Z" stroke="black" stroke-width="2.66629"/>
<path d="M297.491 225.255H302.43" stroke="black" stroke-width="2.66629"/>
<path d="M297.494 238.11H300.749C301.163 238.11 301.556 237.926 301.821 237.607C302.085 237.287 302.194 236.867 302.116 236.46L299.964 225.255" stroke="black" stroke-width="2.66629" stroke-linecap="round"/>
<path d="M362.795 269.159C362.795 269.159 374.396 271.663 378.487 289.179C380.973 299.813 384.386 313.38 386.68 322.399C387.276 324.743 386.757 327.231 385.273 329.141C383.788 331.051 381.505 332.168 379.086 332.168C375.414 332.169 372.234 329.621 371.435 326.038L366.581 304.261" stroke="black" stroke-width="3.33286" stroke-linecap="round"/>
<path d="M352.188 310.103C352.188 310.103 340.011 302.825 316.024 310.103C292.038 317.381 264.463 322.32 255.366 303.017" stroke="black" stroke-width="2.66629"/>
<path d="M246.695 350.628C246.695 350.628 238.219 360.302 243.372 375.163" stroke="black" stroke-width="3.99943"/>
<path d="M526.775 230.335H392.857C383.979 230.323 376.249 236.397 374.16 245.026L352.841 333.321C351.675 338.148 352.787 343.243 355.859 347.145C358.931 351.047 363.623 353.324 368.588 353.324H502.162C511.022 353.332 518.739 347.279 520.842 338.672L542.506 250.394C543.691 245.562 542.59 240.453 539.52 236.538C536.45 232.623 531.751 230.336 526.775 230.335Z" fill="#E8B98B"/>
<path d="M521.899 234.132H396.253C387.923 234.143 380.679 239.843 378.708 247.936L358.695 330.767C357.6 335.295 358.642 340.075 361.523 343.736C364.405 347.397 368.806 349.533 373.465 349.532H498.805C507.108 349.515 514.332 343.845 516.321 335.785L536.663 252.948C537.776 248.414 536.743 243.62 533.861 239.946C530.978 236.273 526.568 234.129 521.899 234.132Z" fill="#E8B98B"/>
<path fill-rule="evenodd" clip-rule="evenodd" d="M526.775 230.335H392.857C383.979 230.323 376.249 236.397 374.16 245.026L352.841 333.321C351.675 338.148 352.787 343.243 355.859 347.145C358.931 351.047 363.623 353.324 368.588 353.324H502.162C511.022 353.332 518.739 347.279 520.842 338.672L542.506 250.394C543.691 245.562 542.59 240.453 539.52 236.538C536.45 232.623 531.751 230.336 526.775 230.335Z" stroke="black" stroke-width="3.99943"/>
<path d="M388.721 300.723C388.723 302.139 389.87 303.285 391.286 303.288H404.904C406.978 301.209 407.61 298.288 406.361 296.174H394.371C392.038 296.175 389.926 297.551 388.981 299.683C388.824 300.009 388.736 300.363 388.721 300.723Z" fill="#E8B98B"/>
<path d="M382.467 316.432C382.479 317.85 383.631 318.994 385.049 318.997H484.058C482.792 316.873 483.425 313.963 485.504 311.889H388.084C385.748 311.889 383.635 313.27 382.698 315.409C382.552 315.731 382.473 316.079 382.467 316.432Z" fill="#E8B98B"/>
<path d="M475.319 334.514H490.994C493.326 334.511 495.438 333.136 496.384 331.004C496.54 330.689 496.628 330.345 496.645 329.993C496.641 328.571 495.49 327.42 494.068 327.416H476.794C477.998 329.553 477.381 332.457 475.319 334.514Z" fill="#E8B98B"/>
<g opacity="0.21">
<path opacity="0.21" d="M502.953 267.696C500.755 267.012 499.704 264.091 500.614 261.175C501.524 258.259 504.038 256.44 506.264 257.123C508.491 257.807 509.513 260.729 508.609 263.65C507.705 266.571 505.123 268.402 502.953 267.696Z" fill="#F3DCC5"/>
<path opacity="0.21" d="M493.258 267.035H480.302H475.459H475.233C474.78 267.047 474.329 266.963 473.911 266.786C473.32 266.497 472.932 265.911 472.897 265.254C472.862 264.597 473.184 263.973 473.741 263.622C474.043 263.479 474.32 263.288 474.561 263.057C474.713 262.804 474.82 262.527 474.877 262.238C475.177 261.423 475.753 260.739 476.504 260.305C477.616 259.555 478.985 259.292 480.296 259.576C480.925 259.739 481.498 260.067 481.957 260.526C482.364 260.921 482.437 261.447 482.748 261.893C482.952 262.181 483.082 262.091 483.359 261.927C483.636 261.763 483.788 261.656 484.014 261.537C484.46 261.3 484.923 261.097 485.398 260.927C486.367 260.567 487.401 260.412 488.433 260.475C490.247 260.616 492.055 261.701 492.693 263.402C493.871 263.421 494.861 264.293 495.027 265.458C495.101 265.898 494.965 266.348 494.66 266.673C494.252 266.959 493.754 267.088 493.258 267.035Z" fill="#F3DCC5"/>
<path opacity="0.21" d="M387.385 302.085C387.385 303.499 388.53 304.647 389.945 304.65H403.535C405.614 302.576 406.247 299.649 404.998 297.542H393.002C390.669 297.54 388.554 298.916 387.611 301.05C387.467 301.376 387.39 301.729 387.385 302.085Z" fill="#E8B98B"/>
<path opacity="0.21" d="M381.105 317.771C381.117 319.189 382.27 320.331 383.687 320.331H482.69C481.424 318.206 482.057 315.302 484.137 313.223H386.722C384.384 313.222 382.268 314.606 381.331 316.748C381.186 317.07 381.109 317.418 381.105 317.771Z" fill="#E8B98B"/>
<path opacity="0.21" d="M473.959 335.898H489.657C491.987 335.894 494.097 334.522 495.047 332.395C495.189 332.072 495.266 331.725 495.273 331.372C495.267 329.948 494.114 328.796 492.691 328.79H475.418C476.655 330.915 476.022 333.825 473.959 335.898Z" fill="#E8B98B"/>
</g>
<path d="M381.082 308.903L382.051 302.649L409.098 267.675H413.868L412.391 276.882H409.364L389.993 301.949V302.349H419.341L418.299 308.903H381.082ZM402.948 318.91L404.861 306.952L405.393 304.175L411.229 267.675H418.324L410.091 318.91H402.948Z" fill="#333333"/>
<path d="M442.235 319.761C438.409 319.761 435.31 318.727 432.937 316.659C430.564 314.574 428.982 311.555 428.191 307.602C427.4 303.65 427.44 298.888 428.312 293.318C429.2 287.764 430.677 283.019 432.743 279.083C434.826 275.147 437.384 272.145 440.419 270.077C443.47 268.009 446.893 266.975 450.686 266.975C454.464 266.975 457.547 268.017 459.936 270.102C462.325 272.17 463.931 275.164 464.755 279.083C465.594 283.002 465.562 287.747 464.658 293.318C463.754 298.905 462.269 303.666 460.202 307.602C458.136 311.538 455.577 314.549 452.526 316.634C449.475 318.718 446.045 319.761 442.235 319.761ZM443.301 313.081C446.675 313.081 449.58 311.388 452.018 308.003C454.456 304.617 456.191 299.722 457.224 293.318C457.902 289.065 458.039 285.471 457.636 282.535C457.248 279.583 456.368 277.349 454.996 275.831C453.64 274.296 451.848 273.529 449.621 273.529C446.295 273.529 443.406 275.239 440.952 278.658C438.514 282.06 436.787 286.947 435.77 293.318C435.076 297.587 434.923 301.198 435.31 304.15C435.697 307.085 436.569 309.312 437.925 310.83C439.281 312.331 441.073 313.081 443.301 313.081Z" fill="#333333"/>
<path d="M469.713 308.903L470.681 302.649L497.729 267.675H502.499L501.022 276.882H497.995L478.623 301.949V302.349H507.971L506.93 308.903H469.713ZM491.578 318.91L493.491 306.952L494.024 304.175L499.859 267.675H506.954L498.721 318.91H491.578Z" fill="#333333"/>
<defs>
<linearGradient id="paint0_linear_1996_70036" x1="-75.3151" y1="168.689" x2="-76.9221" y2="286.159" gradientUnits="userSpaceOnUse">
<stop stop-color="#3A394B"/>
<stop offset="1" stop-color="#2F2E3E"/>
</linearGradient>
</defs>
</svg>
