<svg width="441" height="292" viewBox="0 0 441 292" fill="none" xmlns="http://www.w3.org/2000/svg">
<path d="M418.216 293.699H282.654H292.046L377.785 292.707C393.635 291.331 404.804 275.805 398.783 261.106C397.742 258.567 398.83 257.859 397.542 255.41C384.063 230.065 360.694 209.418 334.212 197.424C334.868 197.301 335.529 197.211 336.203 197.121C331.272 194.654 326.193 192.494 320.995 190.651C318.238 189.669 315.448 188.781 312.663 188.003C298.971 184.149 280.468 185.91 274.641 201.051C269.741 213.761 276.248 229.116 288.486 234.683L310.467 243.075C310.282 242.799 310.116 242.524 309.945 242.235L329.06 249.53C329.837 250.073 330.194 251.041 329.956 251.958C329.718 252.875 328.934 253.547 327.991 253.645L281.566 258.709C274.874 259.383 266.495 262.179 261.562 266.778C257.964 270.1 254.932 274.623 254.96 280.348C251.926 280.576 248.91 280.999 245.93 281.615C241.382 282.593 236.753 284.278 236.425 287.045C235.778 292.598 243.682 293.727 248.663 293.727L217.143 293.604C220.527 293.604 220.945 293.576 223.188 291.345C225.432 289.114 227.941 287.396 227.941 284.016L228.217 273.185C228.217 270.955 228.749 269.151 226.515 269.151H206.554C208.214 269.196 209.747 268.268 210.475 266.778C210.49 266.76 210.5 266.739 210.503 266.716C211.501 264.865 211.729 262.202 211.544 259.682L211.777 258.856L212.376 256.654L225.056 249.202C225.151 249.147 225.243 249.087 225.332 249.022C231.948 244.983 232.775 237.763 230.507 231.308C230.46 231.185 230.431 231.076 230.384 230.972C230.279 230.696 230.184 230.435 230.065 230.174C229.46 228.702 228.71 227.293 227.827 225.969C224.552 220.862 219.8 216.699 215.284 215.612C214.018 215.327 212.724 215.183 211.425 215.185C227.138 200.472 245.241 187.395 266.623 183.048C285.332 179.188 304.68 179.692 323.162 184.519C344.758 190.258 364.206 202.171 379.629 218.261C400.389 239.89 410.099 265.159 418.216 293.699V293.699Z" fill="#353642"/>
<path d="M207.004 228.67C206.258 230.135 205.039 231.306 203.544 231.992C202.267 232.633 200.914 233.112 199.518 233.416C197.218 233.801 196.405 232.348 194.937 230.924C194.099 230.116 193.136 229.45 192.085 228.95C190.809 228.324 189.32 228.302 188.026 228.888C187.142 229.282 186.572 230.157 186.572 231.124C186.667 232.866 189.072 234.242 190.431 234.964C192.206 235.801 194.05 236.48 195.944 236.995C200.588 238.419 192.855 241.385 191.229 241.57C187.753 242.04 184.224 241.957 180.773 241.324C181.764 243.534 182.524 245.84 183.04 248.206C183.578 250.47 184.205 253.194 183.763 255.472C183.226 258.149 181.415 260.138 179.181 261.486L170.498 225.309C176.971 222.23 184.436 221.986 191.096 224.636C193.34 225.462 195.86 224.905 197.546 223.212L198.435 222.353C199.672 222.084 200.962 222.186 202.142 222.647C204.247 223.439 208.144 225.988 207.004 228.67V228.67Z" fill="#E8B98B"/>
<path fill-rule="evenodd" clip-rule="evenodd" d="M215.922 269.123H180.068C179.317 276.118 173.406 281.422 166.361 281.42H45.8223C45.8379 288.198 51.3357 293.688 58.1223 293.704H215.913C222.699 293.68 228.196 288.197 228.227 281.42V273.162C228.227 270.931 226.416 269.123 224.183 269.123L215.922 269.123Z" stroke="black" stroke-width="1.65186"/>
<path fill-rule="evenodd" clip-rule="evenodd" d="M160.554 188.825C161.613 190.282 162.374 191.934 162.792 193.685L179.778 264.405C180.154 265.94 180.252 267.53 180.068 269.099C179.318 276.094 173.406 281.398 166.361 281.397H43.5842C37.2034 281.393 31.6565 277.023 30.1672 270.827L13.2 200.107C12.207 196.002 13.1557 191.669 15.7735 188.353C18.3913 185.037 22.3885 183.104 26.6169 183.11H149.375C153.458 183.104 157.331 184.915 159.941 188.051L160.554 188.825Z" stroke="black" stroke-width="1.65186"/>
<ellipse rx="13.2728" ry="14.9005" transform="matrix(0.953833 -0.300337 0.301075 0.953601 96.5036 237.434)" fill="#F3DCC5"/>
<path d="M336.876 196.708C326.044 198.517 317.717 203.462 312.128 213.7C307.124 222.86 306.539 234.038 311.876 243.127L290.085 234.783C277.466 229.012 273.027 216.187 278.084 203.016C284.097 187.325 303.174 185.502 317.294 189.498C320.17 190.305 323.04 191.226 325.883 192.242C329.596 193.571 333.26 195.06 336.876 196.708V196.708Z" fill="#353642"/>
<path d="M83.1016 183.119C91.7467 171.963 103.668 163.785 117.198 159.729C115.396 154.895 113.966 149.93 112.92 144.878C101.694 90.3521 136.803 37.0461 191.388 25.8021C245.973 14.558 299.37 49.6049 310.624 104.116C311.882 110.225 312.582 116.435 312.715 122.67C316.615 121.288 320.606 120.178 324.659 119.347C372.362 109.499 419.034 140.151 428.882 187.799C434.517 214.963 426.99 243.191 408.573 263.959" stroke="#9F9F9F" stroke-width="1.65186"/>
<path d="M202.085 269.127H205.455C207.419 269.174 209.291 268.295 210.507 266.754C210.522 266.736 210.534 266.715 210.54 266.692C211.749 265.042 212.299 263.001 212.085 260.968L211.809 258.827L211.581 257.1L212.408 256.625L225.364 248.993L226.238 248.49C232.564 244.774 233.02 237.844 230.54 231.28C230.497 231.161 230.464 231.052 230.421 230.943C230.311 230.667 230.202 230.411 230.098 230.15C229.463 228.692 228.715 227.286 227.859 225.945C224.584 220.833 219.836 216.675 215.317 215.588C214.051 215.3 212.756 215.157 211.457 215.161C208.748 215.161 205.754 215.679 204.181 217.24C220.987 200.728 240.62 185.231 264.236 180.423C282.953 176.57 302.308 177.083 320.794 181.923C342.39 187.661 361.857 199.589 377.28 215.679C378.093 216.523 378.887 217.378 379.656 218.251C398.986 239.467 411.314 266.265 419.104 293.689" stroke="black" stroke-width="1.65186"/>
<path fill-rule="evenodd" clip-rule="evenodd" d="M288.606 234.56C276.363 228.993 269.861 213.638 274.757 200.932C280.593 185.787 299.095 184.026 312.778 187.88C315.573 188.662 318.35 189.544 321.11 190.528C351.874 201.445 379.83 224.109 395.096 252.824C396.384 255.254 397.41 257.751 398.451 260.295C401.297 267.226 400.671 275.096 396.767 281.492C392.862 287.888 386.143 292.049 378.67 292.698L292.936 293.699H266.549C261.769 293.7 257.519 290.662 255.979 286.143C253.084 277.6 256.825 271.154 261.554 266.764C266.487 262.188 272.922 259.573 279.614 258.899L327.778 254.039C328.723 253.942 329.508 253.27 329.748 252.353C329.988 251.435 329.633 250.465 328.857 249.919L288.606 234.56Z" stroke="black" stroke-width="1.65186"/>
<path d="M274.252 268.23C269.856 270.755 265.336 274.709 263.824 279.716C262.085 285.483 266.168 290.723 270.806 293.723" stroke="black" stroke-width="1.65186"/>
<path d="M278.961 274.847C274.86 278.743 271.305 283.684 273.676 289.56C274.354 291.173 275.411 292.599 276.756 293.718" stroke="black" stroke-width="1.65186"/>
<path d="M287.006 282.469C287.006 282.469 277.563 289.48 283.561 293.685" stroke="black" stroke-width="1.65186"/>
<path d="M262.771 293.03L262.938 293.704H247.7C242.719 293.704 235.819 292.94 236.47 287.387C237.121 281.834 254.958 280.32 254.958 280.32" stroke="black" stroke-width="1.65186"/>
<path d="M235.441 118.408L203.014 123.254L208.665 127.231L219.235 135.684C220.889 136.847 220.475 139.591 221.392 141.256C222.104 146.395 219.692 151.466 215.253 154.161C210.814 156.855 205.196 156.66 200.956 153.663L175.457 135.751C172.643 133.81 170.383 131.17 168.903 128.09C166.817 117.719 173.219 106.186 185.538 104.359L220.984 99.0427L215.756 94.9893L199.658 82.478C198.279 81.4118 197.129 80.0803 196.274 78.5623C195.542 73.3051 198.077 68.1301 202.683 65.4814C207.289 62.8326 213.044 63.2401 217.229 66.5113L245.945 88.8191C248.293 90.6201 250.192 92.94 251.491 95.5968C253.45 105.621 247.185 116.647 235.441 118.408V118.408Z" fill="#E8B98B"/>
<path d="M211.581 257.095C211.581 257.095 210.593 248.41 207.242 245.348" stroke="black" stroke-width="1.65186"/>
<path d="M170.166 225.917C176.709 222.707 184.307 222.414 191.078 225.11C193.325 225.938 195.848 225.381 197.537 223.686L204.158 217.212" stroke="black" stroke-width="1.65186"/>
<path d="M191.21 262.815L196.737 265.297C196.986 265.4 197.267 265.392 197.509 265.276C197.752 265.16 197.935 264.947 198.011 264.69L198.881 262.725" stroke="black" stroke-width="1.65186"/>
<path d="M192.117 251.852C193.061 254.017 192.713 256.527 191.214 258.354" stroke="black" stroke-width="1.10124"/>
<path d="M204.66 269.123C205.53 267.837 205.525 264.728 205.302 263.48C205.159 262.687 203.824 262.403 203.681 263.2C203.291 265.426 200.777 268.848 198.453 269.123" stroke="black" stroke-width="1.65186"/>
<ellipse cx="193.498" cy="253.645" rx="7.09583" ry="7.08628" stroke="black" stroke-width="1.65186"/>
<path d="M191.124 260.319L189.859 263.869C188.087 263.238 186.135 263.336 184.435 264.143C182.735 264.949 181.426 266.398 180.796 268.169" stroke="black" stroke-width="1.65186"/>
<ellipse opacity="0.53" cx="193.494" cy="253.645" rx="6.00745" ry="5.99937" fill="white"/>
<path d="M179.158 261.951C181.392 260.603 183.198 258.628 183.735 255.942C184.182 253.659 183.554 250.939 183.017 248.675C182.501 246.309 181.742 244.003 180.75 241.793C184.201 242.425 187.73 242.507 191.206 242.035C192.827 241.855 200.565 238.903 195.921 237.464C194.028 236.951 192.184 236.27 190.413 235.428C189.044 234.721 186.644 233.345 186.558 231.598C186.546 230.634 187.106 229.753 187.984 229.353C189.28 228.769 190.769 228.796 192.043 229.424C193.097 229.919 194.061 230.586 194.895 231.399C196.368 232.823 197.171 234.246 199.481 233.881C200.875 233.581 202.225 233.102 203.497 232.457C204.996 231.772 206.218 230.601 206.966 229.135C208.117 226.462 204.21 223.914 202.09 223.15C200.913 222.688 199.625 222.582 198.388 222.846" stroke="black" stroke-width="1.65186"/>
<path fill-rule="evenodd" clip-rule="evenodd" d="M235.434 118.408L203.006 123.254L208.657 127.232L215.967 132.358C219.873 134.999 222.046 139.54 221.652 144.234C221.258 148.928 218.358 153.044 214.066 154.999C209.775 156.954 204.761 156.444 200.953 153.664L175.455 135.751C172.64 133.811 170.381 131.17 168.901 128.091C163.478 116.847 169.818 101.872 183.986 99.7601L212.108 95.5548L215.748 94.99L199.651 82.4787C195.974 79.6206 194.103 75.0206 194.743 70.4114C195.383 65.8023 198.437 61.8843 202.754 60.1333C207.071 58.3822 211.995 59.0642 215.672 61.9223L244.388 84.2301C248.064 87.0218 250.583 91.0661 251.465 95.5928C253.442 105.622 247.178 116.647 235.434 118.408V118.408Z" stroke="black" stroke-width="1.65186"/>
<path d="M164.259 173.46L163.945 165.187L160.271 168.946C158.973 170.271 156.847 170.296 155.518 169.003C154.192 167.707 154.167 165.584 155.461 164.257L162.044 157.546C163.43 156.129 165.529 155.673 167.38 156.386C169.23 157.1 170.478 158.846 170.551 160.825L170.86 169.264L173.569 166.213C174.161 165.544 174.994 165.138 175.886 165.084C176.778 165.031 177.655 165.334 178.322 165.928C178.991 166.518 179.398 167.351 179.452 168.241C179.506 169.131 179.204 170.006 178.612 170.674L173.274 176.688C171.881 178.276 169.657 178.851 167.666 178.139C165.676 177.426 164.324 175.571 164.259 173.46V173.46Z" fill="#F3DCC5"/>
<path d="M191.799 188.382L195.71 187.509L193.595 186.085C192.849 185.583 192.65 184.573 193.149 183.826C193.651 183.08 194.664 182.882 195.411 183.384L199.185 185.904C199.984 186.438 200.388 187.396 200.211 188.339C200.034 189.283 199.31 190.03 198.372 190.238L194.365 191.14L196.062 192.16C196.432 192.383 196.698 192.743 196.801 193.161C196.904 193.58 196.837 194.022 196.613 194.391C196.149 195.159 195.15 195.407 194.38 194.946L191.053 192.939C190.177 192.416 189.71 191.412 189.874 190.407C190.039 189.402 190.802 188.599 191.799 188.382V188.382Z" fill="#F3DCC5"/>
<path d="M181.902 211.198L182.22 208.588L180.875 209.584C180.648 209.754 180.362 209.826 180.082 209.785C179.801 209.744 179.548 209.593 179.378 209.366C179.028 208.892 179.125 208.225 179.597 207.871L181.973 206.091C182.479 205.714 183.161 205.675 183.707 205.991C184.253 206.307 184.558 206.918 184.483 207.543L184.16 210.211L185.162 209.385C185.382 209.205 185.664 209.119 185.946 209.147C186.229 209.174 186.489 209.313 186.669 209.532C186.85 209.751 186.935 210.033 186.908 210.315C186.88 210.597 186.741 210.857 186.522 211.037L184.545 212.66C184.027 213.071 183.313 213.131 182.734 212.811C182.156 212.491 181.827 211.854 181.902 211.198V211.198Z" fill="#F3DCC5"/>
<path d="M336.876 197.036L336.676 197.373C336.525 197.278 336.366 197.195 336.201 197.126L336.876 197.036Z" fill="#353642"/>
</svg>
