<svg width="17" height="19" viewBox="0 0 17 19" fill="none" xmlns="http://www.w3.org/2000/svg">
<path d="M14.952 7.50977H2.04756C1.69122 7.50977 1.40234 7.79864 1.40234 8.15499V17.1881C1.40234 17.5444 1.69122 17.8333 2.04756 17.8333H14.952C15.3083 17.8333 15.5972 17.5444 15.5972 17.1881V8.15499C15.5972 7.79864 15.3083 7.50977 14.952 7.50977Z" stroke="#E8B98B" stroke-width="1.5" stroke-linecap="round" stroke-linejoin="round"/>
<path d="M5.59766 7.50913V4.60564C5.59766 3.83559 5.90356 3.09707 6.44807 2.55256C6.99258 2.00805 7.73109 1.70215 8.50115 1.70215C9.2712 1.70215 10.0097 2.00805 10.5542 2.55256C11.0987 3.09707 11.4046 3.83559 11.4046 4.60564V7.50913" stroke="#E8B98B" stroke-width="1.5" stroke-linecap="round" stroke-linejoin="round"/>
<path d="M8.49908 13.6388C9.0336 13.6388 9.46691 13.2055 9.46691 12.671C9.46691 12.1364 9.0336 11.7031 8.49908 11.7031C7.96456 11.7031 7.53125 12.1364 7.53125 12.671C7.53125 13.2055 7.96456 13.6388 8.49908 13.6388Z" fill="#E8B98B"/>
</svg>
