<svg width="23" height="25" viewBox="0 0 23 25" fill="none" xmlns="http://www.w3.org/2000/svg">
<path d="M18.6875 8.75H4.3125C3.91555 8.75 3.59375 9.08579 3.59375 9.5V20C3.59375 20.4142 3.91555 20.75 4.3125 20.75H18.6875C19.0845 20.75 19.4062 20.4142 19.4062 20V9.5C19.4062 9.08579 19.0845 8.75 18.6875 8.75Z" stroke="#828282" stroke-width="1.5" stroke-linecap="round" stroke-linejoin="round"/>
<path d="M8.26562 8.75V5.375C8.26563 4.47989 8.60639 3.62145 9.21295 2.98851C9.81951 2.35558 10.6422 2 11.5 2C12.3578 2 13.1805 2.35558 13.787 2.98851C14.3936 3.62145 14.7344 4.47989 14.7344 5.375V8.75" stroke="#828282" stroke-width="1.5" stroke-linecap="round" stroke-linejoin="round"/>
<path d="M11.5 15.875C12.0954 15.875 12.5781 15.3713 12.5781 14.75C12.5781 14.1287 12.0954 13.625 11.5 13.625C10.9046 13.625 10.4219 14.1287 10.4219 14.75C10.4219 15.3713 10.9046 15.875 11.5 15.875Z" fill="#828282"/>
</svg>
